<?xml version="1.0" encoding="UTF-8" standalone="no"?>
<!-- Created with Inkscape (http://www.inkscape.org/) -->

<svg
   version="1.1"
   id="svg8354"
   width="1344"
   height="768"
   viewBox="0 0 1344 768"
   sodipodi:docname="crab-rose-silhouette.svg"
   xml:space="preserve"
   inkscape:version="1.2.2 (b0a8486541, 2022-12-01)"
   xmlns:inkscape="http://www.inkscape.org/namespaces/inkscape"
   xmlns:sodipodi="http://sodipodi.sourceforge.net/DTD/sodipodi-0.dtd"
   xmlns="http://www.w3.org/2000/svg"
   xmlns:svg="http://www.w3.org/2000/svg"><defs
     id="defs8358" /><sodipodi:namedview
     id="namedview8356"
     pagecolor="#ffffff"
     bordercolor="#000000"
     borderopacity="0.25"
     inkscape:showpageshadow="2"
     inkscape:pageopacity="0.0"
     inkscape:pagecheckerboard="0"
     inkscape:deskcolor="#d1d1d1"
     showgrid="false"
     inkscape:zoom="0.68921866"
     inkscape:cx="-53.683979"
     inkscape:cy="195.14852"
     inkscape:window-width="3374"
     inkscape:window-height="1371"
     inkscape:window-x="1986"
     inkscape:window-y="32"
     inkscape:window-maximized="1"
     inkscape:current-layer="g8360" /><g
     inkscape:groupmode="layer"
     inkscape:label="Image"
     id="g8360"><path
       style="display:inline;fill:#666666;fill-opacity:1"
       d="m 983.96401,646.11604 c -2.64941,-2.53192 -4.0216,-2.96671 -11.2409,-3.56179 -6.41653,-0.5289 -9.04882,-0.33098 -11.98153,0.90091 -2.13895,0.89846 -4.83202,1.30926 -6.25,0.95337 -2.21088,-0.55489 -2.48985,-1.14827 -2.47627,-5.26694 0.008,-2.55287 0.36721,-5.19555 0.79729,-5.87262 C 953.9613,631.46064 963.28562,625 964.7468,625 c 1.76052,0 1.55467,-4.91061 -0.35632,-8.5 -2.12805,-3.9971 -4.43521,-10.41179 -4.85551,-13.5 -0.69639,-5.11688 -13.57951,-34.04515 -22.26735,-50 C 929.51825,538.7686 921,519.97864 921,517.11612 c 0,-0.49348 -2.67634,-4.97308 -5.94742,-9.95466 -8.32093,-12.67208 -8.56428,-13.20869 -16.62566,-36.66146 -17.20865,-50.06465 -22.62574,-64.67505 -24.96433,-67.33116 -0.16036,-0.18213 -2.79943,1.71153 -5.86459,4.20814 -3.06516,2.49661 -6.47925,5.02428 -7.58686,5.61706 -1.10761,0.59277 -3.10933,3.23962 -4.44827,5.88189 -2.49957,4.93266 -7.49039,9.99674 -12.32637,12.5073 -1.50507,0.78135 -5.70816,4.50282 -9.34019,8.26993 -6.21537,6.44651 -6.64751,7.19995 -7.34874,12.8124 -0.40977,3.27971 -1.65451,8.90416 -2.76609,12.49877 -2.15583,6.97151 -2.14832,4.38277 -0.13314,45.88257 0.77372,15.93357 -1.07552,48.3433 -4.19132,73.45706 C 818.10566,595.19614 817,604.67263 817,605.36283 c 0,3.09786 2.92534,5.00433 9.60618,6.26044 9.48152,1.78269 17.39382,4.53268 17.39382,6.04539 0,2.38042 -4.13548,3.60209 -10.08754,2.97998 -3.79655,-0.39682 -7.39431,-0.10299 -10.58231,0.86425 -7.1277,2.16254 -42.93376,2.10285 -48.11227,-0.0802 -2.98068,-1.25655 -5.75095,-1.4311 -13.97121,-0.88033 -7.56012,0.50655 -10.64646,0.36073 -11.75,-0.55513 -2.28151,-1.89347 -1.88859,-2.57393 3.25333,-5.63418 4.92017,-2.92828 10.85094,-4.94619 17.75,-6.03932 2.2,-0.34859 4.9,-1.19486 6,-1.8806 1.1,-0.68574 3.46624,-1.55256 5.25832,-1.92625 1.79207,-0.37369 3.81707,-1.65537 4.5,-2.84816 1.65853,-2.89678 2.29638,-50.87968 0.8249,-62.05374 -2.2772,-17.29242 -3.12836,-28.65302 -3.1741,-42.36498 -0.0261,-7.8375 -0.22093,-14.25 -0.43287,-14.25 -0.21194,0 -1.54334,1.158 -2.95867,2.57333 -1.98497,1.98497 -3.20419,2.43478 -5.33252,1.96732 -2.28646,-0.50219 -3.29503,-7.7e-4 -5.88679,2.92666 -2.45771,2.77604 -3.87789,3.53269 -6.63058,3.53269 -3.05415,0 -3.73775,0.47981 -5.33533,3.74483 -1.24858,2.55173 -2.78815,4.01973 -4.83236,4.60768 -1.65,0.47457 -4.8,1.70633 -7,2.73724 -2.2,1.03091 -5.66014,2.52306 -7.68921,3.31589 -2.36153,0.92273 -4.61531,2.90854 -6.26254,5.51793 -2.21583,3.51009 -3.06274,4.07643 -6.09598,4.07643 -4.46747,0 -8.01532,2.3078 -9.32543,6.06598 -0.77413,2.22069 -1.64869,2.93402 -3.59716,2.93402 -1.61351,0 -4.19403,1.49296 -6.91385,4 -2.38672,2.2 -5.11085,4 -6.05362,4 -0.94277,0 -4.26744,1.96292 -7.38817,4.36204 -20.70215,15.91522 -37.80933,23.02092 -55.17404,22.91729 -21.86632,-0.1305 -39.97853,-8.76562 -72.00026,-34.32662 -22.10458,-17.64474 -30.48439,-23.94592 -30.76436,-23.13318 -0.14554,0.42249 1.54196,4.93345 3.75,10.02434 2.20804,5.09089 4.01462,9.98372 4.01462,10.87296 0,2.85488 9.97961,20.44318 18.12106,31.937 C 569.63217,571.08128 571,574.13797 571,581.965 c 0,5.48143 -0.31675,6.37985 -3.48621,9.88805 -4.45908,4.93568 -13.59808,9.41835 -25.84964,12.67923 -5.32414,1.41708 -11.36413,3.27797 -13.4222,4.13533 -4.62083,1.92494 -26.47578,13.75032 -31.24195,16.90453 -3.24743,2.14912 -4.79893,2.35186 -21.5,2.80947 -21.99487,0.60266 -26.10162,0.15604 -28.21437,-3.06844 -1.27357,-1.94371 -1.348,-2.88087 -0.39493,-4.97262 0.98419,-2.16008 1.64565,-2.48328 4.08413,-1.99558 2.01986,0.40397 4.83879,-0.29234 9.21745,-2.27681 3.46925,-1.57232 8.18577,-3.36394 10.48117,-3.98139 4.75155,-1.27814 8.85088,-5.43018 19.97957,-20.23645 11.79243,-15.68937 14.1906,-19.62467 14.91891,-24.4814 1.26934,-8.46455 -0.0429,-16.58248 -4.0451,-25.02487 -10.51863,-22.18826 -16.53746,-33.13765 -25.34478,-46.10694 -8.79091,-12.94514 -33.32954,-45.42295 -33.89335,-44.85914 -0.1283,0.12829 -1.17595,5.11815 -2.32813,11.08857 -3.68923,19.11716 -6.79127,27.43881 -22.76264,61.06396 -4.97154,10.46677 -10.82783,24.19177 -13.01398,30.5 -5.00717,14.4484 -7.82914,21.78362 -9.60615,24.9695 -2.97876,5.34043 -4.5778,17.56524 -4.5778,34.99768 0,14.98464 -0.24033,17.55309 -1.9574,20.91882 -1.07657,2.11026 -2.76407,4.17181 -3.75,4.58123 -0.98593,0.40941 -8.5426,0.95288 -16.7926,1.2077 -13.65691,0.42183 -15.582,0.26218 -21.5,-1.78299 -5.93706,-2.05175 -9.03531,-2.30412 -35.7739,-2.91398 -27.5797,-0.62904 -29.43785,-0.78889 -32.10678,-2.76212 -2.20651,-1.63135 -3.74687,-1.97185 -6.96654,-1.54001 -2.55747,0.34303 -4.69254,0.0906 -5.59941,-0.66203 -0.80617,-0.66907 -1.92226,-0.93435 -2.4802,-0.58952 -0.55794,0.34482 -2.3206,-0.0485 -3.91702,-0.87403 -1.59642,-0.82554 -3.14609,-1.25747 -3.44372,-0.95985 -0.89427,0.89427 -4.60422,-1.52612 -6.29536,-4.10712 -2.78522,-4.25079 0.4163,-8.74369 4.62536,-6.49107 1.43651,0.7688 5.24556,0.0423 15.67756,-2.99018 7.579,-2.20314 16.11954,-4.90118 18.97897,-5.99565 10.9566,-4.19373 40.86445,-18.22924 44.09545,-20.69364 6.88176,-5.24898 14.08835,-16.76113 19.30782,-30.84324 1.22313,-3.3 3.0223,-7.8 3.99816,-10 4.89809,-11.04234 9.21322,-31.56135 13.88043,-66.00325 1.63991,-12.10179 4.98086,-34.15179 7.42433,-49 2.44347,-14.84821 4.74935,-30.14675 5.12418,-33.99675 2.11787,-21.75334 11.06443,-45.84213 19.51003,-52.53118 11.15463,-8.83462 24.80193,-11.75582 39.60206,-8.4768 8.78822,1.94706 54.21737,18.41658 74.59672,27.04369 26.95515,11.41082 54.98077,27.27074 81.26186,45.98672 21.35977,15.21128 19.62343,14.45439 24.11401,10.51162 3.1954,-2.80561 4.24404,-3.1823 7.60424,-2.7316 3.43412,0.46061 4.00679,0.23584 4.81497,-1.88983 0.64706,-1.70189 1.68822,-2.41262 3.5343,-2.41262 1.43936,0 3.69658,-0.84918 5.01605,-1.88708 1.31947,-1.03789 3.97326,-2.1824 5.89731,-2.54335 1.92405,-0.36096 6.19192,-2.51505 9.48416,-4.78688 6.06582,-4.18576 10.07732,-5.12121 14.78496,-3.44774 1.69337,0.60196 2.25,0.4261 2.25,-0.71086 0,-0.83087 0.7875,-2.10555 1.75,-2.8326 0.9625,-0.72706 2.24539,-2.21508 2.85086,-3.30671 0.60548,-1.09163 2.28775,-2.12667 3.73838,-2.30008 1.45063,-0.17342 3.96354,-1.64132 5.58423,-3.26202 1.6207,-1.6207 4.33476,-3.22433 6.03125,-3.56362 1.89497,-0.379 3.71245,-1.67991 4.71275,-3.37328 0.89552,-1.516 3.19964,-3.50572 5.12026,-4.4216 l 3.49204,-1.66524 -0.5821,-6.23356 c -0.68921,-7.38059 0.41531,-12.97974 4.00771,-20.31638 4.20255,-8.58272 10.95188,-14.08922 27.84169,-22.71484 11.5764,-5.91207 15.4075,-8.37009 16.96599,-10.88531 1.50781,-2.43342 5.16893,-4.88029 14.58672,-9.74885 6.9155,-3.575 15.56143,-8.45839 19.21317,-10.85197 3.65173,-2.39359 9.1936,-5.39003 12.31524,-6.65877 6.36978,-2.58887 7.10908,-3.74336 10.25092,-16.00773 C 814.77495,265.08102 814.35755,262 811.45916,262 c -2.91014,0 -17.0237,-5.32853 -19.10768,-7.21405 -2.66287,-2.40927 -3.40976,-5.991 -2.17889,-10.44886 0.76913,-2.78554 0.56858,-4.01983 -1.08893,-6.70172 -1.45204,-2.34945 -1.72423,-3.5948 -0.95405,-4.36498 0.73809,-0.73809 0.75944,-1.64624 0.0678,-2.8822 -0.55543,-0.99251 -0.76624,-4.16517 -0.46847,-7.05036 0.53499,-5.1835 0.49817,-5.27131 -3.10047,-7.39456 -5.43809,-3.20855 -5.63506,-5.93576 -0.88161,-12.20618 9.43749,-12.44927 10.7987,-15.99701 8.07759,-21.05283 -0.64657,-1.20134 -1.08293,-3.79403 -0.96968,-5.76152 0.11325,-1.96749 -0.47996,-4.89249 -1.31824,-6.5 -2.18204,-4.18431 -1.8988,-8.30296 0.9664,-14.05269 5.75862,-11.55604 19.95145,-21.71674 33.99712,-24.33867 11.77547,-2.19815 26.4172,-2.22753 37.51978,-0.0753 9.01581,1.74771 11.23478,2.61541 17.93125,7.01177 4.2032,2.75948 9.01214,6.48309 10.68653,8.27469 3.35341,3.58817 11.4543,15.66231 13.44949,20.0461 0.72045,1.58295 1.82687,2.57464 2.55904,2.29367 0.70943,-0.27223 1.55583,-0.0646 1.8809,0.46136 0.32508,0.52598 1.46449,0.95633 2.53203,0.95633 1.06754,0 1.94098,0.39992 1.94098,0.88871 0,0.48879 1.6875,1.20462 3.75,1.59073 2.0625,0.38611 6,1.77347 8.75,3.08302 4.72531,2.2502 5.19098,2.83148 8.47635,10.58069 1.912,4.50982 5.39898,11.57345 7.74886,15.69695 2.34988,4.1235 5.45336,10.44895 6.89663,14.05654 1.44327,3.6076 3.64065,7.91919 4.88309,9.58132 4.24667,5.68119 5.66356,9.69969 6.13105,17.38854 l 0.46413,7.6335 -2.07036,-3.9703 c -3.83415,-7.35271 -4.26411,-6.78731 -3.50959,4.61508 0.81126,12.25971 -0.1974,16.77714 -4.41688,19.78168 -1.56072,1.11133 -3.26667,3.67552 -3.9396,5.92158 -0.65279,2.17881 -3.20667,6.20795 -5.67529,8.95364 -2.46861,2.7457 -4.54059,6.05106 -4.60439,7.34525 -0.0836,1.69469 -0.24396,1.86343 -0.57333,0.60307 -0.8166,-3.12483 -2.30987,-1.84912 -2.34108,2 -0.0258,3.18634 -0.19371,3.46893 -1.11683,1.88002 -0.87639,-1.50845 -1.25275,-1.60512 -1.94676,-0.5 -1.03697,1.65123 -0.22873,4.73306 1.86727,7.11998 1.77552,2.02197 1.0269,2.23859 -2.08901,0.60449 -2.06989,-1.08553 -2.10059,-1.04626 -0.58636,0.75 4.06022,4.81646 2.92968,4.83232 -5.87727,0.0824 -1.80365,-0.97277 -3.71615,-1.49873 -4.25,-1.16879 -0.8481,0.52415 -1.59266,-9.21302 -1.02223,-13.3685 0.10195,-0.7427 -0.28796,-1.05783 -0.86646,-0.70029 -0.69367,0.42871 -0.84413,-0.3884 -0.44188,-2.39965 C 917.11979,286.65103 916.90311,286 915.625,286 914.63542,286 914,285.17007 914,283.87756 c 0,-1.78742 -0.24039,-1.92294 -1.52289,-0.85856 -1.27031,1.05426 -1.42044,0.9969 -0.90518,-0.34584 0.33974,-0.88535 -0.12778,-3.56177 -1.03893,-5.94758 -1.58332,-4.14586 -1.56538,-4.56938 0.40518,-9.56874 1.134,-2.87698 2.06182,-6.74838 2.06182,-8.60311 v -3.37223 l -3.95169,1.90925 c -4.82753,2.3324 -6.37839,2.33904 -3.19072,0.29644 0.93327,-0.59802 1.7472,0.11717 5.0092,-2.79218 2.13555,-1.90735 3.00188,-4.25011 1.14796,-3.10432 -0.60695,0.37512 -0.76024,-0.51479 -0.39944,-2.31881 0.32203,-1.61015 0.0708,-3.8892 -0.55818,-5.06455 -0.9248,-1.728 -0.84835,-2.25034 0.39944,-2.72916 1.15166,-0.44193 1.54312,-2.10205 1.54312,-6.54418 0,-3.77259 -0.37171,-5.72229 -1.01515,-5.32463 -1.85777,1.14817 -2.06142,8.33507 -3.57472,10.74064 -3.9471,6.27438 -1.5118,1.19871 -1.41014,-3.38605 0,-1.09625 0.96131,-4.2278 2.13624,-6.959 2.82051,-6.55647 1.86548,-7.31375 -1.1376,-0.90204 -1.28728,2.7484 -2.71359,4.99709 -3.16958,4.99709 -1.24412,0 -1.07583,-0.56273 2.0272,-6.77852 2.66874,-5.34584 4.65084,-11.12385 7.10837,-20.72148 1.34816,-5.26513 1.31546,-15.39809 -0.0625,-19.35078 C 913.01797,184.61278 912.25113,184 909.96119,184 c -1.56373,0 -3.05643,0.34509 -3.3171,0.76686 -0.26068,0.42178 0.0181,4.18272 0.61961,8.35764 l 1.09356,7.59078 -3.64019,7.39236 c -9.11288,18.50604 -12.78122,23.86077 -20.42698,29.81753 -3.8793,3.02234 -4.38587,3.84591 -3.89015,6.32454 0.31347,1.56734 0.17712,2.60693 -0.303,2.3102 -1.28982,-0.79715 -2.2648,4.70376 -2.77543,15.65914 -0.66081,14.17747 1.11884,20.24291 8.2523,28.12564 7.17099,7.9242 10.88284,13.5825 13.48084,20.55003 1.14953,3.0829 2.90963,6.50528 3.91133,7.60528 1.0017,1.1 4.78457,6.54657 8.40638,12.10349 7.4239,11.39045 12.46012,24.72834 15.06443,39.89651 3.66462,21.34365 5.52857,33.66687 6.57961,43.5 1.15282,10.78527 7.0977,36.07226 11.40218,48.5 1.33349,3.85 3.16876,9.43829 4.07837,12.41842 0.90962,2.98013 3.91632,9.92692 6.68156,15.4373 7.68483,15.31382 15.61033,44.34471 28.42388,80.95234 8.40767,24.02025 6.87294,35.6167 18.73931,47.47009 4.8977,4.64091 16.7473,11.36233 20.131,11.41885 1.665,0.0278 7.9773,2.18969 14.0273,4.80415 6.05,2.61447 11.8069,5.02709 12.7931,5.36138 1.4561,0.49356 1.5905,0.98649 0.7148,2.62263 -0.9086,1.69787 -2.086,2.01484 -7.4841,2.01484 -3.6694,0 -6.703,0.48096 -7.1016,1.12593 -0.4544,0.73521 -2.904,0.94868 -7.059,0.61515 -3.4998,-0.28093 -6.3632,-0.11259 -6.3632,0.37407 0,1.56975 -8.641,0.94152 -15.1609,-1.10225 -8.7552,-2.74447 -11.65225,-2.63456 -12.8391,0.4871 -1.3624,3.58337 -6.07315,3.40315 -10.03599,-0.38396 z m -45.19206,-365.2182 -0.37681,-3.39784 -1.69757,3.71788 C 935.76391,283.26272 935,285.72522 935,286.6901 c 0,1.5696 0.21844,1.5359 2.07438,-0.32004 1.49955,-1.49954 1.96997,-3.01598 1.69757,-5.47222 z m 13.21274,-18.31451 c 0.0202,-5.17232 -0.58874,-4.29043 -1.244,1.80153 -0.32122,2.98646 -0.18457,4.34666 0.35163,3.5 0.48238,-0.76167 0.88395,-3.14736 0.89237,-5.30153 z m 2.13738,-24.25833 c -0.87155,-1.49877 -1.06669,-1.54197 -1.09166,-0.24167 -0.0323,1.68408 1.01919,3.2004 1.72792,2.49167 0.23375,-0.23375 -0.0526,-1.24625 -0.63626,-2.25 z m -9.58874,-25.85833 c -1.49031,-2.54303 -2.93465,-4.39868 -3.20965,-4.12368 -0.275,0.275 0.71934,2.58065 2.20965,5.12368 1.49031,2.54302 2.93466,4.39867 3.20966,4.12367 0.275,-0.275 -0.71935,-2.58065 -2.20966,-5.12367 z"
       id="path8844"
       sodipodi:nodetypes="sssscssssssssssssssssssssssssssssssssssssssssssssssssssssssssssssssssssssssssssssssssssssssssssssssssssssssssssssssssssssscssssssssssssssssssssssssssssssssssssscssssssssssssssssssssssssscsscssssssscssssscssscssssssssssssssscsssssssssssscsssssssssssssssss" /></g></svg>
