<?xml version="1.0" encoding="UTF-8" standalone="no"?>
<!-- Created with Inkscape (http://www.inkscape.org/) -->

<svg
   version="1.1"
   id="svg16182"
   width="450"
   height="450"
   viewBox="0 0 450.00001 449.99999"
   sodipodi:docname="flux-grass-line-art-black-square.svg"
   inkscape:version="1.2.2 (b0a8486541, 2022-12-01)"
   inkscape:export-filename="flux-grass-line-art-black-square.png"
   inkscape:export-xdpi="96"
   inkscape:export-ydpi="96"
   xmlns:inkscape="http://www.inkscape.org/namespaces/inkscape"
   xmlns:sodipodi="http://sodipodi.sourceforge.net/DTD/sodipodi-0.dtd"
   xmlns="http://www.w3.org/2000/svg"
   xmlns:svg="http://www.w3.org/2000/svg">
  <defs
     id="defs16186" />
  <sodipodi:namedview
     id="namedview16184"
     pagecolor="#ffffff"
     bordercolor="#000000"
     borderopacity="0.25"
     inkscape:showpageshadow="2"
     inkscape:pageopacity="0.0"
     inkscape:pagecheckerboard="0"
     inkscape:deskcolor="#d1d1d1"
     showgrid="false"
     inkscape:zoom="1.1363296"
     inkscape:cx="465.53394"
     inkscape:cy="183.48549"
     inkscape:window-width="3374"
     inkscape:window-height="1371"
     inkscape:window-x="1986"
     inkscape:window-y="32"
     inkscape:window-maximized="1"
     inkscape:current-layer="g16188" />
  <g
     inkscape:groupmode="layer"
     inkscape:label="Image"
     id="g16188"
     transform="translate(-382.22784,-289.18755)">
    <rect
       style="fill:#eeeeee"
       id="rect1807"
       width="460.45016"
       height="463.16553"
       x="377.00943"
       y="282.60443" />
    <path
       id="path16246"
       style="fill:#262626;fill-opacity:1"
       sodipodi:type="inkscape:offset"
       inkscape:radius="0.53558594"
       inkscape:original="M 621.92383 367.875 C 620.3832 367.89086 618.50662 368.01252 616.66797 368.23633 C 607.0058 369.41242 600.22293 369.5352 598.33984 368.57031 C 597.35241 368.06435 594.74339 368.30836 591.80273 369.18164 C 589.11168 369.98079 582.54478 370.84758 577.20898 371.10742 C 569.96845 371.46001 566.29877 372.1501 562.74414 373.82422 C 560.1246 375.05794 557.44941 376.09907 556.79883 376.13867 C 556.14825 376.17825 554.57325 377.14179 553.29883 378.2793 C 552.02441 379.4168 548.95742 381.59944 546.48242 383.13086 C 544.00742 384.66228 540.6653 387.95615 539.05664 390.44922 C 536.45689 394.47828 536.1185 395.91167 536.00977 403.34961 L 535.88867 411.7168 L 530.32812 417.45117 C 519.01099 429.12338 505.07281 447.70061 498.64062 459.68555 C 489.66794 476.40412 485.90241 489.76985 484.48633 509.91406 C 482.20306 542.39417 481.38915 544.60102 465.73242 560.77344 C 460.09492 566.59663 455.48242 571.71021 455.48242 572.13867 C 455.48242 572.56713 456.38242 572.68219 457.48242 572.39453 C 460.09148 571.71225 460.00505 572.27387 456.94531 575.91016 C 455.55034 577.56799 453.73907 580.22062 452.91992 581.80469 C 451.61449 584.32915 451.6124 584.68555 452.90039 584.68555 C 454.10243 584.68555 453.98569 585.54994 452.25586 589.43555 C 450.05009 594.39021 446.31981 610.61446 447.09766 611.87305 C 447.34396 612.27157 448.09897 612.38577 448.77344 612.12695 C 449.66043 611.78658 449.90031 612.90473 449.64062 616.16992 C 449.44316 618.65277 449.08467 620.68555 448.8457 620.68555 C 447.13656 620.68555 442.67959 616.29724 436.37305 608.41016 C 431.66529 602.52256 428.89492 599.77838 428.69727 600.80469 C 428.42737 602.20619 439.78679 629.36083 441.19727 630.68555 C 442.40374 631.81867 439.99446 625.53854 435.31055 615.34375 C 432.57115 609.3813 430.52659 604.30741 430.76562 604.06836 C 431.00467 603.82932 433.08908 606.08281 435.39844 609.07617 C 440.46428 615.64244 448.10168 622.92137 452.07422 624.96875 C 453.67318 625.79283 457.36609 627.17437 460.2793 628.03711 C 465.14646 629.47853 465.62736 629.47307 466.20312 627.97266 C 466.54775 627.07459 466.04307 624.12579 465.08203 621.41992 C 464.12098 618.71404 463.53678 616.29721 463.78516 616.04883 C 464.03354 615.80045 467.73225 618.1032 472.00391 621.16797 C 482.75344 628.88041 496.81732 635.71405 502.48242 635.97656 C 506.7133 636.17261 507.00204 636.02021 507.30078 633.42188 C 507.49242 631.75497 506.4388 628.48104 504.64648 625.17188 C 503.01212 622.15436 501.8547 619.68555 502.07422 619.68555 C 502.29374 619.68555 506.63648 622.84962 511.72656 626.7168 C 516.81664 630.58397 523.21433 634.86156 525.94141 636.22266 C 530.32188 638.40898 531.07167 638.52403 532.38086 637.21484 C 533.69005 635.90565 533.65369 635.06861 532.06641 630.0332 C 531.07825 626.89838 528.55366 620.13318 526.45703 615 C 524.36041 609.86681 523.0468 605.91572 523.53711 606.21875 C 524.02742 606.52177 529.58018 613.86544 535.87695 622.53906 C 542.17372 631.21268 548.03099 638.89432 548.89258 639.60938 C 551.29905 641.60658 552.00252 638.50118 550.7793 631.2832 C 550.21091 627.92922 549.8492 625.06028 549.97461 624.9082 C 550.10002 624.75612 552.03264 627.05679 554.26953 630.01953 C 558.87051 636.11348 568.54846 643.82313 575.98242 647.31641 C 581.93749 650.11475 583.24464 650.21002 585.6543 648.0293 C 588.01903 645.88925 587.96771 642.01639 585.48242 634.94531 C 584.38242 631.81561 583.48242 629.0208 583.48242 628.73438 C 583.48242 628.44795 586.26333 631.29474 589.66211 635.06055 C 598.07082 644.37731 616.93522 659.68555 620.00781 659.68555 C 622.93841 659.68555 623.66335 657.32277 625.98828 640.20117 C 626.88327 633.61019 627.74878 628.08324 627.91211 627.91992 C 628.07543 627.7566 628.7533 630.45 629.41797 633.9043 C 632.20954 648.41219 633.6978 653.77997 634.82422 653.40625 C 635.46106 653.19496 637.20264 649.90868 638.69336 646.10352 L 641.40234 639.18555 L 641.44336 644.93555 C 641.46514 648.09805 641.90963 650.68555 642.43164 650.68555 C 643.48529 650.68555 644.71656 649.07722 655.83594 633.18555 C 660.06912 627.13555 665.12402 620.38555 667.06836 618.18555 L 670.60352 614.18555 L 665.53906 624.42188 C 659.36107 636.91293 655.2648 648.79544 655.67578 653.0293 C 655.98303 656.19449 656.12798 656.25129 660.65625 654.9668 C 661.7814 654.64764 662.85544 655.50673 663.93164 657.58789 C 666.07118 661.72531 667.95164 661.49112 671.24219 656.67383 C 673.50282 653.36432 674.42017 652.75174 676.48242 653.17969 C 685.66544 655.08529 685.36762 655.11901 686.53125 652.0625 C 687.37087 649.85709 687.2336 647.01197 685.94922 639.87305 C 685.02769 634.75095 684.50163 630.33237 684.7793 630.05469 C 685.29486 629.53914 692.34409 639.17588 696.39648 645.93555 C 697.63293 647.99805 698.98549 649.68555 699.40234 649.68555 C 700.37956 649.68555 702.05453 645.98412 703.49023 640.65234 C 704.11463 638.33347 705.13137 635.25466 705.74805 633.81055 C 706.835 631.26522 706.88608 631.32322 707.42578 635.68555 L 707.98242 640.18555 L 710.41602 635.93555 C 711.7548 633.59805 713.2173 631.68555 713.66602 631.68555 C 714.11474 631.68555 714.48242 633.71055 714.48242 636.18555 C 714.48242 639.06779 714.92309 640.68555 715.70703 640.68555 C 716.3802 640.68555 720.61822 638.20509 725.12695 635.17383 C 732.34238 630.32284 733.52634 629.09466 735.00195 624.92383 C 738.37464 615.39089 737.85947 615.78763 740.9043 620.38867 C 745.42868 627.22548 744.8698 627.34405 760.23242 616.2793 L 765.48242 612.49805 L 765.48242 618.0918 C 765.48242 621.1684 765.91252 623.68555 766.43945 623.68555 C 767.91358 623.68555 771.77192 616.49641 778.24609 601.68555 C 784.24656 587.95839 787.96735 580.55932 787.04688 584.18555 C 781.85336 604.64552 779.55623 616.89005 781.23047 615.18555 C 783.03753 613.34583 793.48242 597.93421 793.48242 597.10742 C 793.48242 596.65868 790.93278 599.97958 787.81641 604.48828 C 784.70004 608.99698 782.01198 612.54909 781.84375 612.38086 C 781.67552 612.21263 783.04692 605.77146 784.89062 598.06836 C 789.04387 580.71574 790.05664 574.8276 788.65625 576.18555 C 788.08907 576.73555 784.27325 584.83555 780.17578 594.18555 C 770.66999 615.8768 768.30589 620.68555 767.14453 620.68555 C 766.60421 620.68555 766.45455 618.55952 766.79492 615.68555 C 767.43363 610.29269 766.53768 609.41887 763.33594 612.31641 C 761.64697 613.84491 761.46687 613.77433 760.48633 611.19531 C 759.75588 609.27438 759.75703 608.05924 760.49023 607.17578 C 761.24214 606.26979 760.97467 604.47467 759.55273 600.86719 C 758.1411 597.28585 757.906 595.71102 758.73828 595.43359 C 759.52381 595.17175 758.84248 592.65674 756.67383 587.80664 C 752.52286 578.52318 748.12125 561.52628 749.62695 560.5957 C 750.37751 560.13183 749.88498 556.46089 748.03516 548.72461 C 746.5623 542.56484 745.11065 536.8809 744.80859 536.09375 C 744.42542 535.09522 744.74686 534.84984 745.87109 535.28125 C 748.02464 536.10764 747.90448 534.21126 745.46094 528.82617 C 744.37302 526.4286 743.48242 524.00185 743.48242 523.43359 C 743.48242 520.73025 735.89396 503.62775 732.74414 499.23242 C 730.62196 496.2711 729.65405 494.12834 730.33789 493.90039 C 732.19661 493.28082 731.65557 491.19684 728.98242 488.68555 C 727.60742 487.3938 726.48242 485.79373 726.48242 485.13086 C 726.48242 484.46798 724.50255 482.3041 722.08398 480.32227 C 718.37169 477.28033 717.34996 475.60498 715.51758 469.57227 C 712.70738 460.32029 707.84037 449.92003 697.16211 430.33594 C 692.0751 421.00628 689.17616 414.73805 690.11328 415.09766 C 693.95744 416.5728 688.16772 408.57858 682.32227 404.33984 C 676.84826 400.37044 676.45285 401.13813 681.81836 405.31836 C 684.38362 407.31694 686.48242 409.40569 686.48242 409.95898 C 686.48242 410.51227 687.26992 411.60952 688.23242 412.39844 C 689.19492 413.18738 689.45027 413.56694 688.80078 413.24219 C 685.74992 411.71671 687.14837 415.55744 694.65039 429.30273 C 713.30088 463.47434 715.20668 468.94972 716.52539 492.18555 C 718.11237 520.14851 719.46206 535.7275 721.0332 544.18555 C 723.83124 559.2485 723.94116 561.52168 721.96875 563.70117 C 718.59344 567.43084 713.03 565.48 707.02148 558.46094 C 699.31471 549.45802 693.39319 531.76375 691.36719 511.68555 C 690.08471 498.97588 688.14434 492.91695 681.65234 481.36523 C 678.9263 476.51458 674.57219 466.50647 671.97852 459.125 C 669.38485 451.74354 665.67718 443.11321 663.73828 439.94531 C 661.79939 436.77742 659.48619 432.95044 658.59766 431.44141 C 657.70912 429.93239 656.61363 428.69441 656.16406 428.69141 C 654.22001 428.67638 658.43497 436.63809 662.54883 440.75195 C 663.42582 441.62894 665.86082 447.26018 667.95898 453.26562 C 670.05714 459.27108 672.88424 467.04973 674.24219 470.55078 C 676.48789 476.34058 676.61128 477.4217 675.5918 482.49805 C 673.98071 490.52026 670.80244 496.46083 665.02344 502.25781 C 658.31358 508.98854 653.27175 510.68075 637.98242 511.32812 C 628.02884 511.74958 624.96686 512.27405 620.03125 514.40625 C 612.42563 517.6919 603.74866 517.84395 593.98242 514.86328 C 588.53072 513.19941 584.825 512.7788 577.23242 512.95703 C 570.59424 513.11285 567.48317 513.55791 567.48242 514.35352 C 567.48182 514.99616 565.88571 516.50836 563.93359 517.71484 C 558.64631 520.98255 549.42968 520.72258 542.51953 517.10938 C 539.65092 515.60942 537.06973 513.77479 536.78516 513.0332 C 536.50058 512.2916 535.67664 511.68555 534.95312 511.68555 C 534.22963 511.68555 533.12546 510.13538 532.5 508.24023 C 531.72546 505.89334 530.90291 504.96924 529.92188 505.3457 C 528.81953 505.76871 528.48242 504.98232 528.48242 501.99219 C 528.48242 499.84334 527.92309 497.52661 527.24023 496.84375 C 525.90871 495.51223 523.59509 481.89542 523.52539 474.98438 C 523.45329 467.83632 525.4518 461.08774 529.5918 454.50391 C 531.77705 451.02871 534.95823 445.26055 536.66016 441.68555 C 540.13677 434.3827 540.5179 428.03815 538.36914 413.33398 C 536.82795 402.78746 537.67327 393.75759 540.4082 391.54297 C 541.54883 390.61934 542.48242 389.42664 542.48242 388.89258 C 542.48242 387.89678 548.81228 382.68555 550.02148 382.68555 C 550.39128 382.68555 552.02996 381.56055 553.66406 380.18555 C 555.29815 378.81055 557.35348 377.68555 558.23047 377.68555 C 559.10747 377.68555 560.56612 377.01377 561.47266 376.19336 C 563.53608 374.32599 571.96419 372.68555 579.49219 372.68555 C 582.64797 372.68555 587.0841 372.03173 589.34961 371.23242 C 591.61515 370.43309 594.9335 370.02497 596.72461 370.32617 C 602.93294 371.37018 604.64613 371.33555 613.7207 369.99219 C 619.92493 369.07374 623.16673 368.96946 623.86133 369.66406 C 624.42285 370.22558 627.04164 370.68555 629.68164 370.68555 C 632.32164 370.68555 634.48623 371.02305 634.49023 371.43555 C 634.50037 372.40981 639.41031 374.68555 641.50195 374.68555 C 642.39311 374.68555 644.09937 375.81055 645.29492 377.18555 C 647.25265 379.43714 648.21388 379.68555 654.97461 379.68555 C 662.479 379.68555 663.80184 380.34564 660.98242 382.68555 C 658.72356 384.56023 659.06726 385.08224 664.23242 387.625 C 666.84492 388.91111 668.41992 390.16388 667.73242 390.4082 C 665.51597 391.19587 666.37865 392.40907 671.47852 395.68164 C 674.22639 397.44495 676.22525 399.29308 675.91992 399.78711 C 675.61459 400.28114 676.06637 400.68555 676.92383 400.68555 C 679.56593 400.68555 678.67224 399.20503 674.07812 395.9668 C 671.41995 394.09314 669.73532 392.1538 669.82812 391.07422 C 669.92706 389.92255 668.44804 388.42892 665.67383 386.87891 C 661.5965 384.60081 661.4541 384.37257 663.02148 382.64062 C 665.65729 379.72809 663.88562 378.68555 656.30469 378.68555 C 649.88735 378.68555 648.93632 378.41286 645.83008 375.68555 C 643.95083 374.03555 641.46437 372.68555 640.30664 372.68555 C 639.14891 372.68555 637.64089 371.91837 636.95508 370.98047 C 636.16127 369.89487 634.12346 369.20151 631.3457 369.07422 C 628.94587 368.96424 626.16566 368.54791 625.16797 368.14844 C 624.66912 367.94869 623.46445 367.85914 621.92383 367.875 z M 655.00391 407.87305 C 654.71737 407.58652 654.48242 410.65222 654.48242 414.68555 C 654.48242 418.71888 654.7553 421.74473 655.08984 421.41016 C 655.82174 420.6783 655.74528 408.61443 655.00391 407.87305 z M 630.77344 410.68555 C 627.08599 410.68555 625.78988 411.21538 623.50977 413.65625 C 620.37541 417.01159 618.41846 423.49235 618.61328 429.87695 C 618.72148 433.42313 618.8813 433.01616 619.51758 427.57031 C 620.775 416.80833 624.55631 411.68555 631.24023 411.68555 C 633.0622 411.68555 635.77443 412.40819 637.26758 413.29297 L 639.98242 414.90234 L 637.62109 412.79297 C 635.96302 411.31195 633.92553 410.68555 630.77344 410.68555 z M 677.67383 411.80078 C 676.00376 411.72241 674.52059 412.01968 673.48242 412.70312 C 672.31682 413.47046 672.52251 413.61449 674.40625 413.34961 C 675.73954 413.16213 678.21454 413.3395 679.90625 413.74414 C 684.80595 414.91612 686.23751 414.63891 682.98242 413.14844 C 681.20086 412.33267 679.34389 411.87915 677.67383 411.80078 z M 630.25 412.68555 C 627.4237 412.68555 622.72354 417.87385 622.00586 421.78516 C 621.66269 423.65541 621.76196 426.98476 622.22656 429.18359 C 622.93192 432.5219 623.55926 433.28519 626.02734 433.81445 C 628.76678 434.40191 628.79952 434.45906 626.48242 434.60156 C 625.10742 434.68612 622.85742 435.44556 621.48242 436.28906 C 619.79214 437.32596 619.6302 437.60359 620.98242 437.14648 C 622.08242 436.77464 625.59978 435.91485 628.79883 435.23438 C 632.26222 434.49768 635.49865 433.08695 636.79883 431.74805 L 638.98242 429.5 L 635.48242 431.58789 C 633.55742 432.73688 631.30742 433.66062 630.48242 433.64062 C 629.63693 433.62016 630.12149 432.9857 631.59375 432.18555 C 638.52888 428.41637 637.44488 412.68555 630.25 412.68555 z M 536.50977 414.20312 C 536.89013 414.4382 537.44052 418.80547 537.73242 423.9082 C 538.36523 434.97027 536.86826 439.96692 529.85938 450.20312 C 523.66969 459.24291 522.2974 463.53431 522.12695 474.37305 L 521.98242 483.5625 L 515.98242 490.80469 C 502.39554 507.20252 500.78904 511.24859 498.95312 533.68555 C 497.42072 552.41332 496.77357 555.15725 491.35547 565.93555 C 489.21277 570.19805 487.89238 573.68555 488.42188 573.68555 C 490.05386 573.68555 497.41394 557.55485 498.91602 550.68555 C 499.69776 547.11055 500.77751 538.11055 501.31445 530.68555 C 502.46267 514.80761 504.32622 508.98828 511.08789 500.18555 C 513.62273 496.88555 517.09085 492.26709 518.79297 489.92188 C 522.3981 484.95463 523.3253 485.64082 523.80078 493.62305 C 523.96739 496.42 524.50901 498.66995 525.00391 498.62305 C 526.25667 498.50436 527.32871 501.56495 527.41211 505.50195 C 527.47056 508.26027 527.79406 508.72055 529.33203 508.23242 C 530.76146 507.77873 531.38629 508.34844 532.08203 510.74023 C 532.5772 512.44249 533.28415 513.6887 533.65234 513.50977 C 534.02053 513.33084 535.43647 514.23392 536.80078 515.51562 L 539.28125 517.8457 L 535.54883 527.02148 C 530.91763 538.40351 528.5159 542.2134 520.02539 551.65625 C 516.3306 555.76545 511.49295 562.18392 509.27344 565.91992 C 504.96248 573.17634 500.94571 577.16439 495.76367 579.33594 C 491.47842 581.13168 485.44036 581.04515 482.73242 579.14844 C 481.52582 578.3033 480.03236 575.72725 479.41211 573.42383 C 478.16011 568.77423 478.48162 565.31408 481.94336 546.18555 C 484.55705 531.74312 485.07257 527.36768 486.51172 507.45117 C 488.41007 481.17971 497.11748 461.22798 518.92383 433.18555 C 527.58352 422.04941 535.4563 413.55205 536.50977 414.20312 z M 580.80859 459.68555 C 580.53562 459.68555 576.29822 462.46219 571.39062 465.85742 L 562.4668 472.03125 L 558.56445 469.10742 C 556.41843 467.49969 552.70952 464.61954 550.32227 462.70508 C 547.93503 460.79063 546.65742 460.11563 547.48242 461.20508 C 548.30742 462.29454 549.55484 463.54979 550.25391 463.99609 C 550.953 464.44239 551.27659 465.20867 550.97461 465.69727 C 550.67264 466.18587 551.45218 467.12724 552.70508 467.79102 C 553.95799 468.4548 556.59812 470.65432 558.57227 472.67773 C 561.86815 476.05584 562.21308 476.97751 562.80273 483.95312 L 563.44531 491.55078 L 559.21289 495.09766 C 554.0973 499.38695 555.65079 499.9227 560.96289 495.70117 L 564.7168 492.7168 L 567.53125 494.7207 C 569.07913 495.82288 571.83917 497.37338 573.66406 498.16602 C 577.08982 499.65401 579.48242 500.067 579.48242 499.17188 C 579.48242 498.88993 577.08744 497.60123 574.16016 496.30664 C 567.3018 493.27355 564.89261 490.13044 564.00977 483.06445 C 563.19599 476.55111 563.01976 476.81283 573.89062 468.48047 C 577.69039 465.568 580.91367 462.39805 581.05273 461.43555 C 581.19179 460.47305 581.08157 459.68555 580.80859 459.68555 z M 580.21484 462.08398 C 580.48292 462.35206 578.54688 464.06016 575.91406 465.87891 C 573.28123 467.69766 569.68654 470.42305 567.92383 471.93555 C 564.28207 475.0604 562.29853 475.37486 560.42969 473.12305 C 559.29847 471.76 559.45008 471.63968 561.61719 472.18359 C 563.58403 472.67723 565.73041 471.63774 571.91406 467.20117 C 576.21078 464.11841 579.94676 461.8159 580.21484 462.08398 z M 717.25195 478.35938 L 720.11719 480.61523 C 721.69312 481.85677 722.99005 483.44647 722.99805 484.14648 C 723.00629 484.8465 724.50709 486.67565 726.33398 488.21289 C 729.17705 490.60517 729.42273 491.1395 728.03516 491.91602 C 726.6255 492.7049 726.89151 493.4734 730.07812 497.81445 C 734.05033 503.22566 742.79725 522.36551 741.93555 523.75977 C 741.64437 524.23091 742.33286 526.43153 743.46484 528.65039 C 745.18622 532.02457 745.27351 532.68555 744.00195 532.68555 C 743.16578 532.68555 742.49191 532.79805 742.50391 532.93555 C 742.51595 533.07305 743.84181 538.34799 745.45117 544.6582 C 747.37731 552.21045 748.02319 556.35185 747.33789 556.77539 C 745.81914 557.71403 748.97348 572.29136 753.08594 583.33789 C 754.96018 588.3723 756.23393 593.1696 755.91602 593.99805 C 755.59812 594.82649 756.08068 596.94425 756.99023 598.70312 C 757.90699 600.47593 758.38855 602.91953 758.07031 604.1875 C 757.75457 605.4455 758.14117 608.29996 758.92773 610.5293 L 760.35742 614.58203 L 754.23242 619.13281 C 750.86359 621.63623 747.36834 623.68555 746.46484 623.68555 C 745.56133 623.68555 743.34035 621.6246 741.53125 619.10547 C 739.47418 616.24105 737.8897 614.87788 737.30078 615.4668 C 736.78285 615.98473 735.57749 619.0439 734.62109 622.26562 C 732.97653 627.80547 732.44991 628.43439 724.93164 633.85547 C 720.55934 637.00813 716.64492 639.60992 716.23242 639.63672 C 715.81992 639.66352 715.48242 637.21055 715.48242 634.18555 C 715.48242 631.06592 715.03556 628.68555 714.44922 628.68555 C 713.88068 628.68555 712.41818 630.37305 711.19922 632.43555 L 708.98242 636.18555 L 708.68945 633.18555 C 708.52831 631.53555 708.15943 629.51055 707.87109 628.68555 C 707.13224 626.57157 706.29593 628.24698 703.00586 638.41992 C 701.54119 642.94869 700.00082 646.86422 699.58203 647.12305 C 699.16324 647.38187 696.28063 643.64474 693.17773 638.81836 C 687.3464 629.74811 684.03975 625.95674 683.19141 627.36914 C 682.92212 627.81747 683.52584 632.91055 684.5332 638.68555 C 686.29473 648.78402 686.2478 653.68555 684.38867 653.68555 C 683.90619 653.68555 681.43599 653.12934 678.90039 652.45117 L 674.29102 651.21875 L 670.48633 655.67969 L 666.68359 660.14062 L 664.45117 656.35547 C 663.05782 653.99393 661.70338 652.7817 660.84961 653.12891 C 660.09721 653.43489 658.80742 653.95912 657.98242 654.29297 C 654.18358 655.83021 658.94372 640.35959 667.64062 622.90625 C 671.00563 616.1532 673.51007 610.38117 673.20703 610.07812 C 672.10867 608.97977 651.53084 635.63811 645.91406 645.43555 C 644.8893 647.22305 643.69705 648.68555 643.26562 648.68555 C 642.83421 648.68555 642.48242 645.95941 642.48242 642.62695 C 642.48242 639.22276 642.08183 636.81352 641.56836 637.13086 C 641.06571 637.44152 639.40976 640.86909 637.88867 644.74609 C 636.08414 649.34556 634.86052 651.32726 634.36914 650.44922 C 633.95495 649.7091 632.8416 645.0721 631.89453 640.14453 C 629.26726 626.47483 628.40886 623.35213 627.53906 624.30859 C 627.10032 624.79105 625.98484 631.03555 625.06055 638.18555 C 623.04961 653.74158 621.85075 658.68555 620.08789 658.68555 C 617.1774 658.68555 598.00385 642.73567 590.17969 633.80664 C 581.74871 624.1851 581.00981 624.40798 584.49414 635.52344 C 586.9801 643.45387 587.00066 646.33736 584.58008 647.63281 C 581.95599 649.03718 577.50198 647.39658 569.29102 642.00391 C 562.62758 637.6276 554.9681 630.01046 551.74414 624.55273 C 549.38925 620.56622 548.09421 620.96588 548.87891 625.43555 C 550.27664 633.39708 550.73045 638.68555 550.01562 638.68555 C 549.04827 638.68555 547.24733 636.36168 535.4375 619.87891 C 518.22108 595.85025 517.56221 595.66761 525.85742 617.2207 C 532.45944 634.37444 533.06415 636.68555 530.96094 636.68555 C 527.64169 636.68555 518.06314 630.47788 504.25195 619.37891 C 502.17913 617.71314 500.24924 616.58475 499.96289 616.87109 C 499.67654 617.15744 501.07434 620.83025 503.07031 625.0332 C 507.26748 633.87124 507.10271 635.92992 502.26953 635.05273 C 496.5271 634.01052 479.28593 625.16855 470.5 618.75977 C 465.83521 615.35711 461.86246 613.04156 461.67188 613.61328 C 461.4813 614.185 462.26144 617.15247 463.4043 620.20703 C 464.54715 623.26159 465.48242 626.19329 465.48242 626.72266 C 465.48242 628.27725 461.99798 627.83464 456.84766 625.62695 C 449.68428 622.55637 449.68534 622.55795 450.80469 615.60742 C 451.54558 611.00691 451.48861 609.30686 450.57812 608.74414 C 448.09867 607.21176 451.12028 593.70818 455.57227 586.41992 C 458.88778 580.99217 459.08476 580.24013 456.98242 581.04688 C 454.61987 581.95346 455.20537 580.56144 459.42773 575.23242 C 463.40415 570.21381 463.81916 568.29161 460.69922 569.35938 C 459.75434 569.68276 462.44417 566.5417 466.67578 562.37891 C 470.90739 558.21612 475.78392 552.42016 477.51172 549.49805 C 479.47739 546.17365 480.4599 545.12125 480.13867 546.68555 C 476.36479 565.06359 476.52744 575.18563 480.66211 579.32031 C 484.7177 583.3759 491.41647 583.6341 498.48242 580.00781 C 503.2108 577.58118 504.83029 575.90718 510.02734 568.07422 C 513.35217 563.06305 518.86439 555.86939 522.27734 552.08789 C 528.9122 544.73654 533.86273 536.16846 537.53125 525.68555 C 538.78233 522.11055 540.1349 518.80551 540.53711 518.3418 C 540.93932 517.8781 542.49983 518.30551 544.00391 519.29102 C 546.79519 521.11997 556.10446 522.22047 560.21289 521.20703 C 561.4403 520.90426 563.95367 519.33125 565.79688 517.71289 C 568.9288 514.96303 569.73109 514.76008 578.06445 514.60938 C 584.88492 514.48604 588.74582 514.99043 594.48242 516.75391 C 605.09556 520.01648 612.58048 519.76266 620.92578 515.85742 C 626.83932 513.09014 628.11377 512.8537 634.30859 513.37305 C 642.4119 514.0524 653.22186 512.36956 658.70117 509.57422 C 666.98949 505.34583 675.98718 492.79148 677.19727 483.76953 C 677.49561 481.54528 678.08902 479.94142 678.51562 480.20508 C 680.15254 481.21674 685.41809 491.66042 686.88281 496.80078 C 687.72648 499.76161 688.84683 506.52138 689.37305 511.82031 C 690.48718 523.03937 695.60326 542.99062 699.21094 550.18555 C 706.97532 565.67035 719.9693 572.41596 724.36523 563.24414 C 725.5825 560.7044 725.48318 558.8052 723.5625 547.76758 C 720.48106 530.05936 720.62282 531.49 719.49414 506.68555 C 718.93104 494.31055 718.19669 482.87379 717.86133 481.27148 L 717.25195 478.35938 z M 561.48047 500.4668 C 561.48147 500.62203 562.49492 501.15688 563.73242 501.6543 C 566.5052 502.76878 569.35388 502.79725 571.98242 501.73828 C 573.39729 501.16827 572.15323 500.82314 567.73047 500.55859 C 564.29197 500.35296 561.47947 500.31158 561.48047 500.4668 z M 819.99805 597.68555 C 819.34043 597.68555 812.03631 608.65657 810.01172 612.68555 C 809.04439 614.61055 808.67747 615.73555 809.19531 615.18555 C 810.6469 613.64381 820.49789 597.68555 819.99805 597.68555 z M 808.98242 598.57227 C 807.88242 599.13223 803.83242 602.51608 799.98242 606.0918 C 796.13242 609.66751 793.43242 612.59561 793.98242 612.59961 C 794.53242 612.60324 798.58242 609.21939 802.98242 605.08008 C 807.38242 600.94077 810.08242 598.01231 808.98242 598.57227 z M 408.83398 605.68555 C 407.84942 605.68555 410.72066 609.67981 416.91992 616.93555 C 420.56178 621.19805 423.78531 624.68555 424.08398 624.68555 C 424.65983 624.68555 424.29428 624.20392 415.11914 612.9043 C 411.89469 608.93323 409.06638 605.68555 408.83398 605.68555 z M 827.73633 606.68555 C 827.64501 606.50156 826.82511 607.2418 825.57227 608.68555 C 823.9018 610.61055 822.53425 612.63555 822.53125 613.18555 C 822.52589 614.33473 826.03296 610.16193 827.57422 607.18555 C 827.71662 606.91055 827.76677 606.74687 827.73633 606.68555 z M 400.82812 608.00586 C 400.58773 608.24626 402.04105 612.56662 404.05859 617.60742 C 406.07613 622.64821 407.89383 626.60617 408.09766 626.40234 C 408.30149 626.19851 406.84816 621.87814 404.86719 616.80078 C 402.88621 611.72342 401.06853 607.76546 400.82812 608.00586 z M 386.71094 608.81641 C 386.68147 608.88145 387.02956 609.48642 387.72852 610.68555 C 388.52998 612.06055 389.93869 614.64805 390.85938 616.43555 C 391.78006 618.22305 392.75529 619.68555 393.02734 619.68555 C 393.74841 619.68555 389.92691 612.52771 387.95508 610.18555 C 387.14745 609.22625 386.74041 608.75136 386.71094 608.81641 z "
       d="m 621.91797,367.33984 c -1.56435,0.0161 -3.45552,0.13896 -5.31445,0.36524 -4.81839,0.5865 -8.91689,0.90826 -12.02735,0.96484 -3.11046,0.0566 -5.29111,-0.21694 -5.99219,-0.57617 -0.69519,-0.35622 -1.6407,-0.37881 -2.83007,-0.26758 -1.18938,0.11123 -2.6048,0.39673 -4.10352,0.8418 -2.56442,0.76154 -9.16747,1.64623 -14.4668,1.9043 -7.26566,0.35381 -11.03612,1.05709 -14.66797,2.76757 -1.29872,0.61166 -2.6145,1.17598 -3.67773,1.58985 -0.53161,0.20693 -1,0.37681 -1.36719,0.49414 -0.36718,0.11733 -0.66227,0.17708 -0.70508,0.17969 -0.56208,0.0342 -1.09605,0.32916 -1.76171,0.73632 -0.66567,0.40716 -1.39957,0.94735 -2.0625,1.53907 -1.20987,1.07988 -4.29052,3.28109 -6.74024,4.79687 -2.58375,1.59872 -5.91838,4.88597 -7.59375,7.48242 -1.30982,2.02995 -2.08826,3.47244 -2.5293,5.33985 -0.44103,1.86741 -0.54903,4.11716 -0.60351,7.84375 l -0.11914,8.15429 -5.41211,5.58203 c -11.36185,11.71833 -25.2998,30.28771 -31.77539,42.35352 -8.9994,16.76836 -12.79722,30.25138 -14.2168,50.44531 -1.14138,16.23646 -1.92383,24.87095 -4.33008,31.39649 -2.40625,6.52554 -6.45031,11.04616 -14.27343,19.12695 -2.82247,2.91544 -5.38797,5.654 -7.25196,7.7207 -0.93199,1.03335 -1.68732,1.89757 -2.21679,2.53907 -0.26474,0.32074 -0.47278,0.5843 -0.62305,0.79492 -0.0751,0.10531 -0.13661,0.19678 -0.1875,0.28711 -0.0509,0.0903 -0.12109,0.12946 -0.12109,0.39648 0,0.29462 0.19457,0.57413 0.40039,0.70899 0.20581,0.13485 0.42156,0.18898 0.65429,0.21875 0.46546,0.0595 1.01374,0.003 1.61524,-0.1543 0.51045,-0.13349 0.80191,-0.16745 1.03515,-0.1875 -0.0738,0.16045 -0.12666,0.31242 -0.40039,0.69336 -0.38173,0.53124 -0.95543,1.24166 -1.71679,2.14648 -1.42913,1.69843 -3.23674,4.34064 -4.0918,5.99414 -0.65739,1.27126 -1.03642,1.94009 -1.04102,2.62891 -0.002,0.34441 0.24564,0.75125 0.55274,0.89062 0.3071,0.13938 0.59861,0.14258 0.94531,0.14258 0.23632,0 0.2798,0.0493 0.25586,0.0234 -0.0239,-0.0259 0.0277,0.0106 -0.01,0.28711 -0.075,0.55297 -0.52012,1.75213 -1.38086,3.68555 -1.1456,2.57328 -2.61521,7.85216 -3.73046,12.70312 -0.55763,2.42548 -1.02085,4.73521 -1.29883,6.53125 -0.13899,0.89802 -0.23209,1.66572 -0.26563,2.26953 -0.0168,0.30191 -0.0198,0.56206 -0.002,0.78907 0.0178,0.227 0.0324,0.41572 0.17383,0.64453 0.23979,0.38799 0.64635,0.55955 1.05273,0.62109 0.40638,0.0615 0.84529,0.0144 1.26953,-0.14844 0.12264,-0.0471 0.0559,-0.0258 0.0332,-0.043 -0.0227,-0.0171 0.0594,0.0637 0.11523,0.32422 0.11175,0.52098 0.12257,1.60397 -0.006,3.21875 -0.0976,1.22741 -0.23717,2.34506 -0.37695,3.13867 -0.0578,0.32832 -0.11219,0.5568 -0.16406,0.75 -0.26516,-0.0653 -0.61297,-0.16473 -1.19532,-0.57617 -0.71844,-0.50759 -1.61684,-1.28755 -2.66211,-2.3164 -2.09053,-2.0577 -4.77287,-5.11356 -7.91796,-9.04688 -2.36054,-2.95212 -4.23458,-5.11801 -5.57032,-6.4414 -0.66786,-0.6617 -1.18638,-1.11244 -1.63867,-1.36915 -0.22614,-0.12835 -0.43869,-0.23837 -0.75195,-0.20312 -0.15663,0.0176 -0.33898,0.10102 -0.45899,0.23047 -0.12,0.12945 -0.17378,0.27809 -0.19921,0.41015 -0.065,0.3377 0.0119,0.48544 0.0859,0.78321 0.0741,0.29777 0.18593,0.67044 0.33203,1.11719 0.2922,0.89349 0.72184,2.07861 1.24805,3.46484 1.05242,2.77247 2.4914,6.34318 3.98438,9.91211 1.49297,3.56893 3.03987,7.13426 4.30273,9.89648 0.63143,1.38111 1.19142,2.56135 1.64258,3.44532 0.22558,0.44198 0.422,0.81011 0.5918,1.09765 0.16979,0.28755 0.28152,0.47858 0.4707,0.65625 0.10418,0.0978 0.19423,0.1897 0.40234,0.25 0.10406,0.0301 0.26059,0.0455 0.41602,-0.0195 0.15542,-0.065 0.26575,-0.19852 0.3164,-0.30273 0.10131,-0.20843 0.0815,-0.33899 0.0723,-0.47657 -0.009,-0.13758 -0.0324,-0.27795 -0.0684,-0.4414 -0.1437,-0.65381 -0.48338,-1.65388 -1.00586,-3.01563 -1.04496,-2.72349 -2.82119,-6.84557 -5.16601,-11.94922 -1.36675,-2.97478 -2.55994,-5.72976 -3.37891,-7.76171 -0.30468,-0.75594 -0.49392,-1.28546 -0.68359,-1.8125 0.0695,0.0731 0.10379,0.0978 0.17773,0.17773 0.8231,0.88977 1.91572,2.19324 3.0625,3.67969 2.55397,3.31041 5.74422,6.78627 8.80273,9.70117 3.05852,2.9149 5.95901,5.26178 8.05078,6.33984 1.68079,0.86625 5.35452,2.23352 8.29883,3.10547 2.43836,0.72213 3.76134,1.10431 4.72852,1.09375 0.48359,-0.005 0.92135,-0.14831 1.22851,-0.43555 0.30717,-0.28723 0.46631,-0.64663 0.61914,-1.04492 0.2739,-0.71374 0.16639,-1.65731 -0.043,-2.88086 -0.20936,-1.22354 -0.58306,-2.66007 -1.07422,-4.04297 -0.47515,-1.3378 -0.85707,-2.60517 -1.08594,-3.55273 -0.0907,-0.37535 -0.13693,-0.64863 -0.17578,-0.90039 0.003,0.001 0.003,6.6e-4 0.006,0.002 0.42345,0.2161 1.03599,0.57199 1.77344,1.03125 1.47488,0.91852 3.45992,2.25647 5.58789,3.78321 5.40377,3.87703 11.62776,7.52474 17.22461,10.24414 5.59684,2.71939 10.51427,4.52381 13.54101,4.66406 2.12241,0.0983 3.2865,0.17207 4.16016,-0.29102 0.43682,-0.23154 0.73953,-0.63669 0.90429,-1.0957 0.16477,-0.45901 0.23482,-0.98386 0.31055,-1.64258 0.11309,-0.98362 -0.12946,-2.25498 -0.60547,-3.73437 -0.47601,-1.4794 -1.19892,-3.15106 -2.10937,-4.83203 -0.81327,-1.50153 -1.50745,-2.86595 -1.9668,-3.84571 -0.0102,-0.0218 -0.0115,-0.0294 -0.0215,-0.0508 0.46649,0.32798 0.95303,0.6717 1.6289,1.16406 1.74509,1.27129 4.10189,3.02722 6.64453,4.95899 5.11073,3.88286 11.472,8.14673 14.30078,9.55859 2.19781,1.09694 3.48377,1.6967 4.52735,1.85742 0.52179,0.0804 1.00091,0.0341 1.41992,-0.14648 0.41901,-0.18061 0.76123,-0.47021 1.10938,-0.81836 0.6967,-0.6967 1.13509,-1.472 1.08593,-2.5957 -0.0492,-1.12371 -0.47173,-2.6003 -1.26758,-5.125 -1.00037,-3.17356 -3.52299,-9.92983 -5.625,-15.07617 -1.04492,-2.55832 -1.89498,-4.82167 -2.41796,-6.39454 -0.0415,-0.12467 -0.0448,-0.16532 -0.082,-0.28125 0.67708,0.85522 1.5667,2.01075 2.64844,3.44141 2.23355,2.954 5.19517,6.95662 8.3418,11.29102 3.15061,4.33987 6.19012,8.43071 8.55273,11.52929 1.18131,1.5493 2.19331,2.85027 2.9668,3.8125 0.38674,0.48112 0.71499,0.87851 0.97656,1.18164 0.26157,0.30313 0.43706,0.4999 0.61133,0.64453 0.66397,0.55105 1.32985,0.86399 1.98633,0.6543 0.65648,-0.20969 1.00098,-0.85894 1.18164,-1.65625 0.36131,-1.59461 0.20444,-4.18803 -0.41211,-7.82617 -0.28312,-1.67064 -0.51378,-3.22067 -0.6582,-4.36524 -0.0296,-0.2348 -0.0386,-0.36461 -0.0606,-0.5625 0.1199,0.13785 0.19336,0.20996 0.33203,0.375 0.76926,0.91557 1.80796,2.2258 2.92188,3.70118 4.68771,6.20882 14.36556,13.9128 21.91211,17.45898 2.98907,1.40459 4.83088,2.16122 6.35547,2.27344 1.52458,0.11222 2.66086,-0.52314 3.90429,-1.64844 1.30298,-1.17917 1.93743,-2.87536 1.90821,-5.0957 -0.0292,-2.22034 -0.68119,-4.99919 -1.9336,-8.5625 -0.54861,-1.56091 -1.04773,-3.03879 -1.4082,-4.1582 -0.0351,-0.10897 -0.0496,-0.16566 -0.082,-0.26758 0.1545,0.15451 0.23847,0.2284 0.41601,0.41015 1.11229,1.13865 2.65393,2.78917 4.34961,4.66797 4.24007,4.69796 11.06617,10.85788 17.23438,15.86328 3.0841,2.5027 6.00128,4.71416 8.35351,6.3086 1.17612,0.79721 2.21001,1.43896 3.06446,1.89062 0.85444,0.45166 1.48535,0.73828 2.09179,0.73828 0.80462,0 1.58649,-0.19 2.21289,-0.7832 0.62641,-0.5932 1.0837,-1.50873 1.51563,-2.91602 0.86386,-2.81458 1.62018,-7.68314 2.7832,-16.24804 0.44708,-3.29246 0.88654,-6.32031 1.23438,-8.54102 0.11057,-0.70596 0.19213,-1.16267 0.28125,-1.6875 0.25624,1.04904 0.55411,2.38464 0.85742,3.96094 1.3968,7.25925 2.46536,12.23272 3.33594,15.37305 0.43528,1.57016 0.81566,2.67862 1.18945,3.41992 0.18689,0.37065 0.36686,0.65317 0.60547,0.86914 0.2386,0.21597 0.62937,0.35869 0.96875,0.24609 0.2419,-0.0803 0.36746,-0.20947 0.50781,-0.35742 0.14035,-0.14794 0.27965,-0.32601 0.42773,-0.53906 0.29617,-0.4261 0.62724,-0.99003 0.98438,-1.66406 0.71429,-1.34807 1.5272,-3.13491 2.2793,-5.05469 l 1.69531,-4.33008 0.0215,2.9707 c 0.0111,1.60534 0.12801,3.06347 0.31446,4.14844 0.0932,0.54249 0.20042,0.98909 0.33984,1.3418 0.0697,0.17635 0.14419,0.32914 0.26172,0.47461 0.11753,0.14546 0.32094,0.3164 0.60742,0.3164 0.39967,0 0.84924,-0.19454 1.33594,-0.63867 0.48669,-0.44412 1.09531,-1.15721 2.01758,-2.36133 1.84452,-2.40823 4.93008,-6.78202 10.49023,-14.72851 4.22564,-6.03923 9.30397,-12.81336 11.19336,-14.95117 l 0.86719,-0.98047 -3.27735,6.62304 c -3.09806,6.26386 -5.67317,12.37572 -7.42773,17.46485 -1.75456,5.08912 -2.71496,9.09644 -2.48828,11.43164 0.0772,0.79517 0.13956,1.40892 0.29101,1.91992 0.15145,0.511 0.46299,0.97454 0.95508,1.16602 0.49209,0.19147 1.03008,0.14475 1.72266,0.0117 0.69258,-0.13303 1.55762,-0.3737 2.6914,-0.69531 0.39816,-0.11294 0.72744,-0.0462 1.17579,0.3125 0.44834,0.35874 0.95804,1.03635 1.47656,2.03906 0.55053,1.06462 1.09142,1.87426 1.69726,2.42969 0.60585,0.55544 1.32866,0.84852 2.07032,0.75586 1.4833,-0.18531 2.79114,-1.59842 4.46093,-4.04297 1.11997,-1.6396 1.90146,-2.5728 2.55079,-3.00586 0.64932,-0.43305 1.17279,-0.46606 2.13867,-0.26562 4.58976,0.95244 6.77187,1.46741 8.20117,1.30859 0.71465,-0.0794 1.27581,-0.41379 1.625,-0.91015 0.34918,-0.49637 0.54371,-1.09228 0.83203,-1.84961 0.90102,-2.3667 0.73291,-5.31978 -0.55469,-12.47657 -0.45915,-2.55211 -0.81912,-4.92901 -1.02929,-6.69336 -0.0982,-0.82452 -0.15622,-1.48073 -0.1836,-1.98437 0.18053,0.18929 0.3315,0.33449 0.57031,0.61523 0.78134,0.91852 1.83425,2.28086 2.9961,3.86914 2.32369,3.17657 5.09393,7.26832 7.10742,10.62696 0.62939,1.04987 1.28592,2.00329 1.85156,2.70898 0.28283,0.35285 0.54121,0.6417 0.77735,0.86133 0.11806,0.10981 0.22919,0.20382 0.35156,0.28125 0.12237,0.0774 0.25159,0.1582 0.48437,0.1582 0.58242,0 0.92687,-0.39766 1.28125,-0.8789 0.35439,-0.48125 0.70857,-1.13649 1.07813,-1.95313 0.73911,-1.63326 1.52274,-3.91132 2.24609,-6.59765 0.6174,-2.29285 1.64022,-5.38274 2.23242,-6.76954 0.14292,-0.33466 0.21736,-0.47271 0.32422,-0.70507 0.0933,0.55831 0.19707,1.36046 0.33008,2.43554 l 0.55664,4.5 a 0.5356395,0.5356395 0 0 0 0.9961,0.19922 l 2.43359,-4.25 c 0.6589,-1.15043 1.35079,-2.19716 1.91992,-2.9414 0.28457,-0.37213 0.53999,-0.66957 0.73047,-0.85547 0.0611,0.17415 0.12645,0.38434 0.18359,0.69922 0.13952,0.76882 0.23243,1.87105 0.23243,3.08203 0,1.46841 0.10539,2.62374 0.33593,3.4707 0.11528,0.42348 0.25784,0.77471 0.47657,1.05859 0.21872,0.28389 0.56707,0.50586 0.94726,0.50586 0.24861,0 0.39422,-0.0653 0.60742,-0.14843 0.21321,-0.0831 0.46367,-0.19736 0.75391,-0.3418 0.58047,-0.28889 1.32141,-0.69779 2.18164,-1.20117 1.72047,-1.00676 3.91307,-2.38892 6.17578,-3.91016 3.61383,-2.4296 5.73845,-3.95928 7.17774,-5.45312 1.43928,-1.49385 2.15698,-2.95216 2.90429,-5.06446 0.84422,-2.38617 1.44363,-4.1501 1.91016,-5.36328 0.46187,-1.20109 0.86246,-1.84447 0.97461,-1.9375 0.0478,0.0279 0.18247,0.12784 0.36328,0.35156 0.3873,0.47924 0.93417,1.37224 1.70117,2.53125 1.1279,1.70438 1.93787,3.00938 2.8418,3.88672 0.90393,0.87735 2.00449,1.27895 3.3164,1 2.62383,-0.55789 6.25014,-3.32436 13.92969,-8.85547 l 4.40235,-3.16992 v 4.54688 c 0,1.56325 0.10807,2.98275 0.28906,4.04101 0.0905,0.52913 0.19438,0.96399 0.33398,1.31055 0.0698,0.17328 0.14631,0.32712 0.26563,0.4707 0.11931,0.14358 0.32444,0.30664 0.60351,0.30664 0.40193,0 0.70886,-0.20188 1.01563,-0.46875 0.30677,-0.26686 0.62159,-0.62992 0.9707,-1.10156 0.69821,-0.94328 1.52799,-2.32154 2.51367,-4.1582 1.97137,-3.67332 4.55689,-9.17973 7.79688,-16.5918 2.99811,-6.85871 5.42846,-12.1385 6.98437,-15.23242 0.14724,-0.29278 0.16995,-0.29045 0.30274,-0.54492 -2.30098,9.17496 -4.04488,16.75754 -4.98633,21.77539 -0.50909,2.7134 -0.8053,4.72998 -0.86914,6.01367 -0.0319,0.64184 -0.044,1.0694 0.12305,1.47461 0.0418,0.1013 0.10084,0.20966 0.21093,0.31055 0.1101,0.10089 0.28741,0.17929 0.45313,0.18164 0.33143,0.005 0.50813,-0.16558 0.6582,-0.31836 0.53298,-0.54261 1.49105,-1.82465 2.72852,-3.54688 1.23746,-1.72222 2.71391,-3.85077 4.13476,-5.94726 1.42085,-2.0965 2.7866,-4.16041 3.79883,-5.75782 0.50612,-0.7987 0.92252,-1.47958 1.21875,-1.99609 0.14812,-0.25825 0.2652,-0.47416 0.35156,-0.65234 0.0432,-0.0891 0.0801,-0.16895 0.10938,-0.24805 0.0293,-0.0791 0.0625,-0.13789 0.0625,-0.30469 0,-0.0774 -0.001,-0.19968 -0.10938,-0.34765 -0.10801,-0.14798 -0.34113,-0.23391 -0.47656,-0.22852 -0.27085,0.0108 -0.31422,0.0977 -0.38476,0.15039 -0.14109,0.10547 -0.25444,0.22617 -0.40821,0.39648 -0.30754,0.34064 -0.72821,0.86056 -1.24609,1.53516 -1.03577,1.3492 -2.45552,3.31036 -4.01758,5.57031 -1.55464,2.24922 -3.00261,4.26041 -4.07812,5.68164 -0.2789,0.36855 -0.44835,0.5672 -0.67188,0.84961 0.13163,-0.69916 0.28415,-1.4838 0.51172,-2.55273 0.55088,-2.58764 1.35441,-6.12083 2.27539,-9.96875 2.07752,-8.68006 3.37041,-14.49209 3.97266,-17.99219 0.30112,-1.75005 0.43601,-2.9002 0.39257,-3.64062 -0.0109,-0.18511 -0.0324,-0.34653 -0.082,-0.50586 -0.0497,-0.15933 -0.12943,-0.34133 -0.33398,-0.47657 -0.20455,-0.13523 -0.49274,-0.12826 -0.66797,-0.0586 -0.17523,0.0697 -0.29371,0.16833 -0.41016,0.28125 -0.19899,0.19297 -0.27759,0.36337 -0.45117,0.66797 -0.17358,0.3046 -0.38765,0.70737 -0.64062,1.20313 -0.50596,0.99151 -1.16556,2.35196 -1.93555,3.98632 -1.53997,3.26874 -3.51987,7.6336 -5.57031,12.3125 -4.75219,10.844 -7.71976,17.46882 -9.63477,21.36328 -0.9575,1.94723 -1.65491,3.213 -2.16016,3.96094 -0.24785,0.36692 -0.44812,0.60134 -0.58789,0.72852 -0.0504,-0.17774 -0.10312,-0.42891 -0.1289,-0.79688 -0.0586,-0.83693 -0.0149,-2.06595 0.15234,-3.47851 0.1616,-1.36442 0.23086,-2.45077 0.1836,-3.30078 -0.0473,-0.85002 -0.17743,-1.49769 -0.63086,-1.93946 -0.22672,-0.22088 -0.54812,-0.34831 -0.86133,-0.35547 -0.31321,-0.007 -0.61406,0.0801 -0.92383,0.22266 -0.61953,0.28513 -1.29761,0.80321 -2.11719,1.54492 -0.41721,0.37757 -0.73668,0.64468 -0.94336,0.77344 -0.20667,0.12876 -0.21034,0.0961 -0.1914,0.10352 0.0189,0.007 -0.10151,-0.0713 -0.25977,-0.37305 -0.15826,-0.30174 -0.35221,-0.77755 -0.5957,-1.41797 -0.35186,-0.92531 -0.51226,-1.65456 -0.51172,-2.20898 5.3e-4,-0.55443 0.13811,-0.93033 0.42773,-1.2793 0.50691,-0.61078 0.6267,-1.47398 0.46485,-2.5625 -0.16186,-1.08853 -0.59853,-2.46388 -1.31641,-4.28516 -0.69971,-1.77519 -1.09851,-3.04803 -1.2168,-3.83789 -0.0591,-0.39493 -0.0414,-0.66289 -0.006,-0.78125 0.0356,-0.11836 0.0234,-0.0905 0.0801,-0.10937 0.23122,-0.0771 0.4301,-0.2671 0.53321,-0.47071 0.1031,-0.2036 0.13832,-0.41478 0.14648,-0.63867 0.0163,-0.44779 -0.0789,-0.96988 -0.25781,-1.63086 -0.3579,-1.32195 -1.0781,-3.17582 -2.16797,-5.61328 -2.05456,-4.59494 -4.1908,-11.15391 -5.61523,-16.6543 -0.71222,-2.75019 -1.24687,-5.23877 -1.50782,-7.07421 -0.13047,-0.91773 -0.18995,-1.67496 -0.17578,-2.19336 0.007,-0.25921 0.0337,-0.4596 0.0644,-0.57032 0.0308,-0.11072 0.0662,-0.0979 -0.0195,-0.0449 0.23933,-0.14791 0.37026,-0.37685 0.44922,-0.60742 0.079,-0.23057 0.11581,-0.48342 0.13281,-0.7793 0.034,-0.59175 -0.0196,-1.3581 -0.15234,-2.34765 -0.26541,-1.97911 -0.85438,-4.84048 -1.78125,-8.7168 -0.73702,-3.08235 -1.469,-6.04497 -2.05469,-8.33789 -0.29284,-1.14646 -0.54914,-2.12485 -0.75195,-2.86914 -0.20281,-0.7443 -0.34006,-1.22613 -0.44141,-1.49024 -0.0475,-0.12373 -0.048,-0.16946 -0.0664,-0.24804 0.11517,0.0241 0.23878,0.0507 0.4375,0.12695 0.6008,0.23055 1.15046,0.34774 1.64648,0.0625 0.24801,-0.14262 0.42687,-0.39202 0.51367,-0.65234 0.0868,-0.26033 0.1034,-0.53617 0.084,-0.8418 -0.0776,-1.22253 -0.74443,-3.03306 -1.97461,-5.74414 -0.53859,-1.18695 -1.02995,-2.38403 -1.38281,-3.3457 -0.17644,-0.48084 -0.3188,-0.90353 -0.41407,-1.23047 -0.0953,-0.32695 -0.13476,-0.59354 -0.13476,-0.59571 0,-0.4632 -0.13423,-1.03082 -0.35352,-1.78515 -0.21928,-0.75434 -0.53082,-1.67111 -0.91406,-2.70508 -0.76647,-2.06794 -1.81786,-4.60396 -2.9668,-7.19336 -2.29787,-5.1788 -4.95564,-10.5306 -6.60351,-12.83008 -1.04792,-1.46228 -1.80703,-2.72212 -2.20313,-3.59961 -0.19805,-0.43874 -0.29934,-0.78918 -0.3164,-0.96093 -0.003,-0.0293 -0.003,-0.0128 -0.002,-0.0293 0.48104,-0.19347 0.88236,-0.48672 1.10157,-0.9043 0.24384,-0.46451 0.26095,-1.01282 0.11914,-1.55859 -0.28363,-1.09156 -1.15198,-2.27835 -2.5293,-3.57227 -0.6602,-0.62022 -1.26706,-1.3207 -1.69531,-1.92969 -0.42826,-0.60898 -0.63672,-1.20593 -0.63672,-1.23437 0,-0.43233 -0.19357,-0.69473 -0.43946,-1.05469 -0.24588,-0.35996 -0.58213,-0.76855 -0.99218,-1.21679 -0.8201,-0.8965 -1.93433,-1.9451 -3.16211,-2.95118 -3.67499,-3.01137 -4.57023,-4.48607 -6.39453,-10.49218 -2.82774,-9.30973 -7.71282,-19.74193 -18.39649,-39.33594 -2.53984,-4.65811 -4.53296,-8.55154 -5.76758,-11.2207 -0.6173,-1.33459 -1.0468,-2.36953 -1.25195,-3.00782 -0.0103,-0.032 -0.005,-0.0283 -0.0137,-0.0586 0.25139,0.0413 0.49213,0.0364 0.73437,-0.0684 0.22388,-0.0968 0.41641,-0.31086 0.49414,-0.53125 0.0777,-0.22039 0.073,-0.43089 0.041,-0.63867 -0.12781,-0.83113 -0.71485,-1.80773 -1.58398,-3.00781 -1.73827,-2.40017 -4.66421,-5.47666 -7.64844,-7.64063 -1.37763,-0.99897 -2.43759,-1.7021 -3.1875,-2.13867 -0.37496,-0.21829 -0.66723,-0.37001 -0.91406,-0.46485 -0.12342,-0.0474 -0.23018,-0.0849 -0.37696,-0.0976 -0.0734,-0.006 -0.16162,-0.008 -0.27929,0.0293 -0.11768,0.0378 -0.27305,0.1443 -0.34961,0.29296 -0.15313,0.29734 -0.0424,0.48756 0.0156,0.60743 0.058,0.11987 0.12738,0.21668 0.21289,0.32421 0.17103,0.21507 0.41187,0.46465 0.73828,0.77344 0.65284,0.61758 1.64203,1.45591 2.99219,2.50781 1.26714,0.98722 2.42156,1.99987 3.2461,2.82032 0.41226,0.41022 0.74297,0.7733 0.95703,1.04883 0.10703,0.13776 0.18524,0.2546 0.22656,0.33007 0.0413,0.0755 0.0293,0.11968 0.0293,0.0195 0,0.53075 0.26526,0.95831 0.61328,1.44336 0.26324,0.3669 0.63793,0.72114 1.00781,1.06641 -0.27683,0.0723 -0.54554,0.211 -0.67383,0.4668 -0.18046,0.35982 -0.1635,0.73617 -0.0898,1.18164 0.0736,0.44546 0.22767,0.97084 0.46093,1.61133 0.93307,2.56194 3.15971,6.9513 6.91407,13.83007 18.64631,34.16396 20.49322,39.44677 21.81054,62.65821 1.58732,27.96887 2.93298,43.5464 4.51563,52.0664 1.39837,7.52796 2.12257,11.86179 2.25,14.51758 0.12743,2.65579 -0.26287,3.52363 -1.18359,4.54102 -1.55825,1.72183 -3.49202,2.11216 -5.91211,1.26367 -2.4201,-0.84849 -5.26533,-3.02607 -8.23243,-6.49219 -7.56945,-8.84251 -13.50865,-26.47666 -15.52734,-46.48242 -1.28619,-12.74644 -3.27239,-18.94563 -9.78125,-30.52734 -2.69122,-4.7887 -7.05305,-14.8088 -9.63476,-22.15625 -2.60331,-7.40889 -6.28277,-16.00324 -8.28907,-19.28125 -1.93764,-3.16586 -4.25352,-6.99613 -5.13672,-8.4961 -0.4606,-0.78226 -0.97053,-1.49133 -1.4414,-2.02344 -0.23544,-0.26605 -0.45985,-0.48695 -0.67969,-0.6582 -0.21984,-0.17124 -0.4128,-0.32965 -0.76953,-0.33203 -0.21252,-0.002 -0.445,0.0591 -0.62695,0.20117 -0.18196,0.14207 -0.29196,0.3431 -0.34571,0.53516 -0.10748,0.38412 -0.0582,0.77054 0.0449,1.21875 0.20627,0.89641 0.696,2.03727 1.3711,3.3125 1.3502,2.55045 3.44418,5.59261 5.55859,7.70703 0.10423,0.10423 0.44659,0.61946 0.82227,1.34766 0.37567,0.72819 0.82545,1.69383 1.3125,2.82031 0.97409,2.25295 2.10344,5.15155 3.14843,8.14258 2.10008,6.01093 4.92503,13.78598 6.28907,17.30273 2.23996,5.77501 2.33916,6.59466 1.32422,11.64844 -1.59437,7.93894 -4.70272,13.74938 -10.42188,19.48633 -3.32342,3.33375 -6.16838,5.37069 -10.09375,6.6875 -3.92536,1.3168 -8.96435,1.9036 -16.5918,2.22656 -9.9677,0.42206 -13.16033,0.96959 -18.14062,3.12109 -7.475,3.22923 -16.00302,3.39083 -25.67969,0.4375 -5.49241,-1.67629 -9.30154,-2.10847 -16.91797,-1.92968 -3.32908,0.0781 -5.77727,0.22656 -7.42773,0.46289 -0.82523,0.11816 -1.4477,0.25467 -1.91602,0.43945 -0.23416,0.0924 -0.43496,0.19383 -0.60742,0.34961 -0.17246,0.15578 -0.32201,0.40573 -0.32226,0.67969 5e-5,-0.0608 -0.0293,0.10502 -0.17969,0.31445 -0.15038,0.20943 -0.39081,0.47719 -0.69531,0.76562 -0.609,0.57688 -1.47346,1.24123 -2.41993,1.82618 -5.03969,3.11469 -14.13855,2.90247 -20.88476,-0.625 -1.4133,-0.739 -2.75907,-1.56413 -3.77344,-2.28516 -0.50719,-0.36052 -0.93241,-0.69573 -1.23437,-0.97266 -0.30197,-0.27692 -0.47403,-0.53364 -0.47461,-0.53515 -0.3735,-0.97331 -1.30943,-1.69141 -2.33204,-1.69141 0.0104,0 -0.10065,-0.0213 -0.26171,-0.15234 -0.16107,-0.13104 -0.36204,-0.35051 -0.56446,-0.63477 -0.40484,-0.56851 -0.82218,-1.39124 -1.11914,-2.29101 -0.39839,-1.20717 -0.80395,-2.07644 -1.32031,-2.65625 -0.25818,-0.28991 -0.55382,-0.5124 -0.89844,-0.61914 -0.34461,-0.10675 -0.72153,-0.0805 -1.05859,0.0488 -0.21524,0.0826 -0.31724,0.0712 -0.33203,0.0664 -0.0148,-0.005 -0.043,-9.9e-4 -0.11719,-0.17383 -0.14834,-0.34567 -0.26367,-1.27115 -0.26367,-2.74609 0,-1.1209 -0.14273,-2.27131 -0.37891,-3.25 -0.23618,-0.97869 -0.51566,-1.77347 -1.01953,-2.27735 -0.0325,-0.0325 -0.23552,-0.36024 -0.41602,-0.8457 -0.18049,-0.48546 -0.37649,-1.13955 -0.57617,-1.91406 -0.39936,-1.54902 -0.81448,-3.58246 -1.18945,-5.78906 -0.74994,-4.41321 -1.34267,-9.53819 -1.37695,-12.9375 -0.0711,-7.04485 1.89082,-13.67949 5.98437,-20.18946 2.20273,-3.50299 5.38245,-9.26605 7.09961,-12.87304 3.52183,-7.39784 3.90717,-13.92521 1.75391,-28.66016 -0.76541,-5.23776 -0.93522,-10.09778 -0.58008,-13.89258 0.35514,-3.7948 1.31597,-6.50404 2.42773,-7.4043 0.6024,-0.48779 1.14318,-1.03833 1.54883,-1.55664 0.40566,-0.5183 0.72266,-0.93065 0.72266,-1.50976 0,0.15923 0.0185,-0.0291 0.16992,-0.23438 0.15147,-0.2053 0.38992,-0.47776 0.68555,-0.78125 0.59126,-0.60697 1.41061,-1.34294 2.26562,-2.04687 0.85501,-0.70393 1.74993,-1.37837 2.49024,-1.86719 0.37015,-0.24441 0.70236,-0.44295 0.96093,-0.57227 0.25857,-0.12931 0.47284,-0.16992 0.43164,-0.16992 0.36401,0 0.49777,-0.123 0.75391,-0.26367 0.25614,-0.14067 0.5568,-0.33129 0.89649,-0.56445 0.67937,-0.46632 1.50841,-1.09892 2.33789,-1.79688 0.78746,-0.6626 1.68575,-1.27109 2.47851,-1.70508 0.79276,-0.43398 1.53271,-0.66992 1.74219,-0.66992 1.1505,0 2.59094,-0.71626 3.60156,-1.63086 0.82057,-0.7426 3.4346,-1.68797 6.70313,-2.32422 3.26853,-0.63624 7.23193,-1.04492 10.95703,-1.04492 3.22975,0 7.64919,-0.64061 10.03515,-1.48242 2.16474,-0.76376 5.50298,-1.1549 7.10938,-0.88476 6.22613,1.047 8.0792,1.01256 17.16211,-0.33204 3.09165,-0.45767 5.44159,-0.71085 7.07617,-0.76367 0.81729,-0.0264 1.45555,-0.001 1.90234,0.0645 0.4468,0.0659 0.68346,0.19908 0.70508,0.2207 0.26172,0.26171 0.58178,0.391 0.98438,0.52539 0.40259,0.13439 0.88742,0.24787 1.43359,0.34375 1.09234,0.19176 2.43015,0.30859 3.78125,0.30859 1.29718,0 2.47958,0.0852 3.31055,0.21485 0.41548,0.0648 0.74561,0.14279 0.93164,0.21093 0.093,0.0341 0.14907,0.0698 0.14453,0.0664 -0.005,-0.003 -0.11151,-0.0892 -0.11328,-0.27148 0.004,0.34559 0.17406,0.56903 0.35547,0.77148 0.18141,0.20245 0.40776,0.3882 0.67578,0.57813 0.53603,0.37984 1.23711,0.76568 2.0039,1.12109 1.53358,0.71082 3.27166,1.30859 4.51172,1.30859 0.22021,0 0.84526,0.22262 1.48828,0.64649 0.64303,0.42387 1.33794,1.02304 1.90039,1.66992 1.00095,1.15119 1.87212,1.8907 3.3086,2.26172 1.43647,0.37102 3.38846,0.42187 6.77539,0.42187 1.86825,0 3.34716,0.0426 4.45508,0.13868 1.10792,0.0961 1.85418,0.26424 2.18164,0.42773 0.16373,0.0817 0.20142,0.1448 0.20312,0.14844 0.002,0.004 0.017,-0.006 -0.0234,0.0957 -0.0809,0.20365 -0.4709,0.67826 -1.1504,1.24219 -0.57925,0.48073 -1.02016,0.87821 -1.29296,1.34765 -0.27281,0.46945 -0.28289,1.10369 0.0293,1.57813 0.31219,0.47444 0.82393,0.85065 1.57422,1.30273 0.7503,0.45209 1.74923,0.96566 3.04492,1.60352 1.28269,0.63146 2.30964,1.25866 2.89063,1.7207 0.15942,0.12678 0.18252,0.17269 0.26562,0.26172 -0.40551,0.18214 -0.75748,0.39582 -0.95703,0.75977 -0.13281,0.24223 -0.17508,0.54055 -0.12304,0.8125 0.052,0.27194 0.18009,0.51958 0.35351,0.76367 0.6937,0.97635 2.19997,2.06386 4.76367,3.70898 1.35204,0.8676 2.52008,1.75802 3.29102,2.47071 0.38547,0.35634 0.67187,0.67261 0.82031,0.88671 0.0742,0.10706 0.11211,0.19033 0.11719,0.20704 -0.067,0.16092 -0.14444,0.32267 -0.12305,0.50195 0.0295,0.24763 0.16513,0.46997 0.33399,0.62109 0.3377,0.30225 0.78199,0.40039 1.29492,0.40039 0.71054,0 1.24813,-0.0442 1.66992,-0.41406 0.2109,-0.18494 0.34595,-0.49395 0.33789,-0.77539 -0.008,-0.28144 -0.11215,-0.52609 -0.25781,-0.76758 -0.58266,-0.96595 -1.972,-2.10254 -4.28711,-3.73437 -1.30151,-0.9174 -2.35898,-1.85057 -3.06055,-2.65821 -0.70156,-0.80764 -0.98521,-1.51495 -0.96484,-1.75195 0.0706,-0.82227 -0.39291,-1.60221 -1.15235,-2.36914 -0.75943,-0.76693 -1.85776,-1.54692 -3.27343,-2.33789 -2.03434,-1.13663 -3.06226,-1.84057 -3.25,-2.14063 -0.0939,-0.15002 -0.092,-0.13527 0,-0.32812 0.092,-0.19285 0.34721,-0.5177 0.73242,-0.94336 0.68965,-0.76205 1.14162,-1.42121 1.25976,-2.11719 0.0591,-0.34799 0.014,-0.71338 -0.15234,-1.02539 -0.16631,-0.31201 -0.43442,-0.5565 -0.75977,-0.74804 -1.30136,-0.76619 -3.64592,-0.95899 -7.46093,-0.95899 -3.20109,0 -5.00588,-0.0772 -6.33203,-0.45703 -1.32615,-0.37986 -2.24966,-1.05854 -3.78907,-2.41016 -0.97321,-0.85449 -2.09156,-1.62308 -3.13086,-2.1875 -1.03929,-0.56442 -1.95905,-0.94531 -2.74609,-0.94531 -0.92112,0 -2.37278,-0.73807 -2.91992,-1.48633 -0.98746,-1.35043 -3.16099,-1.99418 -6.01563,-2.125 -1.17849,-0.054 -2.46006,-0.18473 -3.56054,-0.34961 -1.10049,-0.16488 -2.04428,-0.37927 -2.44336,-0.53906 -0.3619,-0.14491 -0.80673,-0.20658 -1.38672,-0.25391 -0.57999,-0.0473 -1.28038,-0.0647 -2.0625,-0.0566 z m 33.20312,40 c -0.17943,-0.66604 -2.38074,2.30155 -0.84375,0.80469 -0.0712,0.3543 -0.12765,0.84616 -0.17578,1.47461 -0.0962,1.2569 -0.15429,3.03934 -0.15429,5.06641 0,2.02874 0.0673,3.80365 0.17968,5.04883 0.0562,0.62258 0.12138,1.10557 0.20703,1.45898 0.0428,0.1767 0.0712,0.3127 0.18946,0.48828 0.0591,0.0878 0.15827,0.22089 0.38281,0.27344 0.22454,0.0525 0.4638,-0.0673 0.5625,-0.16602 0.17663,-0.17662 0.21111,-0.32123 0.26172,-0.48633 0.0506,-0.16509 0.0893,-0.35105 0.125,-0.5664 0.0714,-0.43071 0.12519,-0.97635 0.16797,-1.60938 0.0856,-1.26605 0.12154,-2.87404 0.11133,-4.48437 -0.0102,-1.61034 -0.0663,-3.22113 -0.16797,-4.48828 -0.0508,-0.63358 -0.11267,-1.18003 -0.18946,-1.61133 -0.0384,-0.21565 -0.0803,-0.40143 -0.13281,-0.56641 -0.0525,-0.16497 -0.0878,-0.30851 -0.26172,-0.48242 -0.0544,-0.0544 -0.13811,-0.11966 -0.26172,-0.1543 z m -24.34765,2.81055 c -1.86938,0 -3.19354,0.13101 -4.36328,0.60938 -1.16975,0.47837 -2.1296,1.28794 -3.29102,2.53125 -3.29329,3.52547 -5.23951,10.09662 -5.04102,16.60156 0.0272,0.89087 0.0557,1.5323 0.0996,1.94336 0.022,0.20552 0.008,0.30749 0.11915,0.53711 0.0277,0.0574 0.0604,0.14077 0.19335,0.23437 0.13297,0.0936 0.42287,0.11687 0.57422,0.0391 0.30272,-0.15561 0.26855,-0.27328 0.30078,-0.35546 0.12892,-0.32876 0.18166,-0.73087 0.28907,-1.48829 0.1074,-0.75741 0.23525,-1.80665 0.39453,-3.16992 0.62266,-5.32925 1.87592,-9.21507 3.72656,-11.72265 1.27999,-1.73436 2.85111,-2.79317 4.74414,-3.30664 -1.21852,0.55001 -2.45111,1.55853 -3.58008,2.80468 -1.67012,1.84348 -3.07222,4.16281 -3.46093,6.28125 -0.36685,1.99926 -0.25941,5.31475 0.2246,7.60547 0.35762,1.6925 0.69401,2.79903 1.34961,3.59766 0.5987,0.7293 1.4628,1.08547 2.57422,1.35351 -1.45115,0.24521 -3.17807,0.82172 -4.42383,1.58594 -0.4284,0.2628 -0.76273,0.4793 -1.01171,0.65625 -0.24899,0.17695 -0.39275,0.22846 -0.5625,0.51953 -0.0424,0.0728 -0.10745,0.18615 -0.082,0.38281 0.0254,0.19667 0.20605,0.3901 0.33203,0.44727 0.25194,0.11434 0.33941,0.0596 0.45117,0.043 0.22352,-0.0332 0.47365,-0.10806 0.82422,-0.22656 1.00915,-0.34113 4.56846,-1.2185 7.75586,-1.89649 3.53307,-0.75152 6.79478,-2.11403 8.27343,-3.63672 l 2.1836,-2.24804 a 0.5356395,0.5356395 0 0 0 -0.65821,-0.83399 l -3.5,2.08789 a 0.5356395,0.5356395 0 0 0 -0.002,0.002 c -0.93788,0.5598 -1.96156,1.06715 -2.83984,1.42773 -0.30344,0.12457 -0.38449,0.10624 -0.64649,0.18945 0.0672,-0.039 0.0565,-0.0505 0.12891,-0.0898 3.75252,-2.03946 5.2197,-7.12322 4.90625,-11.67187 -0.15672,-2.27433 -0.76389,-4.43729 -1.83789,-6.07618 -0.94102,-1.43596 -2.30496,-2.42327 -3.96485,-2.6582 0.10032,-0.002 0.1852,-0.0293 0.28711,-0.0293 1.68036,0 4.39544,0.72823 5.75391,1.53321 l 2.71484,1.60937 a 0.5356395,0.5356395 0 0 0 0.63086,-0.86133 l -2.36132,-2.10937 c -1.76469,-1.57626 -3.98204,-2.24219 -7.20508,-2.24219 z m 46.92578,1.11523 c -1.74825,-0.082 -3.33744,0.2172 -4.51172,0.99024 -0.30387,0.20004 -0.52373,0.35456 -0.69922,0.5332 -0.0877,0.0893 -0.1809,0.17744 -0.23828,0.37891 -0.0574,0.20147 0.0712,0.56258 0.24414,0.68359 0.17291,0.12101 0.30103,0.13089 0.42774,0.14453 0.1267,0.0136 0.25492,0.0144 0.40429,0.008 0.29875,-0.0132 0.67541,-0.0557 1.1543,-0.12305 1.19666,-0.16827 3.68958,-6.2e-4 5.30078,0.38476 1.23531,0.29548 2.25533,0.50016 3.05078,0.61915 0.79545,0.11898 1.33079,0.17127 1.77149,0.0859 0.11017,-0.0213 0.22053,-0.0505 0.3457,-0.1289 0.12517,-0.0784 0.27684,-0.24672 0.31055,-0.45508 0.0337,-0.20837 -0.0376,-0.37705 -0.10743,-0.48828 -0.0698,-0.11124 -0.14793,-0.18959 -0.23437,-0.26563 -0.34575,-0.30416 -0.87989,-0.58928 -1.71289,-0.9707 -1.84133,-0.84314 -3.75773,-1.31445 -5.50586,-1.39649 z m -141.51172,3.52149 c 0.0339,0.11574 0.0698,0.23526 0.10938,0.42383 0.10437,0.49713 0.21645,1.21511 0.32617,2.08594 0.21944,1.74165 0.42886,4.10167 0.57422,6.64257 0.62953,11.00481 -0.79624,15.76245 -7.7793,25.96094 -6.21348,9.07454 -7.65505,13.58314 -7.82617,24.46484 l -0.14258,9 -5.87891,7.09766 c -13.60126,16.41519 -15.31282,20.72263 -17.15039,43.17969 -1.53175,18.71979 -2.13356,21.29173 -7.54297,32.05273 -1.07785,2.14418 -1.95002,4.09124 -2.49218,5.52344 -0.27109,0.7161 -0.45873,1.29735 -0.55274,1.74414 -0.047,0.2234 -0.0778,0.40554 -0.0566,0.61719 0.0106,0.10582 0.0302,0.23067 0.13281,0.375 0.10257,0.14433 0.3336,0.26562 0.51368,0.26562 0.32257,0 0.52332,-0.14881 0.71289,-0.30664 0.18957,-0.15782 0.37023,-0.35662 0.56445,-0.60156 0.38844,-0.48989 0.82383,-1.16185 1.30273,-1.98438 0.95781,-1.64505 2.08212,-3.88686 3.20313,-6.34374 2.24201,-4.91377 4.46302,-10.65608 5.23437,-14.1836 0.79983,-3.65771 1.87174,-12.63071 2.41016,-20.07617 1.14589,-15.84575 2.94094,-21.46289 9.66211,-30.21289 2.53813,-3.30429 6.00592,-7.92081 7.71484,-10.27539 0.89143,-1.22824 1.61744,-2.09504 2.14844,-2.54492 0.2655,-0.22494 0.47968,-0.33705 0.5957,-0.36719 0.11602,-0.0301 0.11554,-0.0254 0.18164,0.0234 0.13221,0.0977 0.44473,0.66538 0.64649,1.73046 0.20176,1.06509 0.34851,2.59048 0.46679,4.57618 0.0848,1.42435 0.26307,2.70807 0.49219,3.66015 0.11456,0.47604 0.23815,0.86625 0.39258,1.17774 0.0772,0.15574 0.15883,0.29555 0.28711,0.42383 0.12828,0.12827 0.35055,0.2655 0.61719,0.24023 0.0909,-0.009 0.21875,0.0272 0.43164,0.28125 0.21289,0.25408 0.45047,0.69913 0.65429,1.28125 0.40765,1.16423 0.6956,2.87206 0.73633,4.79492 0.0297,1.39946 0.0595,2.2496 0.50196,2.87891 0.22123,0.31465 0.60581,0.51478 0.97461,0.54101 0.36879,0.0262 0.72784,-0.0604 1.14062,-0.1914 0.31583,-0.10024 0.55247,-0.12987 0.71875,-0.11328 0.16628,0.0166 0.27228,0.0616 0.4082,0.18554 0.27185,0.2479 0.60822,0.91062 0.94727,2.07617 0.25689,0.88312 0.56501,1.64616 0.88086,2.20313 0.15792,0.27848 0.31189,0.50513 0.50586,0.6875 0.097,0.0912 0.20542,0.17745 0.36133,0.23437 0.1559,0.0569 0.38407,0.0671 0.57031,-0.0234 -0.18863,0.0917 -0.12504,0.0153 0.0273,0.0742 0.15238,0.0589 0.38449,0.18014 0.65039,0.34961 0.53181,0.33892 1.20863,0.86971 1.86914,1.49023 l 2.21289,2.07813 -3.59375,8.83593 c -4.62256,11.3608 -6.94958,15.05159 -15.42578,24.47852 -3.72478,4.14255 -8.55798,10.54943 -10.81445,14.34765 -4.28036,7.20491 -8.19841,11.07598 -13.25586,13.19532 -2.0571,0.86203 -4.57845,1.28325 -6.89258,1.25 -2.31412,-0.0333 -4.4211,-0.53958 -5.625,-1.38282 -0.47891,-0.33544 -1.14406,-1.14682 -1.72265,-2.14453 -0.5786,-0.9977 -1.09163,-2.18339 -1.38672,-3.27929 -0.61434,-2.28148 -0.83933,-4.20333 -0.48633,-8.00196 0.353,-3.79863 1.29696,-9.44039 3.02734,-19.00195 2.61487,-14.44894 3.13677,-18.87096 4.57618,-38.79102 1.89127,-26.17348 10.52563,-45.97677 32.29882,-73.97656 4.32209,-5.55809 8.4506,-10.45702 11.61719,-13.875 1.5833,-1.70899 2.92842,-3.04938 3.92188,-3.90429 0.49672,-0.42746 0.90922,-0.73314 1.18945,-0.89454 0.055,-0.0317 0.0703,-0.0326 0.11328,-0.0527 z m 44.62109,44.36328 c -0.44508,0.0249 -1.56433,0.74493 -1.17578,0.56445 -0.52087,0.31859 -1.23169,0.77486 -2.08789,1.33594 -1.7124,1.12216 -4.00205,2.66545 -6.45898,4.36524 l -8.60742,5.95507 -3.59375,-2.6914 c -2.13736,-1.60124 -5.84601,-4.48349 -8.22657,-6.39258 -1.20603,-0.96718 -2.11789,-1.61837 -2.71093,-1.93164 -0.14826,-0.0783 -0.27172,-0.13848 -0.42188,-0.17774 -0.0751,-0.0196 -0.15916,-0.0374 -0.2832,-0.0254 -0.12405,0.012 -0.32487,0.0856 -0.44141,0.25586 -0.11653,0.17031 -0.11288,0.34385 -0.0957,0.45118 0.0172,0.10732 0.0484,0.17996 0.082,0.25 0.0672,0.14006 0.1524,0.26783 0.26758,0.41992 0.86233,1.13875 2.07074,2.38207 2.91015,2.91797 0.26396,0.1685 0.44946,0.39852 0.53125,0.59179 0.0818,0.19327 0.0636,0.31195 0.0234,0.37696 -0.17011,0.27524 -0.17182,0.60823 -0.0918,0.875 0.08,0.26676 0.22776,0.50086 0.41602,0.72851 0.37653,0.4553 0.93293,0.88473 1.61133,1.24414 1.09544,0.58036 3.79142,2.79568 5.73437,4.78711 1.63746,1.67831 2.47635,2.67634 3.01172,4.10352 0.53537,1.42718 0.77411,3.3627 1.06836,6.84375 l 0.61914,7.32031 -4.01953,3.36914 c -1.29333,1.08442 -2.17124,1.93243 -2.69922,2.56445 -0.26399,0.31602 -0.44346,0.56634 -0.55078,0.83985 -0.0537,0.13675 -0.10304,0.28976 -0.0606,0.50195 0.0425,0.21219 0.25355,0.43845 0.44336,0.50391 0.37964,0.13092 0.60936,0.0146 0.91407,-0.10157 0.3047,-0.1162 0.66108,-0.29507 1.08398,-0.54297 0.84581,-0.49579 1.95458,-1.2653 3.29688,-2.33203 l 3.4375,-2.73437 2.48632,1.76953 c 1.5996,1.13901 4.35249,2.68625 6.23047,3.50195 1.73806,0.75494 3.21551,1.24141 4.31641,1.43164 0.55045,0.0951 1.00235,0.12656 1.4082,0.0332 0.20293,-0.0467 0.40558,-0.12975 0.57422,-0.29688 0.16864,-0.16712 0.26758,-0.42311 0.26758,-0.65429 0,-0.20719 -0.0767,-0.30676 -0.12891,-0.37891 -0.0522,-0.0722 -0.10149,-0.11995 -0.15429,-0.16797 -0.10562,-0.096 -0.22722,-0.1844 -0.375,-0.2832 -0.29557,-0.19761 -0.69433,-0.43091 -1.18555,-0.69532 -0.98244,-0.52881 -2.32253,-1.17804 -3.79688,-1.83007 -3.38781,-1.49825 -5.61318,-2.99593 -7.10742,-4.94532 -1.49423,-1.94938 -2.29331,-4.38983 -2.72851,-7.87304 -0.2038,-1.63114 -0.36034,-2.81904 -0.32422,-3.76758 0.0361,-0.94854 0.23847,-1.65339 0.79492,-2.47461 1.1129,-1.64244 3.76861,-3.68263 9.20508,-7.84961 1.91631,-1.46883 3.68516,-2.99979 5.0039,-4.29687 0.65937,-0.64855 1.20517,-1.23762 1.60742,-1.74219 0.40226,-0.50457 0.68322,-0.86621 0.75391,-1.35547 0.0753,-0.52153 0.0879,-0.99484 0.0332,-1.38672 -0.0274,-0.19594 -0.0664,-0.37173 -0.16015,-0.55078 -0.0938,-0.17906 -0.32073,-0.42383 -0.64649,-0.42383 z m -4.30078,5.59961 c -0.33511,0.24531 -0.53149,0.43402 -0.89843,0.6875 -2.65113,1.83139 -6.24066,4.55202 -8.03516,6.0918 -1.79115,1.53691 -3.14674,2.32789 -4.14649,2.48632 -0.99974,0.15844 -1.71881,-0.18955 -2.58593,-1.23437 -0.10028,-0.12083 -0.12079,-0.16327 -0.19727,-0.26172 0.24333,0.0484 0.46756,0.0897 0.8418,0.18359 1.11413,0.27963 2.31576,0.10232 3.93164,-0.67968 1.61588,-0.78201 3.70902,-2.16288 6.80859,-4.38672 1.62767,-1.1678 2.97855,-2.04444 4.28125,-2.88672 z m 141.56836,14.93945 1.70899,1.34571 c 0.75678,0.5962 1.45289,1.28313 1.94531,1.88672 0.24621,0.30179 0.44125,0.58385 0.56641,0.81054 0.12515,0.2267 0.16587,0.40796 0.16601,0.41992 0.004,0.3636 0.148,0.64564 0.33984,0.97657 0.19185,0.33092 0.45229,0.69186 0.76758,1.07617 0.63058,0.76862 1.47974,1.62849 2.41797,2.41797 1.41232,1.18838 2.15484,1.96234 2.29688,2.27148 0.071,0.15457 0.0577,0.10128 0.0195,0.16016 -0.0382,0.0589 -0.21308,0.21647 -0.53125,0.39453 -0.39102,0.21882 -0.74137,0.46877 -0.94141,0.875 -0.20003,0.40623 -0.17651,0.89203 -0.006,1.38476 0.3413,0.98547 1.22229,2.24493 2.82031,4.42188 1.91883,2.61395 5.11817,8.76698 7.68555,14.38476 1.28369,2.8089 2.41681,5.49318 3.16992,7.54688 0.37656,1.02685 0.6583,1.89957 0.81446,2.5332 0.0781,0.31682 0.12479,0.57505 0.13867,0.7461 0.0139,0.17105 -0.046,0.25229 0.0254,0.13672 -0.22045,0.35669 -0.1668,0.64924 -0.11914,1.0039 0.0477,0.35466 0.15031,0.76418 0.29492,1.22656 0.28922,0.92478 0.75344,2.05143 1.33203,3.18555 0.85592,1.67774 1.28294,2.71079 1.33594,3.10938 0.0265,0.19929 0.0113,0.12959 0.0391,0.10742 0.0278,-0.0222 -0.0898,0.0391 -0.36133,0.0391 -0.4421,0 -0.83878,0.0274 -1.15429,0.0801 -0.15776,0.0263 -0.29262,0.0556 -0.43164,0.11133 -0.0695,0.0279 -0.1422,0.0576 -0.23438,0.13672 -0.0922,0.0791 -0.23159,0.2673 -0.21094,0.5039 0.0129,0.14722 0.0157,0.1045 0.0274,0.15625 0.0117,0.0518 0.0283,0.11901 0.0488,0.20508 0.0411,0.17214 0.10004,0.41573 0.17578,0.72266 0.15148,0.61384 0.36954,1.48409 0.63672,2.54687 0.53435,2.12557 1.26745,5.02213 2.07226,8.17774 0.96082,3.7673 1.60049,6.68111 1.91211,8.68164 0.15581,1.00026 0.22979,1.77473 0.22461,2.28711 -0.003,0.25618 -0.0285,0.44694 -0.0547,0.54687 -0.0262,0.0999 -0.0534,0.0732 0.043,0.0137 -0.4888,0.3021 -0.55253,0.79162 -0.60937,1.35938 -0.0569,0.56776 -0.0378,1.27984 0.0371,2.13476 0.14978,1.70985 0.53237,3.97926 1.09179,6.56446 1.11884,5.17038 2.94033,11.59298 5.00781,17.14648 0.93156,2.50226 1.71368,4.94767 2.22071,6.85742 0.25351,0.95488 0.4377,1.77612 0.53711,2.39258 0.0497,0.30823 0.0791,0.56552 0.0859,0.75195 0.007,0.18644 -0.0244,0.3123 -0.0117,0.2793 -0.24612,0.64136 -0.15115,1.41237 0.0547,2.31445 0.20583,0.90209 0.56566,1.90512 1.04297,2.82813 0.42984,0.83121 0.76939,1.84637 0.95508,2.78906 0.18569,0.94269 0.20585,1.82503 0.082,2.31836 -0.19372,0.77183 -0.15656,1.82355 0.004,3.00977 0.16046,1.18621 0.4592,2.48428 0.86719,3.64062 l 1.29882,3.68164 -5.80859,4.31445 c -1.6694,1.24055 -3.37345,2.37097 -4.75977,3.1836 -0.69315,0.40631 -1.3075,0.73365 -1.78906,0.95312 -0.48156,0.21948 -0.87503,0.31055 -0.89844,0.31055 -0.0223,0 -0.28597,-0.0705 -0.60937,-0.27734 -0.3234,-0.2069 -0.72363,-0.52603 -1.1543,-0.92578 -0.86134,-0.79952 -1.85003,-1.92287 -2.73437,-3.1543 -1.04306,-1.45244 -1.96648,-2.53139 -2.75196,-3.20703 -0.39273,-0.33782 -0.74661,-0.58146 -1.12109,-0.70899 -0.37448,-0.12753 -0.86668,-0.0942 -1.17187,0.21094 -0.24245,0.24244 -0.39504,0.54102 -0.60547,0.9707 -0.21044,0.42969 -0.44304,0.97239 -0.68946,1.59766 -0.49284,1.25054 -1.03702,2.83166 -1.51953,4.45703 -0.81941,2.76028 -1.32795,4.1999 -2.53906,5.64844 -1.21112,1.44853 -3.19324,2.95189 -6.94922,5.66016 -2.18134,1.57286 -4.24973,3.00827 -5.81836,4.05078 -0.78431,0.52125 -1.4444,0.9446 -1.92578,1.23437 -0.18648,0.11225 -0.31891,0.18322 -0.44531,0.25195 -0.0662,-0.22396 -0.13766,-0.5433 -0.19727,-0.97656 -0.13091,-0.95146 -0.21484,-2.30429 -0.21484,-3.79687 0,-1.58539 -0.11021,-2.98406 -0.30469,-4.01953 -0.0972,-0.51774 -0.2113,-0.94233 -0.36719,-1.28321 -0.0779,-0.17043 -0.16453,-0.32112 -0.29687,-0.45898 -0.13235,-0.13786 -0.34513,-0.27344 -0.59961,-0.27344 -0.40708,0 -0.63733,0.19244 -0.91211,0.41406 -0.27479,0.22163 -0.56455,0.51514 -0.87305,0.8711 -0.61699,0.71191 -1.30112,1.66962 -1.92578,2.72656 l -1.38281,2.33789 -0.13281,-1.36719 c -0.16471,-1.6865 -0.51425,-3.67467 -0.84571,-4.62304 -0.10118,-0.28951 -0.20289,-0.5323 -0.35937,-0.7461 -0.15648,-0.21379 -0.44974,-0.44206 -0.79883,-0.41406 -0.34909,0.028 -0.57126,0.23801 -0.75781,0.46484 -0.18656,0.22684 -0.35671,0.51398 -0.54492,0.89063 -0.75287,1.50661 -1.77345,4.45986 -3.41993,9.55078 -0.72932,2.25508 -1.47695,4.35704 -2.09179,5.91992 -0.30742,0.78144 -0.58382,1.42986 -0.80078,1.88477 -0.0737,0.15443 -0.12798,0.25006 -0.18555,0.35547 -0.0666,-0.06 -0.10729,-0.087 -0.19336,-0.17579 -0.35156,-0.36249 -0.84066,-0.94595 -1.41406,-1.68945 -1.14681,-1.487 -2.63699,-3.61886 -4.18164,-6.02148 -2.92221,-4.54531 -5.21215,-7.77196 -6.91016,-9.71875 -0.849,-0.9734 -1.53528,-1.62869 -2.16211,-1.98828 -0.31342,-0.1798 -0.62645,-0.29952 -0.97266,-0.27344 -0.3462,0.0261 -0.67875,0.25721 -0.85156,0.54492 -0.17164,0.28576 -0.12837,0.41142 -0.13672,0.63281 -0.008,0.22139 -0.002,0.49124 0.0156,0.81641 0.0355,0.65034 0.11782,1.51831 0.24023,2.55078 0.24482,2.06493 0.64915,4.78768 1.1543,7.68359 0.87811,5.03399 1.30063,8.76846 1.27734,11.18946 -0.0116,1.2105 -0.14381,2.09379 -0.33984,2.60156 -0.098,0.25388 -0.20744,0.40785 -0.29492,0.48437 -0.0875,0.0765 -0.14505,0.0977 -0.25977,0.0977 -0.0177,0 -0.27893,-0.0291 -0.60742,-0.0898 -0.32849,-0.0608 -0.7571,-0.14887 -1.25,-0.25977 -0.9858,-0.2218 -2.23102,-0.52987 -3.49219,-0.86719 l -4.60937,-1.23242 a 0.5356395,0.5356395 0 0 0 -0.54688,0.16992 l -3.80469,4.46094 -3.3164,3.88867 -1.84961,-3.13672 c -0.71489,-1.21164 -1.42165,-2.14165 -2.10742,-2.75586 -0.34289,-0.3071 -0.6812,-0.53841 -1.03907,-0.67382 -0.35786,-0.13542 -0.75722,-0.16788 -1.11718,-0.0215 -0.75229,0.30594 -2.04298,0.83054 -2.86719,1.16407 -0.17405,0.0704 -0.2747,0.0694 -0.31055,0.0625 -0.0358,-0.007 -0.038,-0.001 -0.082,-0.0645 -0.088,-0.12601 -0.20983,-0.58527 -0.1875,-1.28711 0.0447,-1.40366 0.54121,-3.72245 1.43555,-6.6289 1.78867,-5.81291 5.14475,-14.02934 9.48242,-22.73438 1.68602,-3.38357 3.15743,-6.51952 4.17188,-8.85742 0.50722,-1.16895 0.90011,-2.13734 1.15234,-2.84766 0.12612,-0.35516 0.21691,-0.64382 0.27148,-0.88086 0.0273,-0.11852 0.0459,-0.22058 0.0508,-0.33789 0.005,-0.1173 0.0547,-0.28706 -0.17968,-0.52148 -0.20399,-0.20398 -0.50489,-0.20549 -0.67188,-0.16211 -0.16699,0.0434 -0.29084,0.11326 -0.42383,0.19922 -0.26596,0.17192 -0.5585,0.42275 -0.91015,0.75586 -0.70331,0.66621 -1.6232,1.6622 -2.71485,2.91797 -2.18328,2.51153 -5.03894,6.05205 -8.03515,9.93359 -5.99243,7.76309 -12.53636,16.86445 -15.38086,21.82617 -0.49915,0.87068 -1.04084,1.66407 -1.4961,2.22266 -0.19448,0.23863 -0.35862,0.40575 -0.50195,0.54101 -0.0712,-0.26033 -0.14493,-0.61509 -0.20703,-1.0957 -0.13746,-1.06392 -0.22656,-2.56355 -0.22656,-4.21094 0,-1.7231 -0.099,-3.19516 -0.27149,-4.23242 -0.0862,-0.51863 -0.18255,-0.9207 -0.33398,-1.24414 -0.0757,-0.16172 -0.15634,-0.31755 -0.34961,-0.45312 -0.19327,-0.13558 -0.56906,-0.14901 -0.77539,-0.0215 -0.19423,0.12004 -0.277,0.24003 -0.39063,0.39453 -0.11362,0.15451 -0.23245,0.34146 -0.36328,0.56446 -0.26166,0.44599 -0.5668,1.03393 -0.90429,1.73242 -0.675,1.39698 -1.4732,3.23353 -2.23829,5.18359 -0.89678,2.28577 -1.65262,3.91891 -2.20898,4.82031 -0.20361,0.3299 -0.32354,0.43632 -0.43555,0.55079 -0.0709,-0.17871 -0.15849,-0.38966 -0.29101,-0.84961 -0.1739,-0.60357 -0.38052,-1.40142 -0.60352,-2.33008 -0.446,-1.85733 -0.95957,-4.24306 -1.43164,-6.69922 -1.31425,-6.83805 -2.18345,-11.03529 -2.8457,-13.44336 -0.33113,-1.20403 -0.59033,-1.94784 -0.91016,-2.43555 -0.15991,-0.24385 -0.35725,-0.47428 -0.69922,-0.53711 -0.34196,-0.0628 -0.64999,0.13283 -0.82226,0.32227 -0.2103,0.23125 -0.22699,0.3831 -0.3086,0.63672 -0.0816,0.25361 -0.1655,0.57604 -0.25781,0.96679 -0.18462,0.78152 -0.3954,1.83605 -0.62109,3.09961 -0.45138,2.52713 -0.96267,5.88234 -1.42578,9.46485 -1.00466,7.77175 -1.80794,12.89029 -2.56836,16.02539 -0.38022,1.56754 -0.75569,2.64018 -1.10352,3.26758 -0.34783,0.6274 -0.57916,0.74023 -0.76953,0.74023 -0.11922,0 -0.75017,-0.19826 -1.54101,-0.63672 -0.79085,-0.43845 -1.7962,-1.08773 -2.95118,-1.89844 -2.30995,-1.6214 -5.21773,-3.88649 -8.27734,-6.43164 -6.11922,-5.09028 -12.86299,-11.31016 -16.73633,-15.73047 -2.11097,-2.40907 -3.74002,-4.20473 -4.96484,-5.38671 -0.61241,-0.591 -1.12161,-1.0283 -1.56446,-1.32227 -0.44284,-0.29396 -0.84048,-0.51932 -1.33789,-0.36914 -0.2487,0.0751 -0.45575,0.28042 -0.55859,0.49023 -0.10284,0.20982 -0.13924,0.42689 -0.15234,0.66407 -0.0262,0.47434 0.0484,1.05061 0.19726,1.78906 0.29769,1.47689 0.9084,3.58073 1.78125,6.36523 1.23757,3.94794 1.84689,6.62833 1.85938,8.38672 0.0125,1.75839 -0.4497,2.52043 -1.51368,3.08985 -1.12439,0.60175 -2.71623,0.58768 -5.11328,-0.29493 -2.39704,-0.8826 -5.53973,-2.62297 -9.6289,-5.30859 -6.5825,-4.32315 -14.23485,-11.94961 -17.38086,-17.27539 -0.60165,-1.01851 -1.13797,-1.76801 -1.62891,-2.27344 -0.24547,-0.25271 -0.47837,-0.44712 -0.73242,-0.58008 -0.25405,-0.13295 -0.56072,-0.21166 -0.86719,-0.11718 -0.30647,0.0945 -0.52296,0.34552 -0.64258,0.60547 -0.11961,0.25994 -0.17607,0.55128 -0.20312,0.89257 -0.0541,0.68259 0.0199,1.57529 0.2207,2.71875 0.69708,3.9706 1.15704,7.27438 1.35352,9.56446 0.0982,1.14504 0.12896,2.04063 0.0957,2.61132 -0.008,0.13289 -0.0235,0.17179 -0.0371,0.26563 -0.0981,-0.0491 -0.12339,-0.018 -0.40039,-0.28711 -0.45163,-0.43871 -1.131,-1.23428 -2.14844,-2.54687 -2.03487,-2.62518 -5.43744,-7.32777 -11.34179,-15.56836 -4.30486,-6.00822 -7.57512,-10.52636 -9.9375,-13.59766 -1.18119,-1.53565 -2.13468,-2.70767 -2.88672,-3.5332 -0.37602,-0.41277 -0.70138,-0.74005 -0.99024,-0.98633 -0.28885,-0.24629 -0.52383,-0.42176 -0.83398,-0.50781 -0.15508,-0.043 -0.35182,-0.0609 -0.54688,0.0176 -0.19505,0.0785 -0.34137,0.24866 -0.41406,0.4043 -0.14538,0.31129 -0.12803,0.59361 -0.0918,0.94531 0.0725,0.70342 0.32967,1.68448 0.75195,3.01758 0.84456,2.6662 2.35903,6.69569 4.43359,12.08594 3.30008,8.57446 5.10167,13.44984 5.79883,16.10937 0.34858,1.32977 0.38428,2.11377 0.30664,2.39063 -0.0388,0.13843 -0.0586,0.14523 -0.10937,0.17383 -0.0508,0.0286 -0.17873,0.0644 -0.39258,0.0644 -0.66287,0 -1.85229,-0.35192 -3.40039,-1.0918 -1.54811,-0.73988 -3.47305,-1.85291 -5.72852,-3.31445 -4.51093,-2.92308 -10.34767,-7.24105 -17.24414,-12.7832 -1.05364,-0.84674 -2.06997,-1.55713 -2.88086,-2.03125 -0.40544,-0.23707 -0.75491,-0.41435 -1.0625,-0.52539 -0.15379,-0.0555 -0.29478,-0.0965 -0.45703,-0.10938 -0.16225,-0.0129 -0.39918,-0.007 -0.60352,0.19727 -0.15761,0.15761 -0.17537,0.30434 -0.1875,0.41015 -0.0121,0.10582 -0.006,0.19449 0.004,0.28711 0.02,0.18524 0.0638,0.38647 0.12891,0.62696 0.13027,0.48096 0.34557,1.10799 0.63086,1.85742 0.57057,1.49885 1.42264,3.47752 2.42578,5.58984 2.0905,4.40201 3.03328,7.15629 2.93554,8.37891 -0.0489,0.61131 -0.20077,0.79569 -0.66601,0.94922 -0.46524,0.15352 -1.31868,0.14622 -2.49024,-0.0664 -2.70203,-0.4904 -8.48889,-2.95214 -14.5957,-6.08398 -6.1068,-3.13185 -12.60017,-6.94004 -16.95312,-10.11524 -2.34415,-1.7099 -4.51399,-3.14472 -6.13868,-4.09179 -0.81234,-0.47354 -1.4835,-0.82473 -2.00195,-1.03321 -0.25923,-0.10424 -0.47332,-0.17758 -0.70117,-0.20312 -0.11392,-0.0128 -0.2357,-0.0193 -0.39258,0.0332 -0.15688,0.0525 -0.35335,0.21825 -0.41797,0.41211 -0.12627,0.37879 -0.0608,0.66125 0.008,1.0957 0.0686,0.43445 0.18759,0.96709 0.34765,1.57617 0.32012,1.21816 0.80545,2.73617 1.38281,4.2793 0.56853,1.51952 1.08583,3.0098 1.45899,4.17969 0.18658,0.58494 0.3375,1.0911 0.43945,1.47461 0.10195,0.38351 0.14649,0.69919 0.14649,0.67383 0,0.18857 0.001,0.19486 -0.26758,0.28906 -0.26889,0.0942 -0.80288,0.13344 -1.51563,0.043 -1.42548,-0.18094 -3.55859,-0.8282 -6.10547,-1.91992 -3.58171,-1.5353 -5.26705,-2.32534 -5.8789,-3.33985 -0.30593,-0.50725 -0.41824,-1.12519 -0.375,-2.09765 0.0432,-0.97247 0.24945,-2.26626 0.52929,-4.00391 0.37244,-2.31261 0.54963,-3.9041 0.51172,-5.04883 -0.019,-0.57236 -0.0911,-1.03859 -0.24609,-1.43359 -0.155,-0.39501 -0.41215,-0.7191 -0.74023,-0.92188 -0.13962,-0.0863 -0.31924,-0.32925 -0.44532,-0.78711 -0.12607,-0.45786 -0.19341,-1.09879 -0.1914,-1.86523 0.004,-1.53289 0.28025,-3.5662 0.77539,-5.7793 0.99027,-4.4262 2.85386,-9.59364 5.03125,-13.1582 1.66103,-2.71924 2.54363,-4.20282 2.79687,-5.16797 0.0633,-0.24129 0.10534,-0.46881 0.0176,-0.73633 -0.0878,-0.26752 -0.38628,-0.49363 -0.63086,-0.53906 -0.48917,-0.0909 -0.87292,0.0804 -1.42187,0.29102 -0.24337,0.0934 -0.42576,0.14415 -0.57422,0.17773 0.008,-0.0222 0.001,-0.0145 0.0117,-0.0391 0.31418,-0.74704 1.51457,-2.46493 3.61914,-5.1211 2.00324,-2.52828 3.1361,-4.21592 3.40039,-5.4375 0.0661,-0.30539 0.081,-0.60443 -0.0332,-0.89648 -0.11415,-0.29206 -0.38847,-0.52686 -0.67578,-0.61914 -0.28115,-0.0903 -0.57409,-0.0975 -0.89453,-0.0527 0.17518,-0.22686 0.25065,-0.35786 0.50781,-0.6582 1.06563,-1.24455 2.7902,-3.06667 4.89844,-5.14062 4.26214,-4.19283 9.12728,-9.95321 10.92188,-12.98829 0.68322,-1.15549 1.06178,-1.63955 1.47265,-2.20312 -1.73937,8.68087 -2.63023,15.59029 -2.54687,20.78516 0.0869,5.41252 1.16539,9.12632 3.38476,11.3457 4.25607,4.25607 11.24589,4.47894 18.44336,0.78516 2.3866,-1.22482 4.04786,-2.29564 5.73828,-4.04297 1.69043,-1.74734 3.40484,-4.14713 6.00782,-8.07032 3.3046,-4.98069 8.82435,-12.18019 12.20312,-15.92382 6.68476,-7.40664 11.67324,-16.04517 15.36133,-26.58399 0.62266,-1.77927 1.27036,-3.49268 1.81055,-4.8125 0.27009,-0.65991 0.5143,-1.22305 0.71093,-1.64062 0.19663,-0.41758 0.39125,-0.72653 0.38282,-0.7168 -0.0385,0.0443 -0.0242,0.004 0.11914,-0.002 0.14332,-0.006 0.3786,0.0216 0.65625,0.0976 0.55529,0.15206 1.28343,0.48355 1.99414,0.94922 1.58275,1.03708 4.60897,1.72746 7.83984,2.10938 3.23087,0.38192 6.60171,0.41895 8.79102,-0.1211 0.74057,-0.18268 1.67964,-0.66933 2.71679,-1.31836 1.03716,-0.64903 2.14415,-1.46092 3.0918,-2.29297 1.55383,-1.36428 2.42466,-2.0215 3.96094,-2.41015 1.53628,-0.38866 3.80024,-0.48527 7.96289,-0.56055 6.79042,-0.1228 10.5505,0.36902 16.25,2.12109 10.6882,3.28565 18.37954,3.02975 26.82812,-0.92382 5.8974,-2.75973 6.93609,-2.95326 13.11133,-2.43555 8.2162,0.68881 19.02583,-0.97009 24.68164,-3.85547 4.26541,-2.17605 8.61936,-6.4221 12.09375,-11.26953 3.47439,-4.84743 6.06551,-10.28952 6.68946,-14.94141 0.1452,-1.08256 0.36516,-2.01333 0.58203,-2.59961 0.0631,-0.17058 0.10783,-0.22688 0.16211,-0.32812 0.12079,0.11641 0.21095,0.18426 0.38867,0.41406 0.28624,0.37012 0.62519,0.86839 0.99219,1.45899 0.73399,1.18118 1.58493,2.73079 2.43164,4.41015 1.69341,3.35874 3.36982,7.25251 4.08203,9.75196 0.81904,2.87439 1.94939,9.65666 2.47265,14.92578 1.1239,11.31737 6.19802,31.18453 9.89258,38.55273 3.92188,7.82156 9.15384,13.45642 14.07227,16.00977 2.45921,1.27667 4.85849,1.78973 6.97851,1.33984 2.12002,-0.44989 3.90997,-1.89006 5.06446,-4.29883 0.63357,-1.32191 0.94374,-2.58533 0.82812,-4.8125 -0.11562,-2.22716 -0.62497,-5.46589 -1.58594,-10.98828 -3.0818,-17.71029 -2.93181,-16.20812 -4.06054,-41.01367 -0.28169,-6.19058 -0.60616,-12.14699 -0.90235,-16.75781 -0.14809,-2.30542 -0.28878,-4.27497 -0.41406,-5.77149 -0.12528,-1.49652 -0.22614,-2.48344 -0.32812,-2.9707 z M 563.32422,499.8418 c -0.57252,-0.008 -1.0391,-0.006 -1.37695,0.01 -0.16893,0.008 -0.30186,0.0177 -0.42383,0.0371 -0.061,0.01 -0.11506,0.0179 -0.20117,0.0508 -0.0431,0.0165 -0.0975,0.0368 -0.17579,0.10157 -0.0783,0.0648 -0.2025,0.22269 -0.20117,0.42968 0.002,0.30979 0.13267,0.3802 0.20117,0.44922 0.0685,0.069 0.13404,0.11713 0.20704,0.16797 0.14599,0.10169 0.32324,0.20453 0.53906,0.31836 0.43163,0.22767 1.00718,0.48953 1.64062,0.74414 2.88763,1.16064 5.8924,1.19432 8.64844,0.084 0.19816,-0.0798 0.3628,-0.1562 0.51172,-0.25977 0.14892,-0.10357 0.33893,-0.24643 0.375,-0.56445 0.018,-0.15901 -0.0339,-0.33091 -0.10938,-0.44336 -0.0755,-0.11245 -0.16253,-0.17968 -0.24414,-0.23242 -0.16322,-0.10549 -0.32566,-0.16139 -0.52539,-0.2168 -0.7989,-0.22165 -2.20548,-0.36122 -4.42773,-0.49414 -1.7258,-0.10321 -3.29247,-0.16482 -4.4375,-0.18164 z m 256.67383,97.30859 c -0.97804,0.51838 0.0958,-0.55029 -0.93946,0.66406 -0.28292,0.3267 -0.63402,0.77826 -1.04297,1.33008 -0.81788,1.10365 -1.85923,2.60402 -2.94335,4.23242 -2.16825,3.25681 -4.49832,6.99725 -5.53907,9.06836 -0.49026,0.97563 -0.82947,1.74152 -0.99609,2.25196 -0.0417,0.1276 -0.0735,0.23973 -0.0937,0.35156 -0.0203,0.11182 -0.0701,0.20392 0.0273,0.44726 0.0487,0.12167 0.20723,0.30147 0.39844,0.34766 0.19121,0.0462 0.32275,-0.008 0.4043,-0.0469 0.16309,-0.0785 0.22735,-0.15371 0.3125,-0.24415 0.47175,-0.50105 1.30414,-1.74037 2.42773,-3.45898 1.12359,-1.71861 2.4786,-3.86065 3.77149,-5.95508 1.29288,-2.09443 2.52373,-4.13973 3.40429,-5.66797 0.44028,-0.76411 0.7928,-1.39802 1.02539,-1.85351 0.1163,-0.22775 0.20068,-0.40674 0.25977,-0.56055 0.0295,-0.0769 0.0566,-0.13643 0.0723,-0.25391 0.008,-0.0587 0.026,-0.13545 -0.0313,-0.29101 -0.0573,-0.15557 -0.33164,-0.36133 -0.51757,-0.36133 z m -10.70899,0.82813 c -0.0846,0.002 -0.45052,0.0801 -0.54883,0.11718 -0.70187,0.3573 -1.93018,1.32497 -3.57031,2.69532 -1.64013,1.37034 -3.62084,3.11394 -5.55273,4.9082 -1.93267,1.79498 -3.57489,3.42691 -4.67774,4.62305 -0.55142,0.59806 -0.96543,1.08214 -1.22851,1.45117 -0.13155,0.18451 -0.2281,0.3219 -0.29492,0.52539 -0.0334,0.10174 -0.0892,0.24427 0.008,0.47461 0.0971,0.23034 0.40072,0.36021 0.55469,0.36133 0.34549,0.002 0.4406,-0.10914 0.63867,-0.22461 0.19806,-0.11548 0.42775,-0.27183 0.69922,-0.46875 0.54293,-0.39385 1.24505,-0.95048 2.0664,-1.63672 1.64271,-1.37249 3.76012,-3.25805 5.9668,-5.33399 2.20609,-2.07538 3.98616,-3.84588 5.08984,-5.04297 0.55185,-0.59854 0.92556,-1.03515 1.13867,-1.36718 0.0533,-0.083 0.0978,-0.15818 0.13672,-0.26172 0.0389,-0.10354 0.13968,-0.29006 -0.0469,-0.57227 -0.0933,-0.1411 -0.26332,-0.22695 -0.37891,-0.24804 z m -400.45508,7.17187 c -0.68485,0.31168 -0.63545,-0.11165 -0.7246,0.70508 -0.009,0.29968 0.0856,0.51788 0.21484,0.79492 0.25849,0.55408 0.73013,1.28684 1.42383,2.25195 1.38739,1.93022 3.66099,4.74714 6.76562,8.38086 1.82477,2.13574 3.54422,4.07804 4.84961,5.49024 0.6527,0.7061 1.20095,1.27903 1.61328,1.68359 0.20617,0.20228 0.37616,0.36043 0.51953,0.48047 0.0717,0.06 0.1356,0.10982 0.20703,0.15625 0.0714,0.0464 0.10162,0.12695 0.38086,0.12695 0.0547,0 0.11955,0.001 0.2168,-0.0215 0.0973,-0.0229 0.24985,-0.0815 0.36328,-0.22852 0.11343,-0.14698 0.13707,-0.335 0.125,-0.45703 -0.0121,-0.12203 -0.0446,-0.20902 -0.082,-0.29492 -0.14978,-0.34359 -0.43385,-0.73682 -1.02344,-1.51172 -1.17918,-1.54979 -3.56071,-4.49063 -8.14843,-10.14062 -1.61549,-1.98956 -3.13223,-3.79817 -4.27735,-5.11329 -0.57256,-0.65755 -1.05029,-1.18968 -1.4082,-1.5664 -0.17896,-0.18836 -0.32601,-0.33685 -0.44922,-0.44922 -0.0616,-0.0562 -0.11694,-0.1031 -0.17969,-0.14844 -0.0627,-0.0453 -0.0603,-0.13867 -0.38672,-0.13867 z m 418.74805,0.98047 c -0.34433,0.0731 -1.10654,0.77121 -0.85351,0.54883 -0.39983,0.36716 -0.92592,0.92296 -1.56055,1.65429 -0.84875,0.97808 -1.61894,1.9778 -2.18555,2.81641 -0.2833,0.41931 -0.51619,0.79768 -0.68554,1.12305 -0.16936,0.32536 -0.29884,0.5525 -0.30079,0.91015 -6.5e-4,0.13955 0.0134,0.31525 0.15821,0.49414 0.14479,0.1789 0.41495,0.25125 0.58203,0.23438 0.33415,-0.0337 0.48818,-0.17743 0.69531,-0.33984 0.41426,-0.32483 0.90408,-0.84322 1.45117,-1.49415 1.09418,-1.30184 2.36806,-3.10174 3.16797,-4.64648 0.0793,-0.15323 0.13762,-0.28057 0.17969,-0.41211 0.0421,-0.13154 0.13802,-0.26668 -0.0137,-0.57226 -0.0571,-0.115 -0.18454,-0.23547 -0.31446,-0.28516 -0.12992,-0.0497 -0.24088,-0.0441 -0.32031,-0.0312 z m -426.69726,1.33008 c -0.77014,0.50894 -0.75322,-0.009 -0.59961,0.89258 0.0258,0.18876 0.0746,0.40968 0.14453,0.67968 0.13976,0.54001 0.36506,1.26739 0.66015,2.14453 0.5902,1.75428 1.45881,4.10069 2.47071,6.62891 1.01142,2.52701 1.9731,4.78206 2.71093,6.38867 0.36892,0.80331 0.68155,1.44227 0.92383,1.88477 0.12114,0.22125 0.2194,0.3907 0.32227,0.5293 0.0514,0.0693 0.0952,0.12987 0.19922,0.20898 0.052,0.0395 0.12098,0.0941 0.26367,0.11914 0.14268,0.0251 0.37794,-0.0381 0.49609,-0.15625 0.23623,-0.23623 0.17564,-0.36842 0.17578,-0.46289 1.5e-4,-0.0945 -0.0106,-0.17527 -0.0254,-0.26563 -0.0295,-0.18071 -0.0805,-0.396 -0.15234,-0.66211 -0.14372,-0.5322 -0.37128,-1.25673 -0.66602,-2.13281 -0.58948,-1.75214 -1.45029,-4.10706 -2.44336,-6.65234 -0.99352,-2.54646 -1.94473,-4.81107 -2.68359,-6.41992 -0.36943,-0.80443 -0.68421,-1.443 -0.93359,-1.88477 -0.12469,-0.22088 -0.22798,-0.38789 -0.3418,-0.5293 -0.0569,-0.0707 -0.10561,-0.13735 -0.22852,-0.21484 -0.0614,-0.0387 -0.15031,-0.0877 -0.29296,-0.0957 z m -14.14844,0.81445 c -0.74547,0.40391 -0.61681,0.22409 -0.5293,0.75391 0.0221,0.0547 0.20313,0.42448 0.27149,0.55468 0.17618,0.31919 0.43737,0.7711 0.7871,1.3711 0.79175,1.35834 2.20199,3.94972 3.11719,5.72656 0.46836,0.90933 0.94871,1.73293 1.35742,2.3457 0.20436,0.30639 0.39051,0.55912 0.56055,0.75391 0.085,0.0974 0.16444,0.17981 0.25977,0.25586 0.0953,0.0761 0.19285,0.18359 0.46679,0.18359 0.1333,0 0.31491,-0.061 0.42969,-0.17382 0.11478,-0.11278 0.15794,-0.23783 0.17774,-0.33204 0.0396,-0.18841 0.0147,-0.31053 -0.0117,-0.44531 -0.0529,-0.26955 -0.16033,-0.57189 -0.31055,-0.94141 -0.30043,-0.73902 -0.77832,-1.71389 -1.33984,-2.76562 -1.12306,-2.10345 -2.55818,-4.47635 -3.60743,-5.72266 -0.40432,-0.48025 -0.70941,-0.83844 -0.92578,-1.08007 -0.10818,-0.12082 -0.19011,-0.21071 -0.27343,-0.28711 -0.0417,-0.0382 -0.0734,-0.0715 -0.16602,-0.12305 -0.0463,-0.0258 -0.10629,-0.0697 -0.26367,-0.0742 z"
       inkscape:label="path16246" />
  </g>
</svg>
