<?xml version="1.0" encoding="UTF-8" standalone="no"?>
<!-- Created with Inkscape (http://www.inkscape.org/) -->

<svg
   width="350mm"
   height="350mm"
   viewBox="0 0 350 350.00001"
   version="1.1"
   id="svg3070"
   xml:space="preserve"
   inkscape:version="1.2.2 (b0a8486541, 2022-12-01)"
   sodipodi:docname="hs-full-silhouette-square.svg"
   xmlns:inkscape="http://www.inkscape.org/namespaces/inkscape"
   xmlns:sodipodi="http://sodipodi.sourceforge.net/DTD/sodipodi-0.dtd"
   xmlns="http://www.w3.org/2000/svg"
   xmlns:svg="http://www.w3.org/2000/svg"><sodipodi:namedview
     id="namedview3072"
     pagecolor="#ffffff"
     bordercolor="#000000"
     borderopacity="0.25"
     inkscape:showpageshadow="2"
     inkscape:pageopacity="0.0"
     inkscape:pagecheckerboard="0"
     inkscape:deskcolor="#d1d1d1"
     inkscape:document-units="mm"
     showgrid="false"
     inkscape:zoom="0.63055813"
     inkscape:cx="-1018.1456"
     inkscape:cy="460.70297"
     inkscape:window-width="3374"
     inkscape:window-height="1371"
     inkscape:window-x="1986"
     inkscape:window-y="32"
     inkscape:window-maximized="1"
     inkscape:current-layer="layer1" /><defs
     id="defs3067" /><g
     inkscape:label="Layer 1"
     inkscape:groupmode="layer"
     id="layer1"
     transform="translate(-50.914257,-23.79317)"><path
       style="display:inline;fill:#666666;fill-opacity:1;stroke-width:0.264583"
       d="m 218.63709,369.00538 c 0.61618,-0.61619 0.52499,-0.83921 -0.66943,-1.63727 -1.65797,-1.10779 -3.03662,-2.38001 -2.81707,-2.59956 0.27959,-0.27958 3.09441,0.5439 5.88665,1.7222 2.96277,1.25024 3.62421,1.41049 4.47955,1.08529 0.5086,-0.19338 0.67982,-0.44672 0.67982,-1.00584 0,-0.41108 -0.13971,-0.88709 -0.31046,-1.05785 -0.23757,-0.23757 0.002,-0.27345 1.02064,-0.15283 1.1898,0.14092 1.37725,0.0918 1.76568,-0.46278 0.23901,-0.34123 0.43457,-0.71022 0.43457,-0.82 0,-0.10974 -0.60601,-0.67857 -1.34668,-1.26402 l -1.34668,-1.06449 h 1.55239 c 1.70032,0 2.72847,-0.497 2.72847,-1.31893 0,-0.35747 -0.4025,-0.64574 -1.44776,-1.03682 -1.96115,-0.73374 -6.31491,-1.82131 -8.15861,-2.038 -1.4208,-0.16701 -1.50614,-0.21797 -1.50614,-0.8994 0,-0.57743 -0.33176,-0.97113 -1.65365,-1.96239 l -1.65364,-1.24002 -1.71979,0.16782 c -0.94589,0.0923 -2.43634,0.34446 -3.31212,0.56036 -1.21719,0.30009 -1.77226,0.32417 -2.35603,0.10221 l -0.76369,-0.29035 0.17903,-3.89358 c 0.16878,-3.67078 0.49069,-6.92735 0.85064,-8.60563 0.1445,-0.67368 0.23762,-0.72737 0.99486,-0.57356 2.08172,0.42283 2.84318,0.72353 4.43018,1.7495 2.17792,1.40798 3.06382,1.67042 3.86549,1.14514 0.97014,-0.63566 0.81994,-1.8429 -0.36422,-2.92756 -0.53558,-0.49056 -0.88944,-0.97628 -0.78637,-1.07934 0.21866,-0.21868 6.87254,-0.17137 10.42628,0.0741 1.77576,0.12266 2.55718,0.0789 2.84428,-0.15938 0.57833,-0.47998 0.48369,-1.20034 -0.19947,-1.51823 -0.5772,-0.26861 -0.57921,-0.2825 -0.0661,-0.45641 1.01427,-0.3438 1.32346,-0.59574 1.40549,-1.14533 0.0675,-0.45233 -0.0981,-0.58711 -0.90823,-0.73908 -0.54493,-0.10224 -1.27585,-0.49348 -1.62426,-0.8694 -0.42918,-0.4631 -1.12907,-0.78465 -2.17013,-0.997 -0.84516,-0.17238 -2.29452,-0.64471 -3.2208,-1.0496 -1.51441,-0.66199 -1.95084,-0.73084 -4.33,-0.68326 -1.4552,0.0291 -3.43919,0.12168 -4.40887,0.20574 -1.13854,0.0987 -1.97133,0.0413 -2.35108,-0.16193 -0.54306,-0.29062 -0.5766,-0.44913 -0.43838,-2.07208 0.2534,-2.97553 1.97423,-9.95236 3.89219,-15.78028 1.95325,-5.93514 2.63451,-8.4777 2.64078,-9.85573 0.002,-0.47295 0.0571,-0.8599 0.1222,-0.8599 0.0651,0 0.65595,0.28588 1.31308,0.63529 0.65714,0.34938 1.8243,0.72131 2.59369,0.82648 0.99962,0.13663 1.6581,0.4182 2.30705,0.9865 0.8853,0.77531 0.96211,0.79192 3.05392,0.66143 1.52056,-0.0949 2.64359,-0.3457 3.85435,-0.86093 0.93972,-0.39989 2.45976,-0.99578 3.37786,-1.32421 0.9181,-0.3284 1.93013,-0.8256 2.24896,-1.10485 0.31882,-0.27926 1.08321,-0.84365 1.69863,-1.25423 1.93001,-1.28751 3.80074,-3.86514 4.85377,-6.68782 0.70824,-1.89844 1.39226,-2.99016 1.87349,-2.99016 0.732,0 -0.31139,3.28517 -1.54717,4.87135 -0.87282,1.1203 -0.99621,1.46635 -1.07884,3.02546 -0.0718,1.35509 -0.0242,1.6691 0.20694,1.36361 0.34543,-0.45665 0.13339,4.47931 -0.28855,6.71684 -0.30589,1.62214 -0.28804,5.62454 0.0208,4.66024 0.11651,-0.3638 0.22371,-1.18732 0.23821,-1.83004 0.0343,-1.52128 0.24439,-1.27238 0.55934,0.66278 0.23315,1.43253 0.20228,1.6265 -0.40487,2.54397 -0.36149,0.54626 -0.65726,1.12183 -0.65726,1.27907 0,0.15722 -0.10085,0.22355 -0.2241,0.14738 -0.12325,-0.0762 -0.56973,0.24421 -0.99219,0.71199 l -0.76809,0.85048 0.8599,-0.77711 c 0.97227,-0.87866 1.11035,-0.66466 0.33073,0.51252 -0.28913,0.43657 -0.52568,0.91282 -0.52568,1.05834 0,0.14552 0.20757,-0.041 0.46128,-0.4145 0.97621,-1.43714 2.54744,-3.12571 2.77668,-2.98402 0.51753,0.31985 -0.12026,2.88067 -1.14595,4.60113 -1.11215,1.8655 -1.51887,3.67424 -1.06823,4.75051 0.24777,0.59177 0.26794,0.54994 0.19141,-0.39687 -0.047,-0.58209 0.0353,-1.41552 0.18291,-1.85209 0.36298,-1.0732 1.7916,-2.86578 2.06558,-2.59178 0.12132,0.12132 0.25404,1.18732 0.29493,2.36893 0.0592,1.7096 -0.016,2.2489 -0.36818,2.6408 -0.74182,0.82553 -1.29434,2.76379 -1.42255,4.99039 -0.12513,2.17318 -0.0436,2.18929 0.66977,0.13229 0.2271,-0.65484 0.54474,-1.16568 0.70586,-1.13517 0.16113,0.0305 0.3676,-0.38624 0.45882,-0.92604 0.0912,-0.53983 0.39433,-1.27625 0.67355,-1.63648 l 0.50769,-0.65495 0.21845,0.78725 c 0.42681,1.53815 0.15138,4.17189 -0.69032,6.60109 -0.85296,2.46168 -1.06328,3.67085 -0.44432,2.55439 0.33984,-0.61299 0.35514,-0.5991 0.65589,0.59531 0.16937,0.6726 0.34359,1.22293 0.38716,1.22293 0.0436,0 0.027,-0.72157 -0.0368,-1.60351 -0.086,-1.18837 0.0111,-1.88539 0.37495,-2.69224 l 0.49094,-1.0887 0.30566,2.22922 c 0.30101,2.19527 0.78492,3.88273 1.04023,3.62741 0.0717,-0.0717 -0.003,-0.75129 -0.16553,-1.51016 -0.16275,-0.75888 -0.22476,-1.45095 -0.13778,-1.53792 0.087,-0.087 0.15813,0.076 0.15813,0.36221 0,0.5451 0.46352,1.15536 0.87751,1.15536 0.13338,0 0.18561,-0.29766 0.11607,-0.66146 -0.0695,-0.3638 -0.0378,-0.66146 0.0706,-0.66146 0.31262,0 0.47605,1.29458 0.17605,1.39457 -0.15622,0.0521 -0.0146,0.60219 0.33538,1.30302 0.59651,1.19441 0.62613,1.90338 0.15255,3.65241 -0.17394,0.64238 -0.15937,0.63857 0.50522,-0.13229 0.57275,-0.66434 0.72621,-0.72903 0.94121,-0.39687 0.14129,0.21828 0.26054,0.57546 0.26499,0.79375 0.004,0.21828 0.12814,0.57546 0.27485,0.79375 0.18583,0.27649 0.21278,-0.0366 0.0889,-1.03214 -0.12799,-1.02812 -0.0945,-1.37748 0.11938,-1.24532 0.19078,0.11793 0.40498,-0.24402 0.59795,-1.01036 0.16537,-0.65675 0.45221,-1.31985 0.63742,-1.47357 0.45654,-0.37889 0.7292,1.10257 0.54598,2.96648 -0.12643,1.28611 -0.1136,1.32921 0.16026,0.53813 0.4358,-1.2588 0.74483,-1.05179 0.78995,0.52917 0.0218,0.76399 0.0892,1.06164 0.14987,0.66146 0.14497,-0.957 0.40569,-0.91784 1.15335,0.17333 0.67862,0.99036 1.77597,1.74545 2.53442,1.74392 0.34915,0 0.24137,-0.15158 -0.37815,-0.5293 -1.26795,-0.77306 -1.42445,-1.44433 -0.78875,-3.38323 0.29624,-0.9035 0.61757,-1.64274 0.71407,-1.64274 0.0965,0 0.4281,0.50601 0.73688,1.12448 l 0.56143,1.12448 -0.15639,-1.05834 c -0.17146,-1.1603 -0.12811,-1.15339 1.45186,0.23104 0.32685,0.28638 0.67578,0.43918 0.7754,0.33956 0.0996,-0.0996 0.51681,0.14047 0.92709,0.53354 0.41027,0.39306 0.74595,0.58033 0.74595,0.41619 0,-0.16415 -0.11991,-0.37259 -0.26647,-0.46316 -0.14655,-0.0906 -0.45865,-0.54409 -0.69354,-1.00779 l -0.42707,-0.84313 0.82583,0.77711 c 1.00426,0.94501 1.07016,0.69855 0.13948,-0.52165 -0.90824,-1.19076 -0.70561,-1.77467 0.26458,-0.76245 l 0.73955,0.77158 -0.37745,-0.7519 c -0.34343,-0.68413 -0.31785,-0.90357 0.2838,-2.43469 0.36369,-0.92554 0.75934,-1.62219 0.87922,-1.54808 0.11988,0.0741 0.11521,-0.13999 -0.0104,-0.47575 -0.12559,-0.33573 -0.31542,-1.31923 -0.42183,-2.18553 -0.18153,-1.47786 -0.16503,-1.55152 0.26731,-1.19272 0.42302,0.35108 0.44241,0.32838 0.23649,-0.27694 -0.12336,-0.36266 -0.22412,-0.95705 -0.2239,-1.32085 0.002,-3.94031 0.39666,-5.12059 0.77332,-2.31481 0.20332,1.51458 0.71131,2.94743 1.13854,3.21148 0.18128,0.11205 0.19457,-0.11827 0.0401,-0.6953 -0.12702,-0.47455 -0.14688,-2.64877 -0.0441,-4.83158 0.16262,-3.45424 0.23158,-3.88998 0.53196,-3.36113 0.18982,0.33419 0.45264,1.1081 0.58405,1.71979 0.23458,1.09193 0.23756,1.08503 0.16327,-0.37912 -0.0582,-1.14679 -0.27286,-1.79859 -0.92929,-2.82155 -0.84316,-1.31394 -0.85504,-1.37768 -0.9698,-5.20102 -0.0639,-2.12891 -0.24851,-4.11803 -0.41025,-4.42023 -0.16173,-0.30221 -0.34819,-1.02063 -0.41435,-1.59647 -0.0662,-0.57587 -0.23288,-1.34319 -0.3705,-1.70514 -0.13762,-0.36197 -0.25088,-1.51357 -0.2517,-2.55913 -0.002,-2.40667 -0.33183,-3.58748 -1.60329,-5.73746 -0.81748,-1.38231 -1.051,-2.08322 -1.19005,-3.57187 -0.21598,-2.31214 -1.8009,-5.9544 -3.53697,-8.12822 -0.66486,-0.83248 -1.47185,-1.85748 -1.79332,-2.27771 -0.71378,-0.93314 -3.39845,-2.56751 -4.86708,-2.96296 -0.76203,-0.2052 -1.45516,-0.20998 -2.3584,-0.0163 -0.90332,0.19373 -1.52273,0.18944 -2.10803,-0.0146 -0.45585,-0.15892 -1.27402,-0.21775 -1.81814,-0.13074 -0.98916,0.15818 -0.98935,0.15802 -1.31481,-1.05883 -0.51506,-1.92575 -1.5348,-3.40253 -3.55033,-5.14156 -2.32846,-2.00902 -3.39416,-2.68397 -5.15917,-3.26751 -0.76314,-0.25231 -1.48352,-0.63026 -1.60083,-0.83989 -0.11731,-0.20962 -0.46635,-0.42987 -0.77563,-0.48943 -0.30928,-0.0596 -0.85376,-0.29925 -1.20995,-0.53263 -0.66937,-0.43859 -2.68247,-0.33302 -2.98504,0.15655 -0.0781,0.12641 -0.49603,0.22983 -0.92868,0.22983 -0.43264,0 -1.22058,0.18132 -1.75097,0.40293 -0.7707,0.32202 -1.00725,0.3353 -1.17808,0.0661 -0.28414,-0.4477 -0.27626,-0.56632 0.18054,-2.71803 0.21624,-1.01864 0.5096,-3.45942 0.65189,-5.42396 0.1423,-1.96453 0.39763,-4.79467 0.5674,-6.2892 0.29466,-2.59388 0.27747,-2.8403 -0.37824,-5.42396 -0.37781,-1.48864 -1.11627,-4.46378 -1.64104,-6.6114 -0.99695,-4.08007 -1.21085,-4.70386 -2.65292,-7.73689 -1.60096,-3.36723 -3.00159,-7.88392 -3.1744,-10.23672 -0.0875,-1.19052 -0.27042,-2.37279 -0.40662,-2.62727 -0.461,-0.86139 -0.2866,-6.11419 0.28155,-8.48023 1.07804,-4.48941 1.43054,-5.35109 2.82846,-6.91426 0.495,-0.55352 1.03809,-1.32742 1.20687,-1.71979 0.16878,-0.39237 0.86271,-1.42778 1.54206,-2.3009 3.89916,-5.01133 6.33667,-11.57455 6.32427,-17.02871 -0.006,-2.58043 -0.44913,-4.64109 -1.91692,-8.91132 -0.6482,-1.8858 -1.31955,-4.26216 -1.4919,-5.28081 -0.17234,-1.01864 -0.5995,-2.92364 -0.94924,-4.23333 -1.23614,-4.62911 -1.88501,-8.70827 -2.52521,-15.875 -0.41738,-4.67237 -0.94992,-7.79955 -1.95997,-11.50938 -1.44467,-5.30613 -1.59075,-6.24986 -1.57675,-10.18645 0.0131,-3.68947 0.0183,-3.71993 1.29307,-7.67292 4.03501,-12.51188 3.99321,-11.71421 1.58043,-30.162469 -1.17318,-8.970161 -1.46726,-11.017507 -2.0142,-14.022917 -0.1589,-0.873125 -0.30413,-3.611563 -0.32275,-6.085417 -0.0318,-4.228169 0.003,-4.56932 0.58247,-5.688542 0.33897,-0.654844 1.36835,-1.964531 2.28751,-2.910417 2.18767,-2.251276 2.61249,-3.115995 2.45628,-4.99973 -0.0754,-0.909188 0.0148,-1.801405 0.23541,-2.329474 1.23414,-2.953705 -0.4282,-5.584865 -6.277,-9.935266 -1.66247,-1.23657 -3.32949,-2.590668 -3.70448,-3.009106 -0.63849,-0.712465 -2.09633,-3.679986 -2.09633,-4.267201 0,-0.145886 -0.17859,-0.413467 -0.39687,-0.594624 -0.21828,-0.181157 -0.39688,-0.533243 -0.39688,-0.782412 0,-0.249169 -0.35718,-0.77129 -0.79375,-1.160269 -0.43656,-0.388979 -0.79375,-0.929863 -0.79375,-1.201963 0,-0.272101 -0.17859,-0.642949 -0.39687,-0.824106 -0.21828,-0.181157 -0.39688,-0.536867 -0.39688,-0.790466 0,-0.253598 -0.23074,-0.754432 -0.51276,-1.112963 -0.28202,-0.358532 -0.59147,-0.965457 -0.68766,-1.348723 -0.33191,-1.322402 -2.13128,-2.605171 -3.12139,-2.225229 -0.19484,0.07477 -0.87397,-0.275333 -1.50919,-0.777997 -1.4052,-1.111972 -2.44404,-1.121468 -3.25552,-0.02976 l -0.53988,0.726323 0.58924,0.797002 c 0.53762,0.727165 0.59849,1.161979 0.69467,4.962218 0.14699,5.807965 0.96789,10.997341 2.62093,16.568442 0.98312,3.313314 1.22062,5.994903 1.23659,13.961608 0.0151,7.522414 -0.30912,10.556478 -2.38473,22.318502 -0.53251,3.01762 -0.88439,6.195904 -1.0692,9.657292 -0.53951,10.104934 -1.02212,12.731804 -3.19247,17.376764 -1.37758,2.94827 -1.95079,4.57485 -2.78076,7.89095 -0.93824,3.74865 -1.5621,5.57459 -3.34073,9.77782 -2.32414,5.49237 -3.48219,9.86828 -5.07953,19.19406 -1.42758,8.33465 -1.7448,11.31739 -1.74347,16.39318 0.001,5.50887 0.61666,10.21362 1.85243,14.1662 1.53042,4.89499 1.63251,5.52842 1.51275,9.38574 -0.1217,3.92008 -0.3935,5.74235 -2.15178,14.42676 -1.0429,5.15104 -3.32814,14.99272 -4.14264,17.19791 -1.07064,2.89868 -0.59434,9.68682 0.027,16.27188 0.23346,2.69787 0.0873,5.11472 -0.53609,8.86354 -0.38146,2.29399 -0.3202,5.82677 0.13448,7.75539 1.11671,4.73677 5.01455,9.43661 10.88533,13.12503 2.24271,1.40903 2.60464,1.7408 2.91004,2.6675 0.52301,1.58704 1.08764,2.47173 2.78391,4.36195 1.85491,2.06701 1.91078,2.52228 0.73295,5.97331 -1.19908,3.51332 -1.76449,6.16389 -2.22583,10.43453 -0.22795,2.11005 -0.53222,4.4913 -0.67616,5.29167 -0.14395,0.80036 -0.3749,4.41036 -0.51324,8.02224 -0.13834,3.61188 -0.38141,7.97891 -0.54016,9.7045 -0.15875,1.72558 -0.30632,6.86665 -0.32793,11.4246 -0.0435,9.18538 0.0625,10.30695 2.18778,23.1344 0.94777,5.7205 1.80073,9.4057 2.67374,11.55184 0.57284,1.40827 2.40093,2.24155 6.47759,2.95265 2.07574,0.36208 2.57379,0.56599 4.2642,1.74588 3.24065,2.26194 5.31605,2.90962 6.26923,1.95646 z m 42.65257,-30.60663 c -0.59708,-0.78669 -1.22623,-2.84427 -0.8697,-2.84427 0.083,0 0.56925,0.83343 1.08047,1.85208 0.98212,1.95694 0.88138,2.43118 -0.21077,0.99219 z m 1.41291,-2.72921 c -0.29132,-0.76623 -0.30049,-2.82331 -0.017,-3.81923 0.181,-0.6359 0.19909,-0.64101 0.46797,-0.13229 0.44654,0.84486 0.66418,2.49139 0.47629,3.60346 -0.20037,1.186 -0.55768,1.32012 -0.92725,0.34806 z m -18.93775,-35.91745 c 0.0931,-0.49612 0.40503,-1.11543 0.69322,-1.37626 0.6648,-0.60163 0.65817,-0.40531 -0.0412,1.22045 -0.62893,1.462 -0.90962,1.52908 -0.65199,0.15581 z"
       id="path6258"
       sodipodi:nodetypes="ssssssssssscsssssscssscssssssssssssssssssssscsssssssscssssssssssssscssssssssssssssssscssssssscsssssssssssssssssssssssscsssscssssssscssscssssssssssssssssssssssssssssssssssssssssssssscssssssssssssssssssscsssssssssssssscsssssssssscsssscsssssssssssssssssssssssssssssss" /></g></svg>
