<?xml version="1.0" encoding="UTF-8" standalone="no"?>
<!-- Created with Inkscape (http://www.inkscape.org/) -->

<svg
   width="210mm"
   height="297mm"
   viewBox="0 0 210 297"
   version="1.1"
   id="svg5"
   xml:space="preserve"
   inkscape:version="1.2.2 (b0a8486541, 2022-12-01)"
   sodipodi:docname="hs-stag-silhouette.svg"
   xmlns:inkscape="http://www.inkscape.org/namespaces/inkscape"
   xmlns:sodipodi="http://sodipodi.sourceforge.net/DTD/sodipodi-0.dtd"
   xmlns="http://www.w3.org/2000/svg"
   xmlns:svg="http://www.w3.org/2000/svg"><sodipodi:namedview
     id="namedview7"
     pagecolor="#ffffff"
     bordercolor="#000000"
     borderopacity="0.25"
     inkscape:showpageshadow="2"
     inkscape:pageopacity="0.0"
     inkscape:pagecheckerboard="0"
     inkscape:deskcolor="#d1d1d1"
     inkscape:document-units="mm"
     showgrid="false"
     inkscape:zoom="0.63055811"
     inkscape:cx="281.49666"
     inkscape:cy="552.68499"
     inkscape:window-width="846"
     inkscape:window-height="823"
     inkscape:window-x="2328"
     inkscape:window-y="203"
     inkscape:window-maximized="0"
     inkscape:current-layer="layer1" /><defs
     id="defs2" /><g
     inkscape:label="Layer 1"
     inkscape:groupmode="layer"
     id="layer1"><path
       style="fill:#666666;stroke-width:0.264583;fill-opacity:1"
       d="m 106.98446,272.55366 c -0.38048,-0.38718 -0.19419,-1.04736 0.39688,-1.40648 1.20712,-0.7334 3.10885,-2.26294 3.10885,-2.50041 0,-0.44921 -1.81668,0.0426 -3.82637,1.03583 -1.16546,0.57599 -2.53221,1.03459 -3.30461,1.1088 -1.20481,0.11577 -1.34277,0.0704 -1.61732,-0.5322 -0.26672,-0.58539 -0.42451,-0.64475 -1.41656,-0.53293 -1.932614,0.21784 -2.70607,-1.24128 -1.076694,-2.03118 0.790364,-0.38315 0.790394,-0.38325 0.154096,-0.5372 -0.760672,-0.18402 -1.324573,-0.94764 -0.945134,-1.27986 0.142247,-0.12454 1.176946,-0.61822 2.299322,-1.09705 1.18435,-0.50527 2.21392,-1.13499 2.4535,-1.50063 0.3776,-0.57628 0.5924,-0.63001 2.51872,-0.63001 h 2.10593 l 1.2426,-1.19063 c 1.40004,-1.34148 1.57991,-1.37285 5.01926,-0.87557 3.14361,0.45452 3.53701,0.23345 3.53701,-1.98763 0,-0.92616 -0.0778,-3.13137 -0.17295,-4.90047 l -0.17295,-3.21654 h -0.95328 c -1.40898,0 -2.5236,0.38913 -3.65014,1.2743 -1.35612,1.06556 -2.07346,1.24707 -2.86884,0.72592 -0.86004,-0.56352 -0.81826,-1.21628 0.13789,-2.15456 0.43252,-0.42443 0.78971,-0.861 0.79375,-0.97014 0.0114,-0.30835 -5.09223,-0.23364 -7.69293,0.11262 -1.76866,0.23549 -2.49915,0.23686 -3.00655,0.006 -0.859656,-0.39169 -0.861468,-1.05241 -0.003,-1.26775 0.52097,-0.13075 0.65114,-0.31329 0.59532,-0.83477 -0.0648,-0.60476 0.0956,-0.7243 1.70792,-1.2733 0.97865,-0.33324 2.05022,-0.79625 2.38125,-1.02892 0.33103,-0.23267 1.07812,-0.55071 1.6602,-0.70677 0.58209,-0.15605 1.28185,-0.52158 1.55504,-0.81227 0.37171,-0.39554 0.7046,-0.49021 1.32291,-0.37622 2.68363,0.49475 5.45448,0.75393 6.31632,0.59082 1.19319,-0.22583 1.19057,-0.20055 0.45632,-4.39714 -0.2928,-1.67349 -0.64441,-4.76911 -0.78134,-6.87916 -0.13693,-2.11006 -0.4322,-4.84849 -0.65614,-6.08542 -0.22395,-1.23693 -0.40734,-2.81451 -0.40754,-3.50573 -2.6e-4,-1.28139 -0.17623,-1.50424 -0.74119,-0.93927 -0.43237,0.43237 -0.39881,1.905 0.0858,3.7656 0.22182,0.85165 0.35252,1.59926 0.29042,1.66135 -0.15963,0.15963 -1.11554,-2.50095 -1.33667,-3.72036 -0.15865,-0.87487 -0.26439,-0.99778 -0.74932,-0.87097 -0.31052,0.0812 -0.68985,0.0484 -0.84294,-0.073 -0.1531,-0.12135 -1.18806,-0.27624 -2.29993,-0.34421 -1.63912,-0.10019 -2.30158,-0.2816 -3.50172,-0.95891 -0.81409,-0.45943 -1.6027,-0.83533 -1.75246,-0.83533 -0.14977,0 -0.68921,0.26789 -1.19877,0.59531 -1.28652,0.82667 -1.1175,1.42861 0.69865,2.48801 1.65169,0.96347 2.09458,1.51223 2.72928,3.38168 0.62117,1.82961 0.32063,1.79188 -0.62341,-0.0783 -0.44542,-0.88237 -1.0783,-1.74735 -1.40639,-1.92217 -0.51968,-0.27691 -0.5543,-0.26664 -0.26872,0.0798 0.18029,0.2187 0.38978,0.9228 0.46551,1.56467 0.10514,0.89101 0.0686,1.07316 -0.15433,0.77015 -0.23709,-0.3222 -0.25671,-0.29731 -0.10429,0.13229 0.31376,0.88437 0.64293,2.35121 0.64961,2.89485 0.006,0.50133 -0.002,0.50168 -0.3586,0.0146 -0.32936,-0.45044 -0.38306,-0.34266 -0.55125,1.10656 -0.15502,1.33563 -0.0714,1.96944 0.4972,3.76942 0.91701,2.90287 0.84807,3.26929 -0.14036,0.74599 -0.468,-1.19472 -1.02594,-2.17085 -1.33552,-2.33654 -0.6397,-0.34236 -0.70547,-0.29017 -0.88675,0.70364 -0.12282,0.67328 0.0842,1.01496 1.58474,2.61547 0.94931,1.01256 1.72602,1.92276 1.72602,2.02266 0,0.23068 -1.55443,-0.11388 -2.2902,-0.50766 -0.30688,-0.16423 -0.62776,-0.48051 -0.71308,-0.70283 -0.32184,-0.83872 -0.56518,-0.35522 -0.47519,0.94418 0.0526,0.75882 -0.0342,1.47637 -0.19843,1.64058 -0.21275,0.21274 -0.29185,0.0468 -0.29185,-0.61212 0,-1.65686 -0.75171,-3.0957 -1.999286,-3.82683 -0.625708,-0.36669 -1.205749,-0.66671 -1.288976,-0.66671 -0.47049,0 -0.02564,2.19469 0.82451,4.06774 0.699339,1.54079 0.99921,2.59978 1.058339,3.73747 l 0.0825,1.5875 -0.481751,-1.5875 c -0.498448,-1.64252 -1.720014,-4.22346 -2.114319,-4.46716 -0.12368,-0.0764 0.01818,1.13553 0.315259,2.69326 0.645728,3.38595 0.677793,5.45621 0.101237,6.5364 -0.418947,0.78491 -0.422005,0.77516 -0.274553,-0.87506 0.124484,-1.39317 0.04794,-1.88482 -0.463404,-2.97657 -0.68616,-1.46497 -1.049242,-1.66458 -1.05528,-0.58014 -0.0021,0.40018 -0.119468,0.9062 -0.260533,1.12448 -0.181239,0.28045 -0.25767,-0.0727 -0.260532,-1.20385 -0.004,-1.56793 -0.296085,-2.23573 -0.977969,-2.23573 -0.445259,0 -0.718063,1.13519 -0.490601,2.04147 0.09919,0.39521 0.856239,1.3566 1.682329,2.13641 1.358268,1.28218 1.413375,1.37458 0.57594,0.96568 -0.509323,-0.2487 -1.242079,-0.6743 -1.628344,-0.94579 -0.843391,-0.59277 -1.017489,-0.61255 -1.017489,-0.11557 0,0.20792 -0.416719,0.81989 -0.926042,1.35993 -0.509323,0.54003 -0.926042,1.1339 -0.926042,1.3197 0,0.1858 -0.129984,0.38115 -0.288851,0.4341 -0.197974,0.066 -0.149968,0.57403 0.152591,1.6148 0.615749,2.1181 0.371694,2.41631 -0.638694,0.78041 -0.471865,-0.76398 -0.957326,-1.38906 -1.078801,-1.38906 -0.121476,0 -0.304377,0.38022 -0.406445,0.84494 -0.161396,0.73483 -0.22683,0.78853 -0.50211,0.41206 -0.280366,-0.38343 -0.374426,-0.33637 -0.823214,0.41183 l -0.506683,0.84471 -0.191354,-1.69506 c -0.247587,-2.19318 -0.554337,-2.48792 -1.228831,-1.18069 -0.711838,1.3796 -2.257565,2.8036 -3.972769,3.65992 -1.606963,0.80227 -2.108697,0.74711 -0.763953,-0.084 0.490173,-0.30294 1.090631,-0.77115 1.334355,-1.04046 0.403587,-0.44596 1.362048,-4.78708 1.112104,-5.03703 -0.260122,-0.26012 -1.191693,1.764 -1.196239,2.59919 -0.0038,0.69548 -0.0689,0.82723 -0.261522,0.52916 -0.432924,-0.6699 -0.29872,-1.43466 0.549714,-3.13253 l 0.814298,-1.62955 -0.785175,-0.66068 c -0.842899,-0.70925 -1.758521,-2.6335 -1.472962,-3.09555 0.243803,-0.39448 0.276984,-8.12721 0.03423,-7.97723 -0.600072,0.37075 -0.04888,-1.38089 0.893178,-2.83844 0.996913,-1.54242 1.66371,-3.68477 1.146868,-3.68477 -0.116843,0 -0.446463,0.20836 -0.732491,0.46302 -0.513699,0.45737 -0.514681,0.45252 -0.08019,-0.39687 0.241925,-0.47294 0.333981,-0.8599 0.204566,-0.8599 -0.4743,0 -1.722983,1.4906 -2.327246,2.77813 -0.541248,1.15325 -0.621207,1.22825 -0.623459,0.58477 -0.0037,-1.06041 0.833565,-2.5467 2.086748,-3.70429 0.775991,-0.7168 1.085667,-1.21506 1.085667,-1.74681 0,-0.40918 0.296717,-1.14852 0.659368,-1.64298 0.899549,-1.2265 1.457299,-2.47211 1.457299,-3.25455 0,-1.01385 0.483425,-2.05929 1.405289,-3.03903 0.864859,-0.91916 0.761465,-0.97807 -0.743831,-0.42374 l -0.529167,0.19486 0.529167,-0.39379 c 0.291042,-0.21658 0.826823,-0.47734 1.190625,-0.57946 1.449334,-0.40683 2.116666,-0.76137 2.116666,-1.12454 0,-0.30161 -0.248084,-0.34379 -1.190625,-0.20245 -1.434636,0.21514 -1.571376,-0.18219 -0.500628,-1.4547 0.920834,-1.09434 1.568534,-1.42202 3.146462,-1.59179 l 1.322916,-0.14234 -0.0889,-1.12448 c -0.06003,-0.75937 0.01635,-1.12447 0.235241,-1.12447 0.178276,0 1.070015,0.65484 1.981642,1.4552 0.911627,0.80037 1.748893,1.45521 1.860592,1.45521 0.111699,0 0.416669,-0.19328 0.677709,-0.42952 0.413549,-0.37426 0.455427,-0.74026 0.325467,-2.84428 -0.18527,-2.99938 0.202618,-5.43607 1.093777,-6.87107 1.690293,-2.72182 4.190038,-5.89602 4.971788,-6.31322 0.46691,-0.24919 1.18418,-0.45805 1.59393,-0.46415 1.4406,-0.0215 3.09146,-1.28923 3.09146,-2.37411 0,-0.72906 -1.10831,-5.89026 -1.73682,-8.08802 -0.97441,-3.40734 -0.95271,-8.80644 0.0494,-12.3016 0.7238,-2.52436 5.26157,-12.16596 6.72505,-14.28903 0.25078,-0.3638 0.65725,-1.25677 0.90328,-1.98437 0.24603,-0.72761 0.60322,-1.50151 0.79376,-1.71979 0.56045,-0.64204 0.74712,-1.577 0.39869,-1.99684 -0.24856,-0.29949 -0.2479,-0.55472 0.003,-1.16045 0.18287,-0.44148 0.24477,-1.12652 0.14347,-1.58774 -0.10101,-0.45996 -0.0696,-0.81123 0.0726,-0.81123 0.36783,0 0.59972,-2.17702 0.27373,-2.56982 -0.15233,-0.18355 -0.20071,-0.63756 -0.1075,-1.00893 0.14722,-0.58655 0.0481,-0.7259 -0.75466,-1.06133 -1.02243,-0.4272 -1.47238,-1.06449 -1.47238,-2.08542 0,-0.58268 -0.29132,-0.81515 -2.13268,-1.70183 -3.60055,-1.7338 -8.51623,-6.7236 -10.0585,-10.21017 -0.893819,-2.02061 -1.832132,-6.15661 -1.826994,-8.05319 0.0026,-0.96361 0.176866,-2.883 0.387239,-4.26531 0.637029,-4.18581 0.01363,-7.06391 -3.552336,-16.39994 -0.749426,-1.962077 -1.83435,-5.474421 -2.410944,-7.805212 -1.114374,-4.504701 -2.58201,-8.86801 -2.982827,-8.86801 -0.133094,0 -0.97916,0.689588 -1.880148,1.532419 -1.769078,1.654886 -4.960398,3.460705 -7.292813,4.126658 -0.800365,0.228524 -2.764896,0.664734 -4.365625,0.969362 -2.877098,0.547524 -14.1224,3.025997 -19.934009,4.393467 -3.475363,0.817753 -5.897417,1.874806 -6.538833,2.85373 -0.247716,0.378063 -0.742376,1.726724 -1.099243,2.997026 -0.356868,1.27029 -0.935559,2.68691 -1.285981,3.14804 -1.66342,2.18892 -4.482224,1.70823 -10.432558,-1.77908 -0.945885,-0.55436 -2.437323,-1.2464 -3.314308,-1.53787 -1.909617,-0.63468 -7.188615,-1.576097 -10.820008,-1.929559 -1.450491,-0.141185 -2.867795,-0.425598 -3.167727,-0.63568 -0.298529,-0.209098 -0.799367,-0.38018 -1.112972,-0.38018 -0.816091,0 -1.249624,-0.656032 -1.274672,-1.928852 -0.02162,-1.098915 -0.0146,-1.107215 1.061876,-1.254699 0.596005,-0.08166 1.667568,-0.513332 2.38125,-0.959282 3.209554,-2.005512 4.257643,-2.424266 8.705937,-3.478371 2.473854,-0.586227 5.390885,-1.205383 6.482291,-1.375907 3.023073,-0.472329 5.555186,-1.160222 10.116338,-2.748286 4.268827,-1.486283 9.100145,-3.492238 9.338021,-3.87713 0.07358,-0.119046 1.768864,-1.108363 3.76731,-2.198484 1.998445,-1.09012 4.824163,-2.652281 6.279372,-3.471468 1.455208,-0.819187 5.057491,-2.673654 8.005074,-4.121039 2.947582,-1.447382 6.757582,-3.504803 8.466666,-4.572045 10.561635,-6.595245 12.160385,-6.900505 17.533485,-3.347794 3.207349,2.120712 4.188839,3.078123 6.912319,6.742732 1.08149,1.455208 2.90129,3.836035 4.044,5.290727 4.96345,6.318552 9.74495,14.519521 13.12828,22.516934 0.60949,1.440682 1.18548,2.705093 1.27997,2.809813 0.0945,0.10471 2.21127,-0.5751 4.70393,-1.510701 5.38269,-2.020348 7.30774,-2.547377 12.62104,-3.455313 2.20173,-0.376235 4.89612,-0.928344 5.98753,-1.226913 2.26571,-0.619815 5.55625,-2.024136 5.55625,-2.371272 0,-0.128241 -0.34901,-0.856441 -0.77557,-1.618221 -1.05243,-1.879481 -2.27473,-5.041871 -2.63175,-6.809012 -0.16171,-0.800365 -0.41207,-3.538803 -0.55637,-6.085417 -0.1443,-2.546615 -0.49106,-6.058959 -0.77058,-7.805209 -0.27952,-1.74625 -0.58854,-4.008437 -0.68671,-5.027083 -0.23607,-2.449626 -1.36341,-7.796607 -2.00579,-9.51352 -0.6318,-1.688655 -1.41391,-2.433354 -3.91918,-3.731739 -2.97094,-1.539724 -3.54484,-2.910649 -2.31975,-5.541409 0.74069,-1.590551 2.30629,-3.446767 4.40186,-5.218929 2.38762,-2.019141 3.85287,-5.526487 5.00391,-11.977737 0.1809,-1.01387 0.47589,-1.746232 0.81638,-2.026786 0.32055,-0.264123 0.53313,-0.759025 0.53313,-1.241156 0,-0.441028 0.12087,-0.876569 0.26859,-0.967869 0.14773,-0.0913 0.45,-0.600169 0.67172,-1.130822 0.46612,-1.115586 0.78459,-1.370581 1.71875,-1.37619 1.12258,-0.0067 1.30204,0.409512 1.13128,2.623918 -0.0947,1.227984 -0.0274,2.582029 0.17222,3.464289 0.21098,0.932558 0.35388,4.32227 0.40125,9.518158 0.0796,8.725519 0.53421,13.248476 1.86172,18.520834 0.89434,3.551954 2.36941,7.577304 5.12657,13.990026 0.89945,2.091963 2.15125,5.366181 2.7818,7.276042 0.63054,1.90986 1.65238,4.544036 2.27077,5.853724 3.0126,6.380485 4.2659,9.889214 4.2659,11.942834 0,3.927229 -3.42856,8.387403 -11.28038,14.674513 -6.03018,4.82848 -10.76579,7.83651 -18.87139,11.98699 l -5.73234,2.93525 0.0814,1.32291 c 0.0833,1.35311 0.31173,1.90603 2.53482,6.13455 1.12914,2.14774 1.37043,2.91695 2.07488,6.61458 0.43844,2.30131 1.31421,6.08921 1.94616,8.41754 1.8064,6.65548 1.97391,8.42804 1.15326,12.20355 -0.51129,2.35226 -0.83295,6.21118 -0.79358,9.52045 0.0454,3.81594 -0.21235,5.28363 -1.33007,7.57355 -1.03151,2.11328 -2.21681,3.58862 -4.95097,6.16244 -1.79647,1.69112 -2.9016,2.48322 -4.6376,3.324 l -2.27911,1.10381 -1.00064,1.9771 -1.00063,1.97711 0.76432,0.56858 c 1.7034,1.26715 1.73868,1.32217 1.86002,2.90085 0.065,0.84619 0.36547,2.01282 0.66762,2.59252 0.38402,0.73674 0.4764,1.19035 0.30693,1.507 -0.13334,0.24915 -0.18013,0.77894 -0.10398,1.1773 0.0829,0.43371 -0.0331,0.98614 -0.28916,1.37694 -0.58982,0.90018 -0.54527,1.1428 0.36612,1.99418 1.40645,1.31381 1.06826,2.10861 -1.68698,3.9647 l -1.29011,0.86909 0.16616,1.48571 c 0.0914,0.81714 0.22984,2.85492 0.30768,4.52841 0.0778,1.67349 0.33216,5.14712 0.56515,7.71917 0.39338,4.34266 0.3914,5.03199 -0.0278,9.6573 -0.57416,6.33476 -1.26392,11.55026 -2.25381,17.04187 -0.43057,2.38872 -1.14723,6.45982 -1.59256,9.0469 -0.58828,3.41752 -1.07312,5.36192 -1.77301,7.11061 -0.89402,2.23369 -1.04126,2.44126 -2.04682,2.88547 -0.59593,0.26325 -2.51225,0.66562 -4.2585,0.89415 -2.75576,0.36065 -3.31475,0.5195 -4.23334,1.203 -2.01899,1.50228 -3.42644,2.20982 -4.62057,2.3228 -0.66014,0.0625 -1.28956,0.0227 -1.3987,-0.0884 z M 84.284509,248.29669 c 0.0066,-0.25466 -0.09324,-0.46302 -0.221792,-0.46302 -0.284393,0 -0.559258,0.95167 -0.534924,1.85208 0.01746,0.64657 0.02606,0.64359 0.381328,-0.13229 0.199901,-0.43656 0.368824,-1.00211 0.375388,-1.25677 z m -0.517557,-5.29167 c -2.3e-4,-0.79848 -0.18057,-1.33405 -0.622059,-1.84738 -0.714938,-0.83128 -0.965528,-0.71788 -0.964128,0.43627 0.0011,0.86701 0.868405,2.53559 1.318038,2.53559 0.147661,0 0.268327,-0.50601 0.268149,-1.12448 z m 12.537369,-1.71979 c -0.286457,-1.20451 -0.613437,-1.63264 -0.62275,-0.81539 -0.0099,0.86799 0.232669,1.543 0.554469,1.543 0.132725,0 0.163449,-0.32743 0.06828,-0.72761 z m 6.777539,-3.50573 c -1.20077,-0.98001 -1.45701,-0.72377 -0.30529,0.30529 0.48673,0.4349 0.96214,0.71355 1.05646,0.61924 0.0943,-0.0943 -0.24371,-0.51036 -0.75117,-0.92453 z m -3.428489,-2.6251 c -0.158295,-0.29577 -0.523203,-0.66375 -0.810911,-0.81773 -0.845322,-0.4524 -0.670821,0.64469 0.204502,1.2857 0.794261,0.58166 1.058868,0.37746 0.606409,-0.46797 z m 2.382939,-14.52996 c 0.79528,-0.64398 0.4699,-1.12925 -0.61836,-0.92222 -1.0834,0.2061 -1.07988,0.20196 -0.72947,0.8567 0.36249,0.67733 0.57926,0.68787 1.34783,0.0655 z"
       id="path1697" /></g></svg>
