<?xml version="1.0" encoding="UTF-8" standalone="no"?>
<!-- Created with Inkscape (http://www.inkscape.org/) -->

<svg
   width="500mm"
   height="400mm"
   viewBox="0 0 500 400"
   version="1.1"
   id="svg5"
   xml:space="preserve"
   inkscape:version="1.2.2 (b0a8486541, 2022-12-01)"
   sodipodi:docname="hs-stag-silhouette-thumb.svg"
   xmlns:inkscape="http://www.inkscape.org/namespaces/inkscape"
   xmlns:sodipodi="http://sodipodi.sourceforge.net/DTD/sodipodi-0.dtd"
   xmlns="http://www.w3.org/2000/svg"
   xmlns:svg="http://www.w3.org/2000/svg"><sodipodi:namedview
     id="namedview7"
     pagecolor="#ffffff"
     bordercolor="#000000"
     borderopacity="0.25"
     inkscape:showpageshadow="2"
     inkscape:pageopacity="0.0"
     inkscape:pagecheckerboard="0"
     inkscape:deskcolor="#d1d1d1"
     inkscape:document-units="mm"
     showgrid="false"
     inkscape:zoom="0.63055811"
     inkscape:cx="252.15757"
     inkscape:cy="808.01435"
     inkscape:window-width="3374"
     inkscape:window-height="1371"
     inkscape:window-x="1986"
     inkscape:window-y="32"
     inkscape:window-maximized="1"
     inkscape:current-layer="layer1" /><defs
     id="defs2" /><g
     inkscape:label="Layer 1"
     inkscape:groupmode="layer"
     id="layer1"><path
       style="fill:#666666;fill-opacity:1;stroke-width:0.264583"
       d="m 246.53488,324.87889 c -0.38048,-0.38718 -0.19419,-1.04736 0.39688,-1.40648 1.20712,-0.7334 3.10885,-2.26294 3.10885,-2.50041 0,-0.44921 -1.81668,0.0426 -3.82637,1.03583 -1.16546,0.57599 -2.53221,1.03459 -3.30461,1.1088 -1.20481,0.11577 -1.34277,0.0704 -1.61732,-0.5322 -0.26672,-0.58539 -0.42451,-0.64475 -1.41656,-0.53293 -1.93262,0.21784 -2.70607,-1.24128 -1.0767,-2.03118 0.79037,-0.38315 0.7904,-0.38325 0.1541,-0.5372 -0.76067,-0.18402 -1.32457,-0.94764 -0.94513,-1.27986 0.14224,-0.12454 1.17694,-0.61822 2.29932,-1.09705 1.18435,-0.50527 2.21392,-1.13499 2.4535,-1.50063 0.3776,-0.57628 0.5924,-0.63001 2.51872,-0.63001 h 2.10593 l 1.2426,-1.19063 c 1.40004,-1.34148 1.57991,-1.37285 5.01926,-0.87557 3.14361,0.45452 3.53701,0.23345 3.53701,-1.98763 0,-0.92616 -0.0778,-3.13137 -0.17295,-4.90047 l -0.17295,-3.21654 h -0.95328 c -1.40898,0 -2.5236,0.38913 -3.65014,1.2743 -1.35612,1.06556 -2.07346,1.24707 -2.86884,0.72592 -0.86004,-0.56352 -0.81826,-1.21628 0.13789,-2.15456 0.43252,-0.42443 0.78971,-0.861 0.79375,-0.97014 0.0114,-0.30835 -5.09223,-0.23364 -7.69293,0.11262 -1.76866,0.23549 -2.49915,0.23686 -3.00655,0.006 -0.85966,-0.39169 -0.86147,-1.05241 -0.003,-1.26775 0.52097,-0.13075 0.65114,-0.31329 0.59532,-0.83477 -0.0648,-0.60476 0.0956,-0.7243 1.70792,-1.2733 0.97865,-0.33324 2.05022,-0.79625 2.38125,-1.02892 0.33103,-0.23267 1.07812,-0.55071 1.6602,-0.70677 0.58209,-0.15605 1.28185,-0.52158 1.55504,-0.81227 0.37171,-0.39554 0.7046,-0.49021 1.32291,-0.37622 2.68363,0.49475 5.45448,0.75393 6.31632,0.59082 1.19319,-0.22583 1.19057,-0.20055 0.45632,-4.39714 -0.2928,-1.67349 -0.64441,-4.76911 -0.78134,-6.87916 -0.13693,-2.11006 -0.4322,-4.84849 -0.65614,-6.08542 -0.22395,-1.23693 -0.40734,-2.81451 -0.40754,-3.50573 -2.6e-4,-1.28139 -0.17623,-1.50424 -0.74119,-0.93927 -0.43237,0.43237 -0.39881,1.905 0.0858,3.7656 0.22182,0.85165 0.35252,1.59926 0.29042,1.66135 -0.15963,0.15963 -1.11554,-2.50095 -1.33667,-3.72036 -0.15865,-0.87487 -0.26439,-0.99778 -0.74932,-0.87097 -0.31052,0.0812 -0.68985,0.0484 -0.84294,-0.073 -0.1531,-0.12135 -1.18806,-0.27624 -2.29993,-0.34421 -1.63912,-0.10019 -2.30158,-0.2816 -3.50172,-0.95891 -0.81409,-0.45943 -1.6027,-0.83533 -1.75246,-0.83533 -0.14977,0 -0.68921,0.26789 -1.19877,0.59531 -1.28652,0.82667 -1.1175,1.42861 0.69865,2.48801 1.65169,0.96347 2.09458,1.51223 2.72928,3.38168 0.62117,1.82961 0.32063,1.79188 -0.62341,-0.0783 -0.44542,-0.88237 -1.0783,-1.74735 -1.40639,-1.92217 -0.51968,-0.27691 -0.5543,-0.26664 -0.26872,0.0798 0.18029,0.2187 0.38978,0.9228 0.46551,1.56467 0.10514,0.89101 0.0686,1.07316 -0.15433,0.77015 -0.23709,-0.3222 -0.25671,-0.29731 -0.10429,0.13229 0.31376,0.88437 0.64293,2.35121 0.64961,2.89485 0.006,0.50133 -0.002,0.50168 -0.3586,0.0146 -0.32936,-0.45044 -0.38306,-0.34266 -0.55125,1.10656 -0.15502,1.33563 -0.0714,1.96944 0.4972,3.76942 0.91701,2.90287 0.84807,3.26929 -0.14036,0.74599 -0.468,-1.19472 -1.02594,-2.17085 -1.33552,-2.33654 -0.6397,-0.34236 -0.70547,-0.29017 -0.88675,0.70364 -0.12282,0.67328 0.0842,1.01496 1.58474,2.61547 0.94931,1.01256 1.72602,1.92276 1.72602,2.02266 0,0.23068 -1.55443,-0.11388 -2.2902,-0.50766 -0.30688,-0.16423 -0.62776,-0.48051 -0.71308,-0.70283 -0.32184,-0.83872 -0.56518,-0.35522 -0.47519,0.94418 0.0526,0.75882 -0.0342,1.47637 -0.19843,1.64058 -0.21275,0.21274 -0.29185,0.0468 -0.29185,-0.61212 0,-1.65686 -0.75171,-3.0957 -1.99929,-3.82683 -0.62571,-0.36669 -1.20575,-0.66671 -1.28897,-0.66671 -0.47049,0 -0.0256,2.19469 0.82451,4.06774 0.69934,1.54079 0.99921,2.59978 1.05834,3.73747 l 0.0825,1.5875 -0.48176,-1.5875 c -0.49844,-1.64252 -1.72001,-4.22346 -2.11431,-4.46716 -0.12368,-0.0764 0.0182,1.13553 0.31525,2.69326 0.64573,3.38595 0.6778,5.45621 0.10124,6.5364 -0.41895,0.78491 -0.422,0.77516 -0.27455,-0.87506 0.12448,-1.39317 0.0479,-1.88482 -0.46341,-2.97657 -0.68616,-1.46497 -1.04924,-1.66458 -1.05528,-0.58014 -0.002,0.40018 -0.11946,0.9062 -0.26053,1.12448 -0.18124,0.28045 -0.25767,-0.0727 -0.26053,-1.20385 -0.004,-1.56793 -0.29609,-2.23573 -0.97797,-2.23573 -0.44526,0 -0.71806,1.13519 -0.4906,2.04147 0.0992,0.39521 0.85624,1.3566 1.68233,2.13641 1.35827,1.28218 1.41337,1.37458 0.57594,0.96568 -0.50932,-0.2487 -1.24208,-0.6743 -1.62835,-0.94579 -0.84339,-0.59277 -1.01748,-0.61255 -1.01748,-0.11557 0,0.20792 -0.41672,0.81989 -0.92605,1.35993 -0.50932,0.54003 -0.92604,1.1339 -0.92604,1.3197 0,0.1858 -0.12998,0.38115 -0.28885,0.4341 -0.19797,0.066 -0.14997,0.57403 0.15259,1.6148 0.61575,2.1181 0.3717,2.41631 -0.63869,0.78041 -0.47187,-0.76398 -0.95733,-1.38906 -1.0788,-1.38906 -0.12148,0 -0.30438,0.38022 -0.40645,0.84494 -0.16139,0.73483 -0.22683,0.78853 -0.50211,0.41206 -0.28036,-0.38343 -0.37442,-0.33637 -0.82321,0.41183 l -0.50669,0.84471 -0.19135,-1.69506 c -0.24759,-2.19318 -0.55434,-2.48792 -1.22883,-1.18069 -0.71184,1.3796 -2.25757,2.8036 -3.97277,3.65992 -1.60696,0.80227 -2.1087,0.74711 -0.76395,-0.084 0.49017,-0.30294 1.09063,-0.77115 1.33435,-1.04046 0.40359,-0.44596 1.36205,-4.78708 1.11211,-5.03703 -0.26013,-0.26012 -1.1917,1.764 -1.19624,2.59919 -0.004,0.69548 -0.0689,0.82723 -0.26152,0.52916 -0.43293,-0.6699 -0.29872,-1.43466 0.54971,-3.13253 l 0.8143,-1.62955 -0.78518,-0.66068 c -0.8429,-0.70925 -1.75852,-2.6335 -1.47296,-3.09555 0.2438,-0.39448 0.27698,-8.12721 0.0342,-7.97723 -0.60007,0.37075 -0.0489,-1.38089 0.89318,-2.83844 0.99691,-1.54242 1.66371,-3.68477 1.14687,-3.68477 -0.11685,0 -0.44647,0.20836 -0.73249,0.46302 -0.5137,0.45737 -0.51469,0.45252 -0.0802,-0.39687 0.24192,-0.47294 0.33398,-0.8599 0.20456,-0.8599 -0.4743,0 -1.72298,1.4906 -2.32724,2.77813 -0.54125,1.15325 -0.62121,1.22825 -0.62346,0.58477 -0.004,-1.06041 0.83356,-2.5467 2.08674,-3.70429 0.776,-0.7168 1.08567,-1.21506 1.08567,-1.74681 0,-0.40918 0.29672,-1.14852 0.65937,-1.64298 0.89955,-1.2265 1.4573,-2.47211 1.4573,-3.25455 0,-1.01385 0.48342,-2.05929 1.40529,-3.03903 0.86486,-0.91916 0.76146,-0.97807 -0.74383,-0.42374 l -0.52917,0.19486 0.52917,-0.39379 c 0.29104,-0.21658 0.82682,-0.47734 1.19062,-0.57946 1.44934,-0.40683 2.11667,-0.76137 2.11667,-1.12454 0,-0.30161 -0.24809,-0.34379 -1.19063,-0.20245 -1.43463,0.21514 -1.57137,-0.18219 -0.50063,-1.4547 0.92084,-1.09434 1.56854,-1.42202 3.14647,-1.59179 l 1.32291,-0.14234 -0.0889,-1.12448 c -0.06,-0.75937 0.0164,-1.12447 0.23524,-1.12447 0.17828,0 1.07002,0.65484 1.98165,1.4552 0.91162,0.80037 1.74889,1.45521 1.86059,1.45521 0.1117,0 0.41667,-0.19328 0.67771,-0.42952 0.41355,-0.37426 0.45542,-0.74026 0.32546,-2.84428 -0.18527,-2.99938 0.20262,-5.43607 1.09378,-6.87107 1.69029,-2.72182 4.19004,-5.89602 4.97179,-6.31322 0.46691,-0.24919 1.18418,-0.45805 1.59393,-0.46415 1.4406,-0.0215 3.09146,-1.28923 3.09146,-2.37411 0,-0.72906 -1.10831,-5.89026 -1.73682,-8.08802 -0.97441,-3.40734 -0.95271,-8.80644 0.0494,-12.3016 0.7238,-2.52436 5.26157,-12.16596 6.72505,-14.28903 0.25078,-0.3638 0.65725,-1.25677 0.90328,-1.98437 0.24603,-0.72761 0.60322,-1.50151 0.79376,-1.71979 0.56045,-0.64204 0.74712,-1.577 0.39869,-1.99684 -0.24856,-0.29949 -0.2479,-0.55472 0.003,-1.16045 0.18287,-0.44148 0.24477,-1.12652 0.14347,-1.58774 -0.10101,-0.45996 -0.0696,-0.81123 0.0726,-0.81123 0.36783,0 0.59972,-2.17702 0.27373,-2.56982 -0.15233,-0.18355 -0.20071,-0.63756 -0.1075,-1.00893 0.14722,-0.58655 0.0481,-0.7259 -0.75466,-1.06133 -1.02243,-0.4272 -1.47238,-1.06449 -1.47238,-2.08542 0,-0.58268 -0.29132,-0.81515 -2.13268,-1.70183 -3.60055,-1.7338 -8.51623,-6.7236 -10.0585,-10.21017 -0.89382,-2.02061 -1.83213,-6.15661 -1.827,-8.05319 0.003,-0.96361 0.17687,-2.883 0.38724,-4.26531 0.63703,-4.18581 0.0136,-7.06391 -3.55233,-16.39994 -0.74943,-1.96207 -1.83435,-5.47442 -2.41095,-7.80521 -1.11437,-4.5047 -2.58201,-8.86801 -2.98282,-8.86801 -0.1331,0 -0.97916,0.68959 -1.88015,1.53242 -1.76908,1.65489 -4.9604,3.46071 -7.29281,4.12666 -0.80037,0.22852 -2.7649,0.66473 -4.36563,0.96936 -2.8771,0.54752 -14.1224,3.026 -19.93401,4.39347 -3.47536,0.81775 -5.89742,1.8748 -6.53883,2.85373 -0.24772,0.37806 -0.74238,1.72672 -1.09924,2.99702 -0.35687,1.27029 -0.93556,2.68691 -1.28599,3.14804 -1.66342,2.18892 -4.48222,1.70823 -10.43255,-1.77908 -0.94589,-0.55436 -2.43733,-1.2464 -3.31431,-1.53787 -1.90962,-0.63468 -7.18862,-1.57609 -10.82001,-1.92956 -1.45049,-0.14118 -2.86779,-0.42559 -3.16773,-0.63568 -0.29853,-0.20909 -0.79936,-0.38018 -1.11297,-0.38018 -0.81609,0 -1.24962,-0.65603 -1.27467,-1.92885 -0.0216,-1.09891 -0.0146,-1.10721 1.06188,-1.2547 0.596,-0.0817 1.66756,-0.51333 2.38125,-0.95928 3.20955,-2.00551 4.25764,-2.42426 8.70593,-3.47837 2.47386,-0.58623 5.39089,-1.20538 6.48229,-1.37591 3.02308,-0.47233 5.55519,-1.16022 10.11634,-2.74828 4.26883,-1.48629 9.10015,-3.49224 9.33802,-3.87713 0.0736,-0.11905 1.76887,-1.10837 3.76731,-2.19849 1.99845,-1.09012 4.82417,-2.65228 6.27937,-3.47146 1.45521,-0.81919 5.0575,-2.67366 8.00508,-4.12104 2.94758,-1.44739 6.75758,-3.50481 8.46666,-4.57205 10.56164,-6.59524 12.16039,-6.9005 17.53349,-3.34779 3.20735,2.12071 4.18884,3.07812 6.91232,6.74273 1.08149,1.45521 2.90129,3.83603 4.044,5.29073 4.96345,6.31855 9.74495,14.51952 13.12828,22.51693 0.60949,1.44068 1.18548,2.70509 1.27997,2.80981 0.0945,0.10471 2.21127,-0.5751 4.70393,-1.5107 5.38269,-2.02035 7.30774,-2.54737 12.62104,-3.45531 2.20173,-0.37624 4.89612,-0.92834 5.98753,-1.22691 2.26571,-0.61982 5.55625,-2.02414 5.55625,-2.37128 0,-0.12824 -0.34901,-0.85644 -0.77557,-1.61822 -1.05243,-1.87948 -2.27473,-5.04187 -2.63175,-6.80901 -0.16171,-0.80036 -0.41207,-3.5388 -0.55637,-6.08542 -0.1443,-2.54661 -0.49106,-6.05895 -0.77058,-7.8052 -0.27952,-1.74625 -0.58854,-4.00844 -0.68671,-5.02709 -0.23607,-2.44962 -1.36341,-7.7966 -2.00579,-9.51352 -0.6318,-1.68865 -1.41391,-2.43335 -3.91918,-3.73174 -2.97094,-1.53972 -3.54484,-2.91065 -2.31975,-5.541405 0.74069,-1.590551 2.30629,-3.446767 4.40186,-5.218929 2.38762,-2.019141 3.85287,-5.526487 5.00391,-11.977737 0.1809,-1.01387 0.47589,-1.746232 0.81638,-2.026786 0.32055,-0.264123 0.53313,-0.759025 0.53313,-1.241156 0,-0.441028 0.12087,-0.876569 0.26859,-0.967869 0.14773,-0.0913 0.45,-0.600169 0.67172,-1.130822 0.46612,-1.115586 0.78459,-1.370581 1.71875,-1.37619 1.12258,-0.0067 1.30204,0.409512 1.13128,2.623918 -0.0947,1.227984 -0.0274,2.582029 0.17222,3.464289 0.21098,0.932558 0.35388,4.32227 0.40125,9.518158 0.0796,8.725519 0.53421,13.248479 1.86172,18.520829 0.89434,3.55196 2.36941,7.57731 5.12657,13.99003 0.89945,2.09196 2.15125,5.36618 2.7818,7.27604 0.63054,1.90986 1.65238,4.54404 2.27077,5.85373 3.0126,6.38048 4.2659,9.88921 4.2659,11.94283 0,3.92723 -3.42856,8.3874 -11.28038,14.67451 -6.03018,4.82848 -10.76579,7.83651 -18.87139,11.98699 l -5.73234,2.93525 0.0814,1.32291 c 0.0833,1.35311 0.31173,1.90603 2.53482,6.13455 1.12914,2.14774 1.37043,2.91695 2.07488,6.61458 0.43844,2.30131 1.31421,6.08921 1.94616,8.41754 1.8064,6.65548 1.97391,8.42804 1.15326,12.20355 -0.51129,2.35226 -0.83295,6.21118 -0.79358,9.52045 0.0454,3.81594 -0.21235,5.28363 -1.33007,7.57355 -1.03151,2.11328 -2.21681,3.58862 -4.95097,6.16244 -1.79647,1.69112 -2.9016,2.48322 -4.6376,3.324 l -2.27911,1.10381 -1.00064,1.9771 -1.00063,1.97711 0.76432,0.56858 c 1.7034,1.26715 1.73868,1.32217 1.86002,2.90085 0.065,0.84619 0.36547,2.01282 0.66762,2.59252 0.38402,0.73674 0.4764,1.19035 0.30693,1.507 -0.13334,0.24915 -0.18013,0.77894 -0.10398,1.1773 0.0829,0.43371 -0.0331,0.98614 -0.28916,1.37694 -0.58982,0.90018 -0.54527,1.1428 0.36612,1.99418 1.40645,1.31381 1.06826,2.10861 -1.68698,3.9647 l -1.29011,0.86909 0.16616,1.48571 c 0.0914,0.81714 0.22984,2.85492 0.30768,4.52841 0.0778,1.67349 0.33216,5.14712 0.56515,7.71917 0.39338,4.34266 0.3914,5.03199 -0.0278,9.6573 -0.57416,6.33476 -1.26392,11.55026 -2.25381,17.04187 -0.43057,2.38872 -1.14723,6.45982 -1.59256,9.0469 -0.58828,3.41752 -1.07312,5.36192 -1.77301,7.11061 -0.89402,2.23369 -1.04126,2.44126 -2.04682,2.88547 -0.59593,0.26325 -2.51225,0.66562 -4.2585,0.89415 -2.75576,0.36065 -3.31475,0.5195 -4.23334,1.203 -2.01899,1.50228 -3.42644,2.20982 -4.62057,2.3228 -0.66014,0.0625 -1.28956,0.0227 -1.3987,-0.0884 z m -22.69995,-24.25697 c 0.007,-0.25466 -0.0932,-0.46302 -0.22179,-0.46302 -0.2844,0 -0.55926,0.95167 -0.53493,1.85208 0.0175,0.64657 0.0261,0.64359 0.38133,-0.13229 0.1999,-0.43656 0.36882,-1.00211 0.37539,-1.25677 z m -0.51756,-5.29167 c -2.3e-4,-0.79848 -0.18057,-1.33405 -0.62206,-1.84738 -0.71494,-0.83128 -0.96553,-0.71788 -0.96413,0.43627 0.001,0.86701 0.86841,2.53559 1.31804,2.53559 0.14766,0 0.26833,-0.50601 0.26815,-1.12448 z m 12.53737,-1.71979 c -0.28646,-1.20451 -0.61344,-1.63264 -0.62275,-0.81539 -0.01,0.86799 0.23267,1.543 0.55447,1.543 0.13272,0 0.16345,-0.32743 0.0683,-0.72761 z m 6.77754,-3.50573 c -1.20077,-0.98001 -1.45701,-0.72377 -0.30529,0.30529 0.48673,0.4349 0.96214,0.71355 1.05646,0.61924 0.0943,-0.0943 -0.24371,-0.51036 -0.75117,-0.92453 z m -3.42849,-2.6251 c -0.1583,-0.29577 -0.5232,-0.66375 -0.81091,-0.81773 -0.84532,-0.4524 -0.67082,0.64469 0.2045,1.2857 0.79426,0.58166 1.05887,0.37746 0.60641,-0.46797 z m 2.38294,-14.52996 c 0.79528,-0.64398 0.4699,-1.12925 -0.61836,-0.92222 -1.0834,0.2061 -1.07988,0.20196 -0.72947,0.8567 0.36249,0.67733 0.57926,0.68787 1.34783,0.0655 z"
       id="path1697" /></g></svg>
