<?xml version="1.0" encoding="UTF-8" standalone="no"?>
<!-- Created with Inkscape (http://www.inkscape.org/) -->

<svg
   width="350mm"
   height="200mm"
   viewBox="0 0 350 200"
   version="1.1"
   id="svg5"
   xml:space="preserve"
   inkscape:version="1.2.2 (b0a8486541, 2022-12-01)"
   sodipodi:docname="hs-straddle-silhouette.svg"
   xmlns:inkscape="http://www.inkscape.org/namespaces/inkscape"
   xmlns:sodipodi="http://sodipodi.sourceforge.net/DTD/sodipodi-0.dtd"
   xmlns="http://www.w3.org/2000/svg"
   xmlns:svg="http://www.w3.org/2000/svg"><sodipodi:namedview
     id="namedview7"
     pagecolor="#ffffff"
     bordercolor="#000000"
     borderopacity="0.25"
     inkscape:showpageshadow="2"
     inkscape:pageopacity="0.0"
     inkscape:pagecheckerboard="0"
     inkscape:deskcolor="#d1d1d1"
     inkscape:document-units="mm"
     showgrid="false"
     inkscape:zoom="1.2611162"
     inkscape:cx="256.91526"
     inkscape:cy="411.93666"
     inkscape:window-width="3374"
     inkscape:window-height="1371"
     inkscape:window-x="1986"
     inkscape:window-y="32"
     inkscape:window-maximized="1"
     inkscape:current-layer="layer1" /><defs
     id="defs2" /><g
     inkscape:label="Layer 1"
     inkscape:groupmode="layer"
     id="layer1"
     transform="translate(37.610417,-95.371192)"><path
       style="fill:#666666;fill-opacity:1;stroke-width:0.264583"
       d="m 111.81599,274.67247 c -0.84057,-0.17086 -1.8526,-0.57298 -2.24896,-0.89359 -1.11483,-0.90177 -2.15667,-1.28722 -4.02795,-1.49022 -1.82956,-0.19847 -2.91041,-0.69358 -2.91041,-1.33319 0,-0.27491 0.29418,-0.39121 0.99218,-0.39225 0.54571,-7.9e-4 1.44939,-0.12843 2.00818,-0.28359 0.98827,-0.27442 1.00319,-0.29626 0.54685,-0.80051 -0.42397,-0.46849 -0.4296,-0.55793 -0.0586,-0.92897 0.23907,-0.23907 1.09795,-0.47291 2.05605,-0.55979 1.02502,-0.0929 1.69728,-0.2842 1.78286,-0.50722 0.0756,-0.19692 0.34819,-0.35803 0.60585,-0.35803 0.25766,0 0.60026,-0.15881 0.76135,-0.3529 0.16947,-0.20421 0.46461,-3.13066 0.70043,-6.94532 0.64048,-10.36005 1.14581,-14.02613 2.38576,-17.30803 l 0.64976,-1.71979 -0.25529,-7.01146 c -0.17371,-4.7711 -0.39447,-7.60325 -0.69088,-8.86354 -0.50805,-2.16011 -0.57538,-7.98442 -0.12447,-10.76693 0.15786,-0.97411 0.72666,-3.23629 1.26401,-5.02709 0.97048,-3.23421 0.97709,-3.28871 0.98949,-8.15077 0.007,-2.69214 0.095,-5.02123 0.19576,-5.17575 0.10081,-0.15453 0.37313,-1.46422 0.60515,-2.91042 0.49661,-3.09539 1.18696,-5.52764 2.40561,-8.47544 0.78899,-1.90848 1.25219,-3.70342 1.83703,-7.1186 0.38712,-2.26066 0.36554,-6.32288 -0.0401,-7.5363 -0.2232,-0.66777 -0.32791,-1.55205 -0.23954,-2.02306 0.0863,-0.46023 0.0157,-1.14678 -0.15692,-1.52568 -0.23264,-0.5106 -0.23823,-0.85497 -0.0216,-1.33042 0.24794,-0.54416 0.0907,-1.15642 -1.03602,-4.0349 -0.73057,-1.86636 -1.46012,-3.75058 -1.62122,-4.18714 -0.47142,-1.27746 -1.28648,-2.52487 -1.54525,-2.36494 -0.13154,0.0813 -1.10429,-0.0895 -2.16166,-0.37962 -1.05738,-0.29009 -3.34911,-0.7217 -5.09274,-0.95915 -7.06244,-0.96174 -15.477545,-3.26686 -21.308115,-5.83686 -1.520333,-0.67013 -4.490635,-1.81566 -6.600687,-2.54563 -2.110053,-0.72997 -5.222034,-1.97463 -6.915515,-2.7659 -3.998095,-1.86811 -7.052593,-2.59607 -13.721985,-3.27029 -3.106613,-0.31404 -7.628263,-0.99352 -10.583333,-1.59039 -2.837656,-0.57314 -6.647656,-1.28539 -8.466667,-1.58277 -1.81901,-0.29739 -3.604947,-0.59832 -3.968749,-0.66874 -0.363803,-0.0704 -4.292865,-0.24121 -8.73125,-0.37952 -7.337626,-0.22865 -8.357857,-0.20673 -11.244792,0.24165 -3.087118,0.47947 -9.2305919,0.93249 -11.9062499,0.87796 -0.727604,-0.0148 -2.394479,-0.0448 -3.704166,-0.0666 -1.30968801,-0.0218 -2.75287101,-0.17003 -3.20707501,-0.32932 -0.59786099,-0.20968 -1.14047599,-0.20977 -1.96568399,-2.7e-4 -1.396344,0.35439 -2.103283,0.0506 -2.103283,-0.90377 0,-1.50617 1.786087,-3.0081 3.577211,-3.0081 0.62029499,0 1.34727499,-0.26704 2.06365999,-0.75804 1.89968301,-1.30203 3.42080001,-1.9095 5.33933701,-2.13229 3.68834,-0.42832 6.9774729,-2.51428 9.7333779,-6.17288 2.591618,-3.4405 4.899229,-5.23075 6.728436,-5.21994 1.248532,0.007 2.723946,1.08125 3.992735,2.90607 2.429756,3.49457 2.729648,3.58066 12.353784,3.54656 3.929063,-0.0139 10.537031,-0.17916 14.684375,-0.36719 11.090849,-0.50283 14.392759,-0.0858 20.860956,2.6349 4.195998,1.76494 6.830959,2.54637 10.756751,3.19005 3.807876,0.62434 6.852751,0.65486 11.1125,0.11135 3.72047,-0.47469 11.314138,-0.54378 16.801038,-0.15285 2.11006,0.15033 5.26521,0.34565 7.01146,0.43405 4.74372,0.24013 6.97457,0.58132 11.64167,1.78052 3.60781,0.92702 4.62429,1.08637 6.87917,1.0784 2.28899,-0.008 3.03836,-0.13559 5.55625,-0.94538 4.51524,-1.45217 8.61691,-2.27344 12.83229,-2.56938 2.11005,-0.14814 6.33677,-0.4496 9.39271,-0.66992 7.15741,-0.516 12.50708,-0.50598 16.87819,0.0316 6.27186,0.77138 11.54225,0.0149 18.77413,-2.69465 7.38782,-2.76799 11.92794,-3.4925 19.10918,-3.04945 8.95166,0.55227 21.61632,0.19765 24.2157,-0.67807 1.1975,-0.40342 1.61798,-0.72052 2.38125,-1.79579 0.50982,-0.71821 1.40803,-1.83135 1.99601,-2.47364 0.88879,-0.97089 1.27101,-1.19057 2.26674,-1.3028 1.75599,-0.19792 3.43101,0.76933 6.68589,3.8608 1.65222,1.56929 3.30944,2.88184 4.1705,3.30311 2.28594,1.11841 4.78954,1.73697 6.37804,1.57579 1.47389,-0.14955 4.3955,0.62915 5.25725,1.40122 0.30112,0.26979 0.7389,0.33316 1.48142,0.21442 2.31947,-0.37089 4.91691,2.18767 3.64628,3.5917 -0.34742,0.38389 -0.79423,0.5033 -1.81729,0.48568 -1.35517,-0.0233 -3.24213,0.28364 -5.98683,0.974 -2.1258,0.53468 -5.72908,0.76413 -12.30313,0.78342 -3.20146,0.009 -5.96781,0.10946 -6.14743,0.22237 -0.17963,0.11291 -3.21572,0.31522 -6.74688,0.44958 -6.42971,0.24465 -10.96482,0.79601 -17.19413,2.09038 -4.13598,0.8594 -8.48624,1.55261 -13.30322,2.11987 -5.50452,0.64823 -7.88426,1.2395 -10.71293,2.66172 -1.19773,0.60221 -2.93243,1.32804 -3.8549,1.61296 -0.92246,0.28492 -3.08223,1.18246 -4.79948,1.99454 -5.81623,2.75046 -14.48661,5.92693 -20.05561,7.34755 -1.45521,0.37122 -4.37224,0.96939 -6.48229,1.32928 -2.11005,0.35989 -4.64285,0.95813 -5.62844,1.32944 -0.98558,0.3713 -2.25876,0.67509 -2.82926,0.67509 -1.07017,0 -1.87089,0.68285 -1.85299,1.58023 0.004,0.22228 -0.29061,1.35665 -0.65565,2.52081 -0.36504,1.16417 -0.96006,3.06713 -1.32228,4.22881 -0.42412,1.36022 -0.56747,2.20323 -0.40268,2.36802 0.38576,0.38576 0.3076,1.68087 -0.16104,2.66846 -0.3815,0.80396 -0.38014,0.93474 0.0161,1.53946 0.36797,0.56159 0.38602,0.83306 0.12022,1.80722 -0.60661,2.2232 -0.0191,8.08281 1.58359,15.79515 0.5289,2.54507 0.89707,5.4017 1.11432,8.64605 0.29586,4.41808 0.28073,5.13031 -0.17164,8.0798 -0.5421,3.53451 -0.59899,2.88045 0.80355,9.23891 0.45671,2.07053 0.51587,8.3691 0.0974,10.37187 -0.16112,0.77115 -0.58248,2.41367 -0.93635,3.65005 -0.44577,1.55748 -0.75986,3.71112 -1.02255,7.01146 -0.20853,2.61992 -0.49845,5.1686 -0.64425,5.66373 -0.21328,0.72423 -0.13832,1.34499 0.38337,3.175 0.92386,3.24075 1.18933,6.92356 1.18958,16.50267 l 2.3e-4,8.40707 0.66146,0.25149 c 0.66964,0.25459 0.88176,0.89095 0.39687,1.19062 -0.59858,0.36995 -0.23659,0.72201 0.5754,0.55961 0.46199,-0.0924 1.59308,-0.0908 2.51354,0.003 1.50937,0.15464 1.67356,0.22998 1.67356,0.76789 0,0.51935 -0.24163,0.65563 -1.87011,1.05471 -1.66024,0.40686 -1.94543,0.5721 -2.54121,1.47239 -1.07488,1.62425 -2.15988,1.90153 -6.30465,1.61122 -3.4978,-0.245 -4.63875,-0.55907 -5.97569,-1.64491 -0.37639,-0.30571 -1.20983,-0.62281 -1.85208,-0.70467 -2.43009,-0.30975 -2.79676,-1.20222 -0.94081,-2.28988 1.01682,-0.5959 1.27159,-0.64292 2.15771,-0.39825 1.32233,0.36511 2.36036,-0.05 2.10859,-0.84328 -0.20615,-0.64951 0.27876,-1.30808 0.96315,-1.30808 0.27322,0 0.50731,-0.14883 0.52019,-0.33073 0.13958,-1.97056 -0.17066,-7.37266 -0.58102,-10.11698 -0.28315,-1.8936 -0.58366,-4.87167 -0.6678,-6.61792 -0.10113,-2.09899 -0.40804,-4.251 -0.90559,-6.35 -1.27706,-5.38754 -1.67672,-8.92936 -1.40559,-12.45668 0.12971,-1.68736 0.41786,-5.57835 0.32338,-5.63667 -0.0557,0.73302 -0.3029,0.41873 -0.63361,1.17052 -0.0909,0.2067 0.0282,0.62287 -0.0883,1.06952 0.0329,1.8525 -0.79927,3.64272 -0.8274,5.29332 0,1.35765 -1.07877,3.43038 -2.64936,5.09046 -0.87119,0.92082 -1.58397,1.83681 -1.58397,2.03552 0,0.19871 0.26704,0.54835 0.59344,0.77696 0.50059,0.35063 0.58534,0.63241 0.54162,1.80094 -0.0285,0.76191 -0.0608,2.0648 -0.0718,2.89532 -0.0273,2.06266 -0.77917,2.97921 -2.647,3.22699 -0.73195,0.0971 -1.76321,0.46997 -2.29169,0.82861 -1.16402,0.78992 -1.29928,0.79505 -2.91562,0.11056 -1.21739,-0.51555 -4.31495,-3.44759 -4.31951,-4.0887 -10e-4,-0.14552 -0.44838,-0.64277 -0.99409,-1.10501 -0.89233,-0.75583 -0.9583,-0.89626 -0.65542,-1.39515 0.24019,-0.39563 0.25916,-0.69977 0.0661,-1.06041 -0.43107,-0.80547 -0.31925,-1.35211 0.39083,-1.91066 0.3638,-0.28617 0.66146,-0.70103 0.66146,-0.92192 0,-0.22089 -0.52098,-1.01592 -1.15772,-1.76673 -1.64219,-1.93637 -2.28008,-3.34576 -2.44903,-5.411 -0.0799,-0.97622 -0.25709,-2.14476 -0.39384,-2.59674 -0.1565,-0.51729 -0.1546,-1.0691 0.005,-1.48925 0.18712,-0.49216 0.15046,-0.81498 -0.13957,-1.22905 -0.38354,-0.54759 -0.71015,-4.52398 -0.43181,-5.25731 0.14986,-0.39485 1.02789,-0.44096 1.25954,-0.0662 0.28632,0.46329 0.66322,0.28669 0.98814,-0.46302 0.17343,-0.40018 0.76538,-1.45356 1.31545,-2.34086 0.99763,-1.60924 2.06928,-5.22935 1.66048,-5.60919 -0.11003,-0.10224 -0.25772,-0.0235 -0.32819,0.17489 -0.0705,0.19842 -0.36171,0.55561 -0.64719,0.79375 -0.28548,0.23814 -1.04275,1.20688 -1.68283,2.15277 -0.64007,0.94588 -1.57097,2.28132 -2.06866,2.96764 -1.09734,1.51325 -1.15963,1.94887 -1.35393,9.46777 -0.0808,3.1287 -0.21498,6.1648 -0.29808,6.74688 -0.24326,1.70392 -1.87881,8.33799 -2.44618,9.92209 -0.2867,0.80049 -0.76855,3.31608 -1.07077,5.59021 -0.30223,2.27412 -0.96973,5.87793 -1.48334,8.00846 -0.79785,3.30954 -1.41662,7.43793 -1.44162,9.6183 -0.008,0.68773 0.43969,0.75513 1.78471,0.26876 0.8047,-0.29098 0.94364,-0.27106 1.27556,0.18287 0.61587,0.84226 0.45893,1.8874 -0.3862,2.57191 -0.41728,0.33796 -0.97074,0.94799 -1.22992,1.35561 -0.68354,1.07506 -1.71056,1.50177 -4.30786,1.78987 -1.26637,0.14047 -2.42155,0.29518 -2.56707,0.34381 -0.14552,0.0486 -0.95232,-0.0514 -1.79289,-0.22224 z m 36.19718,-55.72855 c -0.35914,-0.49446 -1.21004,-1.82414 -1.89087,-2.95484 -0.68084,-1.13071 -1.29331,-2.0004 -1.36106,-1.93266 -0.35209,0.3521 0.55783,3.68109 1.37882,5.04448 0.49907,0.82878 0.98076,1.84085 1.07041,2.24904 0.072,0.32773 0.37803,0.06 0.48981,-0.0338 0.25633,-0.21501 0.5755,-0.22478 0.78393,-0.12208 0.32753,0.16134 0.31677,1.28479 0.31954,1.17538 0.18206,1.33528 -0.43549,-2.92769 -0.79058,-3.42552 z"
       id="path376"
       sodipodi:nodetypes="cssssssscssssscsssscssssscsssssscsssssscsscsscssccscscssssssscsssssssssssssssssscssssssssssscsssssssssssssssscssscssssssssssssssscsccssssssssssscssssscsscssssssscsssscsssssscccscsssscc" /><path
       style="display:none;fill:#666666;fill-opacity:1;stroke-width:0.264583"
       d="m 111.81599,274.67247 c -0.84057,-0.17086 -1.8526,-0.57298 -2.24896,-0.89359 -1.11483,-0.90177 -2.15667,-1.28722 -4.02795,-1.49022 -1.82956,-0.19847 -2.91041,-0.69358 -2.91041,-1.33319 0,-0.27491 0.29418,-0.39121 0.99218,-0.39225 0.54571,-7.9e-4 1.44939,-0.12843 2.00818,-0.28359 0.98827,-0.27442 1.00319,-0.29626 0.54685,-0.80051 -0.42397,-0.46849 -0.4296,-0.55793 -0.0586,-0.92897 0.23907,-0.23907 1.09795,-0.47291 2.05605,-0.55979 1.02502,-0.0929 1.69728,-0.2842 1.78286,-0.50722 0.0756,-0.19692 0.34819,-0.35803 0.60585,-0.35803 0.25766,0 0.60026,-0.15881 0.76135,-0.3529 0.16947,-0.20421 0.46461,-3.13066 0.70043,-6.94532 0.64048,-10.36005 1.14581,-14.02613 2.38576,-17.30803 l 0.64976,-1.71979 -0.25529,-7.01146 c -0.17371,-4.7711 -0.39447,-7.60325 -0.69088,-8.86354 -0.50805,-2.16011 -0.57538,-7.98442 -0.12447,-10.76693 0.15786,-0.97411 0.72666,-3.23629 1.26401,-5.02709 0.97048,-3.23421 0.97709,-3.28871 0.98949,-8.15077 0.007,-2.69214 0.095,-5.02123 0.19576,-5.17575 0.10081,-0.15453 0.37313,-1.46422 0.60515,-2.91042 0.49661,-3.09539 1.18696,-5.52764 2.40561,-8.47544 0.78899,-1.90848 1.25219,-3.70342 1.83703,-7.1186 0.38712,-2.26066 0.36554,-6.32288 -0.0401,-7.5363 -0.2232,-0.66777 -0.32791,-1.55205 -0.23954,-2.02306 0.0863,-0.46023 0.0157,-1.14678 -0.15692,-1.52568 -0.23264,-0.5106 -0.23823,-0.85497 -0.0216,-1.33042 0.24794,-0.54416 0.0907,-1.15642 -1.03602,-4.0349 -0.73057,-1.86636 -1.46012,-3.75058 -1.62122,-4.18714 -0.47142,-1.27746 -1.28648,-2.52487 -1.54525,-2.36494 -0.13154,0.0813 -1.10429,-0.0895 -2.16166,-0.37962 -1.05738,-0.29009 -3.34911,-0.7217 -5.09274,-0.95915 -7.06244,-0.96174 -15.477545,-3.26686 -21.308115,-5.83686 -1.520333,-0.67013 -4.490635,-1.81566 -6.600687,-2.54563 -2.110053,-0.72997 -5.222034,-1.97463 -6.915515,-2.7659 -3.998095,-1.86811 -7.052593,-2.59607 -13.721985,-3.27029 -3.106613,-0.31404 -7.628263,-0.99352 -10.583333,-1.59039 -2.837656,-0.57314 -6.647656,-1.28539 -8.466667,-1.58277 -1.81901,-0.29739 -3.604947,-0.59832 -3.968749,-0.66874 -0.363803,-0.0704 -4.292865,-0.24121 -8.73125,-0.37952 -7.337626,-0.22865 -8.357857,-0.20673 -11.244792,0.24165 -3.087118,0.47947 -9.2305919,0.93249 -11.9062499,0.87796 -0.727604,-0.0148 -2.394479,-0.0448 -3.704166,-0.0666 -1.30968801,-0.0218 -2.75287101,-0.17003 -3.20707501,-0.32932 -0.59786099,-0.20968 -1.14047599,-0.20977 -1.96568399,-2.7e-4 -1.396344,0.35439 -2.103283,0.0506 -2.103283,-0.90377 0,-1.50617 1.786087,-3.0081 3.577211,-3.0081 0.62029499,0 1.34727499,-0.26704 2.06365999,-0.75804 1.89968301,-1.30203 3.42080001,-1.9095 5.33933701,-2.13229 3.68834,-0.42832 6.9774729,-2.51428 9.7333779,-6.17288 2.591618,-3.4405 4.899229,-5.23075 6.728436,-5.21994 1.248532,0.007 2.723946,1.08125 3.992735,2.90607 2.429756,3.49457 2.729648,3.58066 12.353784,3.54656 3.929063,-0.0139 10.537031,-0.17916 14.684375,-0.36719 11.090849,-0.50283 14.392759,-0.0858 20.860956,2.6349 4.195998,1.76494 6.830959,2.54637 10.756751,3.19005 3.807876,0.62434 6.852751,0.65486 11.1125,0.11135 3.72047,-0.47469 11.314138,-0.54378 16.801038,-0.15285 2.11006,0.15033 5.26521,0.34565 7.01146,0.43405 4.74372,0.24013 6.97457,0.58132 11.64167,1.78052 3.60781,0.92702 4.62429,1.08637 6.87917,1.0784 2.28899,-0.008 3.03836,-0.13559 5.55625,-0.94538 4.51524,-1.45217 8.61691,-2.27344 12.83229,-2.56938 2.11005,-0.14814 6.33677,-0.4496 9.39271,-0.66992 7.15741,-0.516 12.50708,-0.50598 16.87819,0.0316 6.27186,0.77138 11.54225,0.0149 18.77413,-2.69465 7.38782,-2.76799 11.92794,-3.4925 19.10918,-3.04945 8.95166,0.55227 21.61632,0.19765 24.2157,-0.67807 1.1975,-0.40342 1.61798,-0.72052 2.38125,-1.79579 0.50982,-0.71821 1.40803,-1.83135 1.99601,-2.47364 0.88879,-0.97089 1.27101,-1.19057 2.26674,-1.3028 1.75599,-0.19792 3.43101,0.76933 6.68589,3.8608 1.65222,1.56929 3.30944,2.88184 4.1705,3.30311 2.28594,1.11841 4.78954,1.73697 6.37804,1.57579 1.47389,-0.14955 4.3955,0.62915 5.25725,1.40122 0.30112,0.26979 0.7389,0.33316 1.48142,0.21442 2.31947,-0.37089 4.91691,2.18767 3.64628,3.5917 -0.34742,0.38389 -0.79423,0.5033 -1.81729,0.48568 -1.35517,-0.0233 -3.24213,0.28364 -5.98683,0.974 -2.1258,0.53468 -5.72908,0.76413 -12.30313,0.78342 -3.20146,0.009 -5.96781,0.10946 -6.14743,0.22237 -0.17963,0.11291 -3.21572,0.31522 -6.74688,0.44958 -6.42971,0.24465 -10.96482,0.79601 -17.19413,2.09038 -4.13598,0.8594 -8.48624,1.55261 -13.30322,2.11987 -5.50452,0.64823 -7.88426,1.2395 -10.71293,2.66172 -1.19773,0.60221 -2.93243,1.32804 -3.8549,1.61296 -0.92246,0.28492 -3.08223,1.18246 -4.79948,1.99454 -5.81623,2.75046 -14.48661,5.92693 -20.05561,7.34755 -1.45521,0.37122 -4.37224,0.96939 -6.48229,1.32928 -2.11005,0.35989 -4.64285,0.95813 -5.62844,1.32944 -0.98558,0.3713 -2.25876,0.67509 -2.82926,0.67509 -1.07017,0 -1.87089,0.68285 -1.85299,1.58023 0.004,0.22228 -0.29061,1.35665 -0.65565,2.52081 -0.36504,1.16417 -0.96006,3.06713 -1.32228,4.22881 -0.42412,1.36022 -0.56747,2.20323 -0.40268,2.36802 0.38576,0.38576 0.3076,1.68087 -0.16104,2.66846 -0.3815,0.80396 -0.38014,0.93474 0.0161,1.53946 0.36797,0.56159 0.38602,0.83306 0.12022,1.80722 -0.60661,2.2232 -0.0191,8.08281 1.58359,15.79515 0.5289,2.54507 0.89707,5.4017 1.11432,8.64605 0.29586,4.41808 0.28073,5.13031 -0.17164,8.0798 -0.5421,3.53451 -0.59899,2.88045 0.80355,9.23891 0.45671,2.07053 0.51587,8.3691 0.0974,10.37187 -0.16112,0.77115 -0.58248,2.41367 -0.93635,3.65005 -0.44577,1.55748 -0.75986,3.71112 -1.02255,7.01146 -0.20853,2.61992 -0.49845,5.1686 -0.64425,5.66373 -0.21328,0.72423 -0.13832,1.34499 0.38337,3.175 0.92386,3.24075 1.18933,6.92356 1.18958,16.50267 l 2.3e-4,8.40707 0.66146,0.25149 c 0.66964,0.25459 0.88176,0.89095 0.39687,1.19062 -0.59858,0.36995 -0.23659,0.72201 0.5754,0.55961 0.46199,-0.0924 1.59308,-0.0908 2.51354,0.003 1.50937,0.15464 1.67356,0.22998 1.67356,0.76789 0,0.51935 -0.24163,0.65563 -1.87011,1.05471 -1.66024,0.40686 -1.94543,0.5721 -2.54121,1.47239 -1.07488,1.62425 -2.15988,1.90153 -6.30465,1.61122 -3.4978,-0.245 -4.63875,-0.55907 -5.97569,-1.64491 -0.37639,-0.30571 -1.20983,-0.62281 -1.85208,-0.70467 -2.43009,-0.30975 -2.79676,-1.20222 -0.94081,-2.28988 1.01682,-0.5959 1.27159,-0.64292 2.15771,-0.39825 1.32233,0.36511 2.36036,-0.05 2.10859,-0.84328 -0.20615,-0.64951 0.27876,-1.30808 0.96315,-1.30808 0.27322,0 0.50731,-0.14883 0.52019,-0.33073 0.13958,-1.97056 -0.17066,-7.37266 -0.58102,-10.11698 -0.28315,-1.8936 -0.58366,-4.87167 -0.6678,-6.61792 -0.10113,-2.09899 -0.40804,-4.251 -0.90559,-6.35 -1.27706,-5.38754 -1.67672,-8.92936 -1.40559,-12.45668 0.12971,-1.68736 0.15855,-3.11569 0.0641,-3.17407 -0.3803,-0.23503 -0.81429,0.72675 -0.69457,1.53927 0.0699,0.47427 -0.0355,1.32377 -0.2342,1.88777 -0.19869,0.564 -0.36125,1.30367 -0.36125,1.64372 0,1.35765 -1.07877,3.43038 -2.64936,5.09046 -0.87119,0.92082 -1.58397,1.83681 -1.58397,2.03552 0,0.19871 0.26704,0.54835 0.59344,0.77696 0.50059,0.35063 0.58534,0.63241 0.54162,1.80094 -0.0285,0.76191 -0.0608,2.0648 -0.0718,2.89532 -0.0273,2.06266 -0.77917,2.97921 -2.647,3.22699 -0.73195,0.0971 -1.76321,0.46997 -2.29169,0.82861 -1.16402,0.78992 -1.29928,0.79505 -2.91562,0.11056 -1.21739,-0.51555 -4.31495,-3.44759 -4.31951,-4.0887 -0.001,-0.14552 -0.44838,-0.64277 -0.99409,-1.10501 -0.89233,-0.75583 -0.9583,-0.89626 -0.65542,-1.39515 0.24019,-0.39563 0.25916,-0.69977 0.0661,-1.06041 -0.43107,-0.80547 -0.31925,-1.35211 0.39083,-1.91066 0.3638,-0.28617 0.66146,-0.70103 0.66146,-0.92192 0,-0.22089 -0.52098,-1.01592 -1.15772,-1.76673 -1.64219,-1.93637 -2.28008,-3.34576 -2.44903,-5.411 -0.0799,-0.97622 -0.25709,-2.14476 -0.39384,-2.59674 -0.1565,-0.51729 -0.1546,-1.0691 0.005,-1.48925 0.18712,-0.49216 0.15046,-0.81498 -0.13957,-1.22905 -0.38354,-0.54759 -0.71015,-4.52398 -0.43181,-5.25731 0.14986,-0.39485 1.02789,-0.44096 1.25954,-0.0662 0.28632,0.46329 0.66322,0.28669 0.98814,-0.46302 0.17343,-0.40018 0.76538,-1.45356 1.31545,-2.34086 0.99763,-1.60924 2.06928,-5.22935 1.66048,-5.60919 -0.11003,-0.10224 -0.25772,-0.0235 -0.32819,0.17489 -0.0705,0.19842 -0.36171,0.55561 -0.64719,0.79375 -0.28548,0.23814 -1.04275,1.20688 -1.68283,2.15277 -0.64007,0.94588 -1.57097,2.28132 -2.06866,2.96764 -1.09734,1.51325 -1.15963,1.94887 -1.35393,9.46777 -0.0808,3.1287 -0.21498,6.1648 -0.29808,6.74688 -0.24326,1.70392 -1.87881,8.33799 -2.44618,9.92209 -0.2867,0.80049 -0.76855,3.31608 -1.07077,5.59021 -0.30223,2.27412 -0.96973,5.87793 -1.48334,8.00846 -0.79785,3.30954 -1.41662,7.43793 -1.44162,9.6183 -0.008,0.68773 0.43969,0.75513 1.78471,0.26876 0.8047,-0.29098 0.94364,-0.27106 1.27556,0.18287 0.61587,0.84226 0.45893,1.8874 -0.3862,2.57191 -0.41728,0.33796 -0.97074,0.94799 -1.22992,1.35561 -0.68354,1.07506 -1.71056,1.50177 -4.30786,1.78987 -1.26637,0.14047 -2.42155,0.29518 -2.56707,0.34381 -0.14552,0.0486 -0.95232,-0.0514 -1.79289,-0.22224 z m 36.9791,-50.63372 c -0.0515,-0.0515 -0.2207,-0.0152 -0.3759,0.0807 -0.32139,0.19863 -0.36393,1.2824 -0.0887,2.25984 0.15117,0.53687 0.22129,0.38756 0.37229,-0.79268 0.10233,-0.79977 0.14387,-1.4963 0.0923,-1.54785 z m -0.13395,-2.48812 c 0.0338,-1.33469 -0.0921,-1.84143 -0.64797,-2.60671 -0.35914,-0.49446 -1.21004,-1.82414 -1.89087,-2.95484 -0.68084,-1.13071 -1.29331,-2.0004 -1.36106,-1.93266 -0.35209,0.3521 0.55783,3.68109 1.37882,5.04448 0.49907,0.82878 0.98075,1.84085 1.07041,2.24904 0.13888,0.63235 0.25789,0.71678 0.80432,0.57064 0.35272,-0.0943 0.64358,-0.26081 0.64635,-0.36995 z"
       id="path2503" /></g></svg>
