<?xml version="1.0" encoding="UTF-8" standalone="no"?>
<!-- Created with Inkscape (http://www.inkscape.org/) -->

<svg
   version="1.1"
   id="svg2387"
   width="1100"
   height="900"
   viewBox="0 0 1100 900"
   sodipodi:docname="hs-tuck-silhouette.svg"
   xml:space="preserve"
   inkscape:version="1.2.2 (b0a8486541, 2022-12-01)"
   xmlns:inkscape="http://www.inkscape.org/namespaces/inkscape"
   xmlns:sodipodi="http://sodipodi.sourceforge.net/DTD/sodipodi-0.dtd"
   xmlns="http://www.w3.org/2000/svg"
   xmlns:svg="http://www.w3.org/2000/svg"><defs
     id="defs2391"><linearGradient
       id="linearGradient3742"
       inkscape:swatch="solid"><stop
         style="stop-color:#ff0000;stop-opacity:1;"
         offset="0"
         id="stop3740" /></linearGradient></defs><sodipodi:namedview
     id="namedview2389"
     pagecolor="#ffffff"
     bordercolor="#000000"
     borderopacity="0.25"
     inkscape:showpageshadow="2"
     inkscape:pageopacity="0.0"
     inkscape:pagecheckerboard="0"
     inkscape:deskcolor="#d1d1d1"
     showgrid="false"
     inkscape:zoom="1.1064189"
     inkscape:cx="496.19542"
     inkscape:cy="449.64885"
     inkscape:window-width="3374"
     inkscape:window-height="1371"
     inkscape:window-x="1986"
     inkscape:window-y="32"
     inkscape:window-maximized="1"
     inkscape:current-layer="g2393" /><g
     inkscape:groupmode="layer"
     inkscape:label="Image"
     id="g2393"><path
       style="fill:#666666;fill-opacity:1;stroke:none;stroke-width:1;stroke-dasharray:none;stroke-opacity:1"
       d="m 595.06109,777.78874 c -2.32479,-3.41904 -7.63431,-7.78799 -9.92432,-11.24686 -0.59343,-1.08982 2.00116,-1.88638 6.60757,1.05928 1.64646,1.05286 4.72507,2.72453 7.08199,3.37994 9.74834,2.48898 15.47,2.5183 14.70104,0.48332 -0.32772,-0.86726 -4.45336,-3.86016 -9.71635,-6.26039 -5.37541,-2.45149 -11.87189,-4.30375 -10.39782,-4.48153 0.7053,-0.0851 6.16623,-0.1492 7.39743,0.67309 8.89819,5.94295 19.32457,7.00773 18.84205,4.81203 -1.89004,-4.58722 -6.33203,-4.31837 -9.70499,-7.62763 2.47885,-1.75201 11.79681,3.39871 12.70648,-1.99157 0.35752,-2.11849 -24.55918,-8.84782 -25.39042,-8.93562 -3.00012,-0.31688 -4.2337,-0.20824 -6.93061,-3.12953 -2.84564,-1.87056 1.1735,-3.4279 -11.12587,-3.45299 -9.4954,-0.0421 -9.68336,4.11946 -9.69551,-2.7688 1.29933,-6.47741 1.59556,-23.14572 4.07386,-25.73087 2.09453,-1.9128 8.49435,-0.50879 8.49435,-0.50879 2.03109,0.2559 3.34472,2.20137 6.19816,3.53759 6.08306,2.8486 8.15489,4.76634 9.92923,2.62839 1.02914,-1.24003 1.05555,-1.99229 0.12245,-3.48643 -0.65441,-1.04788 -5.19087,-5.64566 -5.19087,-5.91619 0,-0.27054 7.29928,-0.22882 13.86427,0.50806 6.565,0.73688 16.48836,2.20547 18.11745,1.66183 1.62909,-0.54364 0.46289,-4.86004 -0.7589,-5.36457 -2.63432,-1.08782 2.51759,-0.8603 0.26734,-3.05493 -2.25025,-2.19463 -14.48066,-2.35149 -23.09212,-5.00869 -4.95481,-1.52888 -7.61806,-2.93714 -10.63777,-2.88515 -7.02306,0.30574 -9.25758,-0.59252 -11.58995,-1.86772 6.65709,-23.01196 7.39476,-30.49156 5.93855,-41.87169 -0.56414,-4.4087 0.25928,-8.80998 0.89632,-12.90377 1.81897,-11.68922 1.4143,-11 6.45855,-11 2.48187,0 7.0858,-0.84872 10.23095,-1.88604 13.69012,-3.09122 21.20234,-4.70419 25.65551,-10.40105 4.75476,-6.08268 6.16348,-16.70843 9.35294,-29.18491 0.26918,-0.26919 2.43064,2.17204 4.01108,3.10563 4.85172,2.86598 11.48282,-1.5631 14.45458,-7.02897 2.47436,-4.55102 2.37328,-8.28949 2.09826,-12.29056 -0.40471,-5.88786 -2.65807,-11.4303 -6.62182,-13.80949 -3.36782,-2.02149 -9.13366,0.11652 -12.61733,-0.41952 -6.05731,-0.93204 -7.62739,-0.68461 -11.77491,2.60407 -8.91722,-10.17484 -15.52794,-7.71387 -17.62116,-9.63836 -0.55224,-0.69718 1.21039,-15.49177 0.78729,-30.5508 -0.41724,-14.85 -1.02164,-28.40399 -1.06107,-31.43013 -0.0818,-6.27536 -7.12406,-28.63757 -6.64077,-37.59233 1.39781,-25.89989 7.42738,-31.11211 12.49642,-44.88555 4.14074,-7.79525 6.42729,-9.27612 12.77526,-16.39997 11.68917,-13.13813 23.16039,-27.41051 21.80099,-46.35375 -1.73424,-24.16683 -12.93501,-41.36286 -35.19636,-51.73754 -4.01923,-1.87313 -11.21923,-4.2566 -16,-5.29661 -12.22599,-2.65964 -40.19105,-3.91528 -56.53711,-3.91915 -12.82381,-0.003 -12.89261,1.46084 -12.17839,-0.15868 1.85294,-6.55447 1.45421,-4.3721 4.47914,-10.0195 4.70934,-8.79211 13.28298,-24.75508 17.40583,-31.23366 5.31939,-8.8183 18.43603,-23.34632 19.95343,-24.34016 2.97767,-1.95026 13.03226,0.73746 21.19175,-1.91246 16.61808,-5.3966 -1.97928,-32.54967 -1.98286,-43.9744 0.21107,-6.28729 0.0329,-20.25101 2.66429,-27.2636 1.29075,-3.43975 3.76981,-4.55875 4.32047,-6.21323 1.13567,-2.71803 1.18266,-4.10647 0.23855,-7.04896 -2.04381,-6.36998 -6.03267,-8.26797 -7.58211,-5.35913 -0.20486,0.3846 -0.26044,1.90507 -0.90791,2.47667 -0.87732,0.77453 -2.42432,0.65787 -3.74847,1.27333 -1.28067,0.59526 -3.59566,0.91574 -4.58194,2.00132 -0.88553,0.9747 -0.4633,2.68121 -1.23144,3.82633 -1.01379,1.51132 -2.16627,2.54591 -2.80723,5.02965 -0.97201,3.76655 -5.8571,14.35868 -7.82323,19.39213 -1.96614,5.03345 -9.048,18.07102 -10.94606,22.23738 -10.71874,15.37719 -29.2271,30.2145 -42.43757,40.84849 -17.03403,11.4343 -28.44126,21.62795 -43.40857,35.04946 -17.59114,15.77434 -43.08884,28.9633 -25.34725,57.16445 8.18843,13.01592 41.91999,28.72251 79.44934,40.9926 8.70687,2.84668 19.44575,5.4861 19.8118,5.84907 1.01214,1.00362 -6.99773,17.52575 -19.919,41.99793 -6.38878,12.1 -12.5518,24.81122 -13.69561,28.24716 -3.39244,10.19072 -5.58335,12.63841 -5.72568,42.18897 -0.0463,9.61208 -2.59852,26.93972 -0.13472,36.31461 2.7516,10.47001 11.46236,20.07617 17.14131,26.03424 5.98293,6.25008 18.22977,14.87161 19.74057,17.19885 5.00741,7.71338 5.29412,8.47258 9.83492,14.73479 -6.07661,6.78583 -11.25028,7.02586 -6.78373,16.06074 1.50506,5.75927 -0.0248,7.46671 -0.89418,9.37494 -0.94239,2.06831 4.78381,1.68393 3.40142,2.92452 -1.10809,0.99441 -1.27764,2.14155 -1.07921,2.60898 0.22552,0.53123 2.13149,0.9783 3.19206,1.73197 0.27726,0.19703 1.13359,0.41922 0.3201,11.17979 -0.47816,6.325 -0.89536,19.0295 -0.9271,28.23221 -0.0375,10.87654 -0.79493,22.42536 -2.16426,33 -1.89475,14.63217 -2.04186,19.22712 -1.46315,45.70114 0.64044,29.29753 1.93494,33.20677 5.15008,44.28372 2.079,7.1627 7.33494,6.80128 20.36001,8.75797 8.24595,1.23875 5.30064,4.08412 9.35969,7.18344 4.8023,3.66683 12.60127,4.17392 12.62061,1.49196 z"
       id="path3725"
       sodipodi:nodetypes="ccscssssccssccccssssszzszsccssscscsssssccsssccsssscscsscscssssssssccsssssssscsccssssssssssssc" /></g></svg>
