<?xml version="1.0" encoding="UTF-8" standalone="no"?>
<!-- Created with Inkscape (http://www.inkscape.org/) -->

<svg
   version="1.1"
   id="svg13476"
   width="1400"
   height="800"
   viewBox="0 0 1400 800"
   sodipodi:docname="long-leg-monkey-silhouette-thumb.svg"
   inkscape:version="1.2.2 (b0a8486541, 2022-12-01)"
   xmlns:inkscape="http://www.inkscape.org/namespaces/inkscape"
   xmlns:sodipodi="http://sodipodi.sourceforge.net/DTD/sodipodi-0.dtd"
   xmlns="http://www.w3.org/2000/svg"
   xmlns:svg="http://www.w3.org/2000/svg">
  <defs
     id="defs13480" />
  <sodipodi:namedview
     id="namedview13478"
     pagecolor="#ffffff"
     bordercolor="#000000"
     borderopacity="0.25"
     inkscape:showpageshadow="2"
     inkscape:pageopacity="0.0"
     inkscape:pagecheckerboard="0"
     inkscape:deskcolor="#d1d1d1"
     showgrid="false"
     inkscape:zoom="0.97470238"
     inkscape:cx="251.35878"
     inkscape:cy="298.03969"
     inkscape:window-width="3374"
     inkscape:window-height="1371"
     inkscape:window-x="1986"
     inkscape:window-y="32"
     inkscape:window-maximized="1"
     inkscape:current-layer="g13482" />
  <g
     inkscape:groupmode="layer"
     inkscape:label="Image"
     id="g13482"
     transform="translate(-334.92619,-88.09075)">
    <path
       style="fill:#666666;fill-opacity:1"
       d="m 1258.8893,763.54538 c -7.7932,-7.84397 -9.968,-9.5 -12.4764,-9.5 -4.1635,0 -7.5454,3.64002 -8.445,9.08954 -0.9409,5.6998 -2.0098,6.91046 -6.1014,6.91046 -5.3122,0 -6.5952,-2.91528 -6.2152,-14.12231 l 0.3146,-9.27621 -5,-1.87801 c -2.75,-1.0329 -7.9648,-2.12741 -11.5885,-2.43224 -5.8098,-0.48872 -6.8192,-0.30661 -8.5402,1.54064 -2.5639,2.75197 -8.4728,5.16813 -12.6391,5.16813 -6.1891,0 -7.7105,-4.45508 -2.7322,-8 1.65,-1.1749 3,-2.7021 3,-3.39378 0,-2.15003 4.1314,-5.05285 14.1323,-9.92989 6.6311,-3.23368 10.9153,-6.08913 13.75,-9.16444 l 4.1177,-4.4672 v -10.0471 c 0,-9.49473 -0.1237,-10.09493 -2.25,-10.9172 -3.6051,-1.39417 -11.5403,-10.64858 -12.8345,-14.96826 -0.9939,-3.31723 -0.8191,-6.29852 1.0692,-18.23712 2.5876,-16.35968 2.3556,-24.09445 -0.943,-31.43621 -2.3857,-5.31009 -3.7053,-14.65868 -2.658,-18.83125 0.3549,-1.41398 2.0203,-4.13696 3.7009,-6.05107 2.1703,-2.47179 2.9629,-4.28807 2.7355,-6.26834 -0.3158,-2.75064 -0.4209,-2.79124 -7.8201,-3.01889 -10.593,-0.32591 -50.0414,-3.22551 -59,-4.33673 -4.125,-0.51166 -12.3192,-1.87356 -18.2094,-3.02644 l -10.7094,-2.09615 -6.2906,2.07186 c -8.4264,2.7753 -16.383,4.53675 -34.2906,7.59128 -15.0021,2.55895 -56.1583,11.19775 -57.604,12.09124 -0.4216,0.26054 -1.7296,3.05265 -2.9067,6.2047 -4.3764,11.71912 -9.2867,21.88797 -16.72031,34.62691 -8.79782,15.07669 -16.11735,30.18888 -22.58414,46.62806 -6.2033,15.76937 -6.30236,16.30003 -3.71982,19.92687 2.60164,3.65366 13.42556,10.25909 21.1862,12.92914 3.09757,1.06573 7.94265,3.52716 10.76687,5.46985 2.8241,1.9427 5.9743,3.79863 7.0004,4.12429 2.4275,0.77046 3.2216,3.95266 1.5545,6.22939 -1.7757,2.4251 -9.5017,2.1716 -16.04239,-0.52637 -2.71182,-1.11859 -7.49209,-2.32019 -10.62283,-2.67022 -6.46271,-0.72255 -16.80775,1.24189 -16.80775,3.19166 0,0.68411 1.36526,4.96928 3.03391,9.52262 3.36958,9.19474 3.23706,12.42169 -0.54914,13.37197 -4.35933,1.09412 -7.0394,-0.27912 -8.99094,-4.60686 -2.08795,-4.63026 -8.6234,-10.98632 -11.29638,-10.98632 -1.37474,0 -2.32013,1.77886 -4.02485,7.57319 -2.43575,8.27909 -5.62518,12.42681 -9.55572,12.42681 -3.32982,0 -5.93848,-2.73235 -5.15465,-5.39908 1.15612,-3.93337 2.71989,-14.75213 2.20651,-15.26552 -0.97182,-0.97181 -6.61662,4.01075 -11.13383,9.82762 -4.1947,5.40157 -4.83362,5.83698 -8.56525,5.83698 -5.83233,0 -6.08694,-1.96016 -1.40018,-10.77972 2.16179,-4.06806 4.09673,-7.85546 4.29987,-8.41644 0.54538,-1.50603 -6.71089,-0.0686 -16.70178,3.30853 -4.69851,1.5882 -9.71833,2.88763 -11.15516,2.88763 -2.51944,0 -5.01241,-1.57627 -5.01241,-3.16927 0,-1.36617 11.07803,-7.90455 20.1765,-11.9084 11.23058,-4.9421 13.5554,-6.49005 15.50065,-10.32083 0.86621,-1.70582 3.85833,-6.20311 6.64916,-9.99396 3.86063,-5.24401 6.12381,-9.90779 9.46267,-19.5 8.84125,-25.40002 11.51015,-34.02338 16.79055,-54.25099 2.96392,-11.3539 5.85872,-21.87902 6.43287,-23.38917 l 1.04392,-2.74572 -6.53854,0.52485 c -5.90276,0.47382 -7.69323,1.21767 -18.41349,7.64989 -23.40486,14.04306 -33.33236,17.18726 -53.51396,16.94873 -10.20604,-0.12062 -18.92928,0.6495 -39.59033,3.49521 -31.83774,4.3851 -44.15419,6.8637 -53.63683,10.79402 -8.14438,3.37566 -9.41642,4.56143 -11.82788,11.02586 -2.37665,6.3711 -5.91298,9.44264 -12.99541,11.28738 -8.19592,2.13476 -16.40179,1.97181 -22.53988,-0.4476 -2.79072,-1.1 -6.51988,-1.99722 -8.28702,-1.99381 -1.92678,0.004 -9.61801,3.05742 -19.21298,7.62829 -14.64048,6.97445 -16.86691,7.73732 -26.2026,8.97812 -5.61143,0.74582 -12.13643,1.80208 -14.5,2.34727 -7.42083,1.71169 -14.53221,1.30532 -16.7974,-0.95987 -3.14221,-3.14221 -2.65854,-8.26809 1.07673,-11.41111 1.69219,-1.42389 3.43645,-2.58889 3.87613,-2.58889 0.43967,0 2.50926,-3.25386 4.59908,-7.23079 3.67286,-6.98947 10.98567,-15.91619 14.64135,-17.87265 0.97738,-0.52308 8.56646,-2.73337 16.86462,-4.91176 16.16625,-4.24388 40.11941,-13.17783 47.03296,-17.54216 2.32617,-1.46845 10.56984,-4.82023 18.31927,-7.44841 7.74942,-2.62817 25.11486,-9.35976 38.58986,-14.95908 67.39599,-28.00531 78.09724,-31.84218 104.86572,-37.59898 17.78793,-3.82546 18.28719,-4.00578 25.412,-9.1785 2.62774,-1.90779 7.80274,-4.37546 11.5,-5.48372 8.42808,-2.52633 31.16049,-13.95195 41.71062,-20.96432 l 7.98834,-5.30963 1.18617,-7.1975 c 0.6524,-3.95863 1.70229,-13.40863 2.33309,-21 1.92918,-23.21653 3.85026,-32.29501 10.75023,-50.8025 1.6404,-4.4 3.765,-12.725 4.7213,-18.5 1.8997,-11.47155 4.2571,-18.52562 10.0256,-30 5.5189,-10.97777 8.7836,-15.4062 19.3083,-26.19109 l 9.4572,-9.69109 0.4993,-6.97842 c 0.6745,-9.42657 0.048,-11.22136 -5.2395,-15.0188 -7.3921,-5.30861 -7.5095,-5.82996 -6.5786,-29.19887 0.7844,-19.68863 0.7411,-20.50132 -1.2063,-22.63863 -4.463,-4.89823 0.2507,-18.131 9.8687,-27.70452 8.1805,-8.14268 22.001,-20.49459 26.1094,-23.33501 2.0836,-1.44057 5.9228,-4.07713 8.5314,-5.85904 5.3554,-3.65816 12.2318,-5.39292 21.7597,-5.48948 8.1081,-0.0822 10.2707,-1.43297 12.5813,-7.85845 2.5247,-7.02106 5.9799,-10.15683 17.6262,-15.99673 10.9655,-5.49847 12.549,-5.74458 25.4675,-3.9582 11.1551,1.54253 16.1963,4.57807 23.0346,13.87003 3.0552,4.15156 6.4482,9.57329 7.54,12.04829 1.0917,2.475 4.9046,10.78753 8.4729,18.4723 3.5684,7.68476 7.8421,17.80976 9.497,22.5 1.655,4.69023 4.8054,12.5777 7.0009,17.5277 2.1955,4.95 5.0586,11.80579 6.3624,15.23509 3.1015,8.15727 8.0262,17.954 11.0488,21.97974 1.8406,2.45132 4.0112,3.69182 9.1398,5.22332 8.1245,2.42613 11.0053,4.32767 12.7904,8.44255 0.7442,1.71562 4.2977,7.16931 7.8967,12.11931 13.7043,18.84903 21.7798,40.09469 23.186,61 0.5291,7.86607 -1.3113,34.84361 -3.2575,47.75 -0.4895,3.2463 -0.3031,3.75 1.3876,3.75 2.898,0 7.2227,3.821 7.2227,6.38145 0,3.49557 2.1151,5.32371 7,6.05042 7.0493,1.04868 22.1285,6.42867 25.7407,9.18384 1.8011,1.37376 6.0599,3.41207 9.4639,4.52957 28.8707,9.47776 48.2001,20.9077 66.311,39.21136 16.1058,16.27723 19.4618,23.38731 19.4787,41.26763 0.01,6.88146 -1.1532,10.72362 -6.6222,21.93933 -9.7345,19.96317 -23.6413,27.51924 -58.872,31.98735 -10.5681,1.34029 -20.0063,1.58327 -50.4528,1.29888 l -37.4528,-0.34983 -1.7295,17 c -0.9512,9.35 -2.435,23.6247 -3.2972,31.72156 -0.8623,8.09686 -1.5678,20.89767 -1.5678,28.44625 0,13.15563 0.108,13.88042 2.6029,17.48061 3.7331,5.38687 16.9441,16.75776 24.226,20.85158 19.5907,11.01377 23.6712,13.69826 23.6712,15.57297 0,2.8428 -6.7812,3.09272 -12.8881,0.47501 -6.9197,-2.96613 -7.3562,-2.57901 -2.7393,2.42968 5.9045,6.40563 5.321,8.52234 -2.3494,8.52234 -2.4084,0 -5.3475,-1.4596 -10.7631,-5.34513 -10.3769,-7.44508 -10.1994,-7.35291 -8.7156,-4.52555 0.6842,1.30388 2.7541,4.05948 4.5998,6.12356 5.3496,5.98283 4.3082,8.74712 -3.2953,8.74712 -3.076,0 -4.6005,-1.12042 -12.9257,-9.5 z M 1064.5532,489.75315 c 1.0301,-2.26084 7.7394,-6.70777 10.1203,-6.70777 0.7212,0 1.8734,-0.9 2.5604,-2 0.6869,-1.1 1.8504,-2 2.5855,-2 4.1459,0 6.4815,-9.20288 3.6692,-14.4576 -1.2659,-2.3653 -1.7883,-2.55013 -5.5951,-1.97927 -4.5552,0.6831 -8.0121,-0.58992 -10.2787,-3.78528 -1.2748,-1.79714 -1.4573,-1.80873 -3.2291,-0.20528 -2.6745,2.4204 -5.36,10.226 -7.8881,22.92743 -1.2042,6.05 -2.437,12.04951 -2.7396,13.33224 l -0.5502,2.33224 5.1669,-2.61827 c 2.8418,-1.44005 5.6221,-3.61734 6.1785,-4.83844 z"
       id="path13966" />
  </g>
</svg>
