<?xml version="1.0" encoding="UTF-8" standalone="no"?>
<!-- Created with Inkscape (http://www.inkscape.org/) -->

<svg
   version="1.1"
   id="svg13476"
   width="800"
   height="600"
   viewBox="0 0 800 600"
   sodipodi:docname="long-leg-monkey-silhouette.svg"
   inkscape:version="1.2.2 (b0a8486541, 2022-12-01)"
   xmlns:inkscape="http://www.inkscape.org/namespaces/inkscape"
   xmlns:sodipodi="http://sodipodi.sourceforge.net/DTD/sodipodi-0.dtd"
   xmlns="http://www.w3.org/2000/svg"
   xmlns:svg="http://www.w3.org/2000/svg">
  <defs
     id="defs13480" />
  <sodipodi:namedview
     id="namedview13478"
     pagecolor="#ffffff"
     bordercolor="#000000"
     borderopacity="0.25"
     inkscape:showpageshadow="2"
     inkscape:pageopacity="0.0"
     inkscape:pagecheckerboard="0"
     inkscape:deskcolor="#d1d1d1"
     showgrid="false"
     inkscape:zoom="0.97470238"
     inkscape:cx="251.35878"
     inkscape:cy="295.98779"
     inkscape:window-width="3374"
     inkscape:window-height="1371"
     inkscape:window-x="1986"
     inkscape:window-y="32"
     inkscape:window-maximized="1"
     inkscape:current-layer="g13482" />
  <g
     inkscape:groupmode="layer"
     inkscape:label="Image"
     id="g13482"
     transform="translate(-334.92619,-88.09075)">
    <path
       style="fill:#666666;fill-opacity:1"
       d="m 958.88929,663.54538 c -7.79313,-7.84397 -9.968,-9.5 -12.47634,-9.5 -4.16352,0 -7.54545,3.64002 -8.44505,9.08954 -0.94091,5.6998 -2.00982,6.91046 -6.10133,6.91046 -5.31226,0 -6.59527,-2.91528 -6.2152,-14.12231 l 0.31459,-9.27621 -5,-1.87801 c -2.75,-1.0329 -7.96484,-2.12741 -11.58853,-2.43224 -5.80976,-0.48872 -6.81923,-0.30661 -8.5402,1.54064 -2.56386,2.75197 -8.4728,5.16813 -12.63915,5.16813 -6.18902,0 -7.7105,-4.45508 -2.73212,-8 1.65,-1.1749 3,-2.7021 3,-3.39378 0,-2.15003 4.13132,-5.05285 14.13228,-9.92989 6.63105,-3.23368 10.91527,-6.08913 13.75,-9.16444 l 4.11772,-4.4672 v -10.0471 c 0,-9.49473 -0.1237,-10.09493 -2.25,-10.9172 -3.60513,-1.39417 -11.54034,-10.64858 -12.83455,-14.96826 -0.99387,-3.31723 -0.81908,-6.29852 1.06922,-18.23712 2.58757,-16.35968 2.35556,-24.09445 -0.94297,-31.43621 -2.38574,-5.31009 -3.7053,-14.65868 -2.65805,-18.83125 0.35489,-1.41398 2.02029,-4.13696 3.7009,-6.05107 2.17027,-2.47179 2.9629,-4.28807 2.73555,-6.26834 -0.31579,-2.75064 -0.42097,-2.79124 -7.8201,-3.01889 -10.59303,-0.32591 -50.04138,-3.22551 -59,-4.33673 -4.125,-0.51166 -12.31924,-1.87356 -18.20941,-3.02644 l -10.70942,-2.09615 -6.29058,2.07186 c -8.42638,2.7753 -16.38303,4.53675 -34.29059,7.59128 -15.00212,2.55895 -56.15836,11.19775 -57.60405,12.09124 -0.42156,0.26054 -1.72956,3.05265 -2.90667,6.2047 -4.37642,11.71912 -9.28666,21.88797 -16.72032,34.62691 -8.79782,15.07669 -16.11735,30.18888 -22.58414,46.62806 -6.2033,15.76937 -6.30236,16.30003 -3.71982,19.92687 2.60164,3.65366 13.42556,10.25909 21.1862,12.92914 3.09757,1.06573 7.94265,3.52716 10.76683,5.46985 2.82418,1.9427 5.97439,3.79863 7.00045,4.12429 2.42753,0.77046 3.22164,3.95266 1.55453,6.22939 -1.77575,2.4251 -9.50172,2.1716 -16.04243,-0.52637 -2.71182,-1.11859 -7.49209,-2.32019 -10.62283,-2.67022 -6.46271,-0.72255 -16.80775,1.24189 -16.80775,3.19166 0,0.68411 1.36526,4.96928 3.03391,9.52262 3.36958,9.19474 3.23706,12.42169 -0.54914,13.37197 -4.35933,1.09412 -7.0394,-0.27912 -8.99094,-4.60686 -2.08795,-4.63026 -8.6234,-10.98632 -11.29638,-10.98632 -1.37474,0 -2.32013,1.77886 -4.02485,7.57319 -2.43575,8.27909 -5.62518,12.42681 -9.55572,12.42681 -3.32982,0 -5.93848,-2.73235 -5.15465,-5.39908 1.15612,-3.93337 2.71989,-14.75213 2.20651,-15.26552 -0.97182,-0.97181 -6.61662,4.01075 -11.13383,9.82762 -4.1947,5.40157 -4.83362,5.83698 -8.56525,5.83698 -5.83233,0 -6.08694,-1.96016 -1.40018,-10.77972 2.16179,-4.06806 4.09673,-7.85546 4.29987,-8.41644 0.54538,-1.50603 -6.71089,-0.0686 -16.70178,3.30853 -4.69851,1.5882 -9.71833,2.88763 -11.15516,2.88763 -2.51944,0 -5.01241,-1.57627 -5.01241,-3.16927 0,-1.36617 11.07803,-7.90455 20.1765,-11.9084 11.23058,-4.9421 13.5554,-6.49005 15.50065,-10.32083 0.86621,-1.70582 3.85833,-6.20311 6.64916,-9.99396 3.86063,-5.24401 6.12381,-9.90779 9.46267,-19.5 8.84125,-25.40002 11.51015,-34.02338 16.79055,-54.25099 2.96392,-11.3539 5.85872,-21.87902 6.43287,-23.38917 l 1.04392,-2.74572 -6.53854,0.52485 c -5.90276,0.47382 -7.69323,1.21767 -18.41349,7.64989 -23.40486,14.04306 -33.33236,17.18726 -53.51396,16.94873 -10.20604,-0.12062 -18.92928,0.6495 -39.59033,3.49521 -31.83774,4.3851 -44.15419,6.8637 -53.63683,10.79402 -8.14438,3.37566 -9.41642,4.56143 -11.82788,11.02586 -2.37665,6.3711 -5.91298,9.44264 -12.99541,11.28738 -8.19592,2.13476 -16.40179,1.97181 -22.53988,-0.4476 -2.79072,-1.1 -6.51988,-1.99722 -8.28702,-1.99381 -1.92678,0.004 -9.61801,3.05742 -19.21298,7.62829 -14.64048,6.97445 -16.86691,7.73732 -26.2026,8.97812 -5.61143,0.74582 -12.13643,1.80208 -14.5,2.34727 -7.42083,1.71169 -14.53221,1.30532 -16.7974,-0.95987 -3.14221,-3.14221 -2.65854,-8.26809 1.07673,-11.41111 1.69219,-1.42389 3.43645,-2.58889 3.87613,-2.58889 0.43967,0 2.50926,-3.25386 4.59908,-7.23079 3.67286,-6.98947 10.98567,-15.91619 14.64135,-17.87265 0.97738,-0.52308 8.56646,-2.73337 16.86462,-4.91176 16.16625,-4.24388 40.11941,-13.17783 47.03296,-17.54216 2.32617,-1.46845 10.56984,-4.82023 18.31927,-7.44841 7.74942,-2.62817 25.11486,-9.35976 38.58986,-14.95908 67.39599,-28.00531 78.09724,-31.84218 104.86572,-37.59898 17.78793,-3.82546 18.28719,-4.00578 25.412,-9.1785 2.62774,-1.90779 7.80274,-4.37546 11.5,-5.48372 8.42808,-2.52633 31.16049,-13.95195 41.71062,-20.96432 l 7.98834,-5.30963 1.18617,-7.1975 c 0.6524,-3.95863 1.70229,-13.40863 2.33309,-21 1.92918,-23.21653 3.85026,-32.29501 10.75024,-50.8025 1.64041,-4.4 3.76502,-12.725 4.72134,-18.5 1.89965,-11.47155 4.25702,-18.52562 10.02558,-30 5.51889,-10.97777 8.78357,-15.4062 19.30824,-26.19109 l 9.45727,-9.69109 0.4993,-6.97842 c 0.67447,-9.42657 0.0483,-11.22136 -5.23951,-15.0188 -7.3921,-5.30861 -7.50956,-5.82996 -6.5786,-29.19887 0.78436,-19.68862 0.74105,-20.50131 -1.20633,-22.63862 -4.46295,-4.89823 0.25074,-18.131 9.86871,-27.70452 8.1805,-8.14268 22.00096,-20.49459 26.10936,-23.33501 2.08365,-1.44057 5.92279,-4.07713 8.53143,-5.85904 5.35539,-3.65816 12.23177,-5.39292 21.75968,-5.48948 8.10812,-0.0822 10.27073,-1.43297 12.5813,-7.85845 2.52474,-7.02106 5.97994,-10.15683 17.62627,-15.99673 10.96546,-5.49847 12.54892,-5.74458 25.46742,-3.9582 11.15509,1.54253 16.19635,4.57807 23.03459,13.87003 3.05526,4.15156 6.44827,9.57329 7.54002,12.04829 1.09174,2.475 4.90457,10.78753 8.47295,18.4723 3.56838,7.68476 7.84204,17.80976 9.49701,22.5 1.65498,4.69023 4.80535,12.5777 7.00083,17.5277 2.19549,4.95 5.05859,11.80578 6.36245,15.23508 3.1015,8.15727 8.02613,17.954 11.04882,21.97974 1.84054,2.45132 4.01118,3.69182 9.13975,5.22332 8.1245,2.42613 11.00532,4.32767 12.79039,8.44255 0.74424,1.71562 4.29776,7.16931 7.89669,12.11931 13.70433,18.84903 21.77978,40.09469 23.18602,61 0.52913,7.86607 -1.31126,34.84361 -3.25748,47.75 -0.48952,3.2463 -0.30314,3.75 1.38756,3.75 2.89801,0 7.22276,3.821 7.22276,6.38145 0,3.49557 2.11506,5.32371 7,6.05042 7.04924,1.04868 22.12844,6.42867 25.74064,9.18384 1.8011,1.37376 6.0599,3.41207 9.4639,4.52957 28.8707,9.47776 48.2001,20.9077 66.311,39.21136 16.1058,16.27723 19.4618,23.38731 19.4787,41.26763 0.01,6.88146 -1.1532,10.72362 -6.6222,21.93933 -9.7345,19.96317 -23.6413,27.51924 -58.872,31.98735 -10.5681,1.34029 -20.0063,1.58327 -50.4528,1.29888 l -37.45276,-0.34983 -1.72949,17 c -0.95123,9.35 -2.43498,23.6247 -3.29724,31.72156 -0.86226,8.09686 -1.56775,20.89767 -1.56775,28.44625 0,13.15563 0.10792,13.88042 2.60286,17.48061 3.7331,5.38687 16.94415,16.75776 24.22601,20.85158 19.59067,11.01377 23.67117,13.69826 23.67117,15.57297 0,2.8428 -6.7812,3.09272 -12.88811,0.47501 -6.91969,-2.96613 -7.35614,-2.57901 -2.73929,2.42968 5.90451,6.40563 5.321,8.52234 -2.34933,8.52234 -2.40841,0 -5.3475,-1.4596 -10.76313,-5.34513 -10.37689,-7.44508 -10.19938,-7.35291 -8.71563,-4.52555 0.68425,1.30388 2.75414,4.05948 4.59977,6.12356 5.34961,5.98283 4.30824,8.74712 -3.29523,8.74712 -3.07604,0 -4.60049,-1.12042 -12.92576,-9.5 z M 764.55325,389.75315 c 1.03011,-2.26084 7.73936,-6.70777 10.12028,-6.70777 0.72124,0 1.8734,-0.9 2.56036,-2 0.68696,-1.1 1.85046,-2 2.58556,-2 4.14584,0 6.48144,-9.20288 3.6692,-14.4576 -1.26587,-2.3653 -1.78834,-2.55013 -5.5951,-1.97927 -4.55526,0.6831 -8.01209,-0.58992 -10.27874,-3.78528 -1.27481,-1.79714 -1.45724,-1.80873 -3.22904,-0.20528 -2.67451,2.4204 -5.36,10.226 -7.8881,22.92743 -1.2042,6.05 -2.43703,12.04951 -2.73963,13.33224 l -0.55018,2.33224 5.16691,-2.61827 c 2.84179,-1.44005 5.62211,-3.61734 6.17848,-4.83844 z"
       id="path13966" />
  </g>
</svg>
